0
SECTION
2
HEADER
9
$INSUNITS
70
4
9
$ACADVER
1
AC1014
9
$HANDSEED
5
FFFF
0
ENDSEC
0
SECTION
2
TABLES
0
TABLE
2
VPORT
5
8
100
AcDbSymbolTable
0
ENDTAB
0
TABLE
2
LTYPE
5
5
100
AcDbSymbolTable
0
LTYPE
5
14
100
AcDbSymbolTableRecord
100
AcDbLinetypeTableRecord
2
BYBLOCK
70
0
0
LTYPE
5
15
100
AcDbSymbolTableRecord
100
AcDbLinetypeTableRecord
2
BYLAYER
70
0
0
ENDTAB
0
TABLE
2
LAYER
5
2
100
AcDbSymbolTable
70
2
0
LAYER
5
50
100
AcDbSymbolTableRecord
100
AcDbLayerTableRecord
2
0
70
0
6
CONTINUOUS
0
ENDTAB
0
TABLE
2
STYLE
5
3
100
AcDbSymbolTable
70
1
0
STYLE
5
11
100
AcDbSymbolTableRecord
100
AcDbTextStyleTableRecord
2
STANDARD
70
0
0
ENDTAB
0
TABLE
2
VIEW
5
6
100
AcDbSymbolTable
70
0
0
ENDTAB
0
TABLE
2
UCS
5
7
100
AcDbSymbolTable
70
0
0
ENDTAB
0
TABLE
2
APPID
5
9
100
AcDbSymbolTable
70
2
0
APPID
5
12
100
AcDbSymbolTableRecord
100
AcDbRegAppTableRecord
2
ACAD
70
0
0
ENDTAB
0
TABLE
2
DIMSTYLE
5
A
100
AcDbSymbolTable
70
1
0
ENDTAB
0
TABLE
2
BLOCK_RECORD
5
1
100
AcDbSymbolTable
70
1
0
BLOCK_RECORD
5
1F
100
AcDbSymbolTableRecord
100
AcDbBlockTableRecord
2
*MODEL_SPACE
0
BLOCK_RECORD
5
1B
100
AcDbSymbolTableRecord
100
AcDbBlockTableRecord
2
*PAPER_SPACE
0
ENDTAB
0
ENDSEC
0
SECTION
2
BLOCKS
0
BLOCK
5
20
100
AcDbEntity
100
AcDbBlockBegin
2
*MODEL_SPACE
0
ENDBLK
5
21
100
AcDbEntity
100
AcDbBlockEnd
0
BLOCK
5
1C
100
AcDbEntity
100
AcDbBlockBegin
2
*PAPER_SPACE
0
ENDBLK
5
1D
100
AcDbEntity
100
AcDbBlockEnd
0
ENDSEC
0
SECTION
2
ENTITIES
0
SPLINE
5
100
100
AcDbEntity
8
0
100
AcDbSpline
70
0
71
3
72
8
73
4
74
0
42
0.000000001
43
0.0000000001
44
0.0000000001
40
0
40
0
40
0
40
0
40
1
40
1
40
1
40
1
10
24246.467027901057
20
25285.865220458043
30
0
10
24283.494948627482
20
25245.980247594758
30
0
10
24320.51849408264
20
25206.104025273999
30
0
10
24358.268334567987
20
25165.440254125308
30
0
0
SPLINE
5
101
100
AcDbEntity
8
0
100
AcDbSpline
70
0
71
3
72
8
73
4
74
0
42
0.000000001
43
0.0000000001
44
0.0000000001
40
1
40
1
40
1
40
1
40
2
40
2
40
2
40
2
10
24358.268334567987
20
25165.440254125308
30
0
10
24328.66524918042
20
25169.37799826495
30
0
10
24304.531252875695
20
25185.925274193974
30
0
10
24280.476011453757
20
25204.275161884696
30
0
0
SPLINE
5
102
100
AcDbEntity
8
0
100
AcDbSpline
70
0
71
3
72
8
73
4
74
0
42
0.000000001
43
0.0000000001
44
0.0000000001
40
2
40
2
40
2
40
2
40
3
40
3
40
3
40
3
10
24280.476011453757
20
25204.275161884696
30
0
10
24255.182568263463
20
25223.578858711466
30
0
10
24243.863741497629
20
25249.025436396081
30
0
10
24246.467027901057
20
25285.865220458043
30
0
0
SPLINE
5
103
100
AcDbEntity
8
0
100
AcDbSpline
70
0
71
3
72
8
73
4
74
0
42
0.000000001
43
0.0000000001
44
0.0000000001
40
0
40
0
40
0
40
0
40
1
40
1
40
1
40
1
10
24376.780107295563
20
26267.877355086675
30
0
10
24377.252636592326
20
26310.903772719139
30
0
10
24389.551524121795
20
26322.839512733539
30
0
10
24432.19729315411
20
26324.720879378016
30
0
0
SPLINE
5
104
100
AcDbEntity
8
0
100
AcDbSpline
70
0
71
3
72
8
73
4
74
0
42
0.000000001
43
0.0000000001
44
0.0000000001
40
1
40
1
40
1
40
1
40
2
40
2
40
2
40
2
10
24432.19729315411
20
26324.720879378016
30
0
10
24418.773960909199
20
26299.913091298287
30
0
10
24399.785283613597
20
26285.387190694288
30
0
10
24376.780107295563
20
26267.877355086675
30
0
0
SPLINE
5
105
100
AcDbEntity
8
0
100
AcDbSpline
70
0
71
3
72
8
73
4
74
0
42
0.000000001
43
0.0000000001
44
0.0000000001
40
0
40
0
40
0
40
0
40
1
40
1
40
1
40
1
10
24974.359032113622
20
26877.378894105317
30
0
10
24943.587749297963
20
26845.701930137526
30
0
10
24906.686711438262
20
26807.715825003794
30
0
10
24873.299016405377
20
26773.343693936004
30
0
0
SPLINE
5
106
100
AcDbEntity
8
0
100
AcDbSpline
70
0
71
3
72
8
73
4
74
0
42
0.000000001
43
0.0000000001
44
0.0000000001
40
1
40
1
40
1
40
1
40
2
40
2
40
2
40
2
10
24873.299016405377
20
26773.343693936004
30
0
10
24883.812793258217
20
26829.679686760461
30
0
10
24926.449811747989
20
26871.577284406249
30
0
10
24974.359032113622
20
26877.378894105317
30
0
0
SPLINE
5
107
100
AcDbEntity
8
0
100
AcDbSpline
70
0
71
3
72
8
73
4
74
0
42
0.000000001
43
0.0000000001
44
0.0000000001
40
0
40
0
40
0
40
0
40
1
40
1
40
1
40
1
10
26723.159332511932
20
27093.56104737159
30
0
10
26746.540782158849
20
27097.148769809919
30
0
10
26765.564461624595
20
27096.868752448871
30
0
10
26784.448132409809
20
27094.331095114445
30
0
0
SPLINE
5
108
100
AcDbEntity
8
0
100
AcDbSpline
70
0
71
3
72
8
73
4
74
0
42
0.000000001
43
0.0000000001
44
0.0000000001
40
1
40
1
40
1
40
1
40
2
40
2
40
2
40
2
10
26784.448132409809
20
27094.331095114445
30
0
10
26801.021659966424
20
27041.792837749112
30
0
10
26781.201681130227
20
26998.048875628952
30
0
10
26732.732426042523
20
26976.828809987561
30
0
0
SPLINE
5
109
100
AcDbEntity
8
0
100
AcDbSpline
70
0
71
3
72
8
73
4
74
0
42
0.000000001
43
0.0000000001
44
0.0000000001
40
2
40
2
40
2
40
2
40
3
40
3
40
3
40
3
10
26732.732426042523
20
26976.828809987561
30
0
10
26700.477926267595
20
26962.70543434006
30
0
10
26668.625951449172
20
26947.566995758774
30
0
10
26632.538714044997
20
26921.612886607287
30
0
0
SPLINE
5
110
100
AcDbEntity
8
0
100
AcDbSpline
70
0
71
3
72
11
73
7
74
0
42
0.000000001
43
0.0000000001
44
0.0000000001
40
3
40
3
40
3
40
3
40
4
40
4
40
4
40
5
40
5
40
5
40
5
10
26632.538714044997
20
26921.612886607287
30
0
10
26638.734098158038
20
26942.447928377253
30
0
10
26648.867239228159
20
26951.040939690665
30
0
10
26658.47532211143
20
26956.781317045541
30
0
10
26703.190654104241
20
26983.496623554209
30
0
10
26726.782057120392
20
27020.450264512241
30
0
10
26720.849189283334
20
27073.837324503242
30
0
0
SPLINE
5
111
100
AcDbEntity
8
0
100
AcDbSpline
70
0
71
3
72
8
73
4
74
0
42
0.000000001
43
0.0000000001
44
0.0000000001
40
5
40
5
40
5
40
5
40
6
40
6
40
6
40
6
10
26720.849189283334
20
27073.837324503242
30
0
10
26720.236651306048
20
27079.367667383809
30
0
10
26722.109267408028
20
27085.169277082874
30
0
10
26723.159332511932
20
27093.56104737159
30
0
0
SPLINE
5
112
100
AcDbEntity
8
0
100
AcDbSpline
70
0
71
3
72
8
73
4
74
0
42
0.000000001
43
0.0000000001
44
0.0000000001
40
0
40
0
40
0
40
0
40
1
40
1
40
1
40
1
10
24797.414311563232
20
24729.724489802815
30
0
10
24817.903706903166
20
24713.754749680935
30
0
10
24835.84231909486
20
24697.977521494773
30
0
10
24849.375033121425
20
24674.97234517675
30
0
0
SPLINE
5
113
100
AcDbEntity
8
0
100
AcDbSpline
70
0
71
3
72
8
73
4
74
0
42
0.000000001
43
0.0000000001
44
0.0000000001
40
1
40
1
40
1
40
1
40
2
40
2
40
2
40
2
10
24849.375033121425
20
24674.97234517675
30
0
10
24806.326739132623
20
24675.26111308032
30
0
10
24794.894155313868
20
24687.42436720054
30
0
10
24797.414311563232
20
24729.724489802815
30
0
0
SPLINE
5
114
100
AcDbEntity
8
0
100
AcDbSpline
70
0
71
3
72
8
73
4
74
0
42
0.000000001
43
0.0000000001
44
0.0000000001
40
0
40
0
40
0
40
0
40
1
40
1
40
1
40
1
10
26392.721345398346
20
24768.77816112552
30
0
10
26446.86970258968
20
24768.38438671155
30
0
10
26496.642788514735
20
24752.222134653963
30
0
10
26545.768334292377
20
24733.172203560629
30
0
0
SPLINE
5
115
100
AcDbEntity
8
0
100
AcDbSpline
70
0
71
3
72
8
73
4
74
0
42
0.000000001
43
0.0000000001
44
0.0000000001
40
1
40
1
40
1
40
1
40
2
40
2
40
2
40
2
10
26545.768334292377
20
24733.172203560629
30
0
10
26555.297675110312
20
24729.470724069368
30
0
10
26559.401679558072
20
24722.137769427103
30
0
10
26562.963150368818
20
24713.973513244255
30
0
0
SPLINE
5
116
100
AcDbEntity
8
0
100
AcDbSpline
70
0
71
3
72
8
73
4
74
0
42
0.000000001
43
0.0000000001
44
0.0000000001
40
2
40
2
40
2
40
2
40
3
40
3
40
3
40
3
10
26562.963150368818
20
24713.973513244255
30
0
10
26605.814557150617
20
24615.871180912007
30
0
10
26683.239357478484
20
24567.244416058711
30
0
10
26789.51469653612
20
24558.940151195333
30
0
0
SPLINE
5
117
100
AcDbEntity
8
0
100
AcDbSpline
70
0
71
3
72
8
73
4
74
0
42
0.000000001
43
0.0000000001
44
0.0000000001
40
3
40
3
40
3
40
3
40
4
40
4
40
4
40
4
10
26789.51469653612
20
24558.940151195333
30
0
10
26792.98866192155
20
24541.377812332536
30
0
10
26794.24874004622
20
24525.915603677549
30
0
10
26787.755837487097
20
24506.708162818635
30
0
0
SPLINE
5
118
100
AcDbEntity
8
0
100
AcDbSpline
70
0
71
3
72
8
73
4
74
0
42
0.000000001
43
0.0000000001
44
0.0000000001
40
4
40
4
40
4
40
4
40
5
40
5
40
5
40
5
10
26787.755837487097
20
24506.708162818635
30
0
10
26742.830552125066
20
24524.830536403515
30
0
10
26700.302915416934
20
24513.043555612196
30
0
10
26656.042671287389
20
24499.838986930594
30
0
0
SPLINE
5
119
100
AcDbEntity
8
0
100
AcDbSpline
70
0
71
3
72
8
73
4
74
0
42
0.000000001
43
0.0000000001
44
0.0000000001
40
5
40
5
40
5
40
5
40
6
40
6
40
6
40
6
10
26656.042671287389
20
24499.838986930594
30
0
10
26639.06661877425
20
24512.299759496927
30
0
10
26622.475590132577
20
24527.420696993144
30
0
10
26600.958006045072
20
24534.517386987034
30
0
0
SPLINE
5
120
100
AcDbEntity
8
0
100
AcDbSpline
70
0
71
3
72
8
73
4
74
0
42
0.000000001
43
0.0000000001
44
0.0000000001
40
6
40
6
40
6
40
6
40
7
40
7
40
7
40
7
10
26600.958006045072
20
24534.517386987034
30
0
10
26567.819701474364
20
24545.455565152701
30
0
10
26551.491189108645
20
24568.56574798112
30
0
10
26549.46106324112
20
24603.532915941134
30
0
0
SPLINE
5
121
100
AcDbEntity
8
0
100
AcDbSpline
70
0
71
3
72
8
73
4
74
0
42
0.000000001
43
0.0000000001
44
0.0000000001
40
7
40
7
40
7
40
7
40
8
40
8
40
8
40
8
10
26549.46106324112
20
24603.532915941134
30
0
10
26546.722143428418
20
24650.637086393766
30
0
10
26524.312004002612
20
24687.42436720054
30
0
10
26488.758549692924
20
24718.068767149474
30
0
0
SPLINE
5
122
100
AcDbEntity
8
0
100
AcDbSpline
70
0
71
3
72
8
73
4
74
0
42
0.000000001
43
0.0000000001
44
0.0000000001
40
8
40
8
40
8
40
8
40
9
40
9
40
9
40
9
10
26488.758549692924
20
24718.068767149474
30
0
10
26472.438787869753
20
24732.130888999265
30
0
10
26454.596431645896
20
24741.931496635705
30
0
10
26434.77645280971
20
24747.496841686389
30
0
0
SPLINE
5
123
100
AcDbEntity
8
0
100
AcDbSpline
70
0
71
3
72
8
73
4
74
0
42
0.000000001
43
0.0000000001
44
0.0000000001
40
9
40
9
40
9
40
9
40
10
40
10
40
10
40
10
10
26434.77645280971
20
24747.496841686389
30
0
10
26419.340495782322
20
24751.83711078253
30
0
10
26405.304625560133
20
24757.638720481598
30
0
10
26392.721345398346
20
24768.77816112552
30
0
0
SPLINE
5
124
100
AcDbEntity
8
0
100
AcDbSpline
70
0
71
3
72
8
73
4
74
0
42
0.000000001
43
0.0000000001
44
0.0000000001
40
0
40
0
40
0
40
0
40
1
40
1
40
1
40
1
10
26792.166110923499
20
24860.440094153815
30
0
10
26768.854665616815
20
24863.144011796365
30
0
10
26758.126500471921
20
24878.439960143241
30
0
10
26745.490717054941
20
24890.629465891056
30
0
0
SPLINE
5
125
100
AcDbEntity
8
0
100
AcDbSpline
70
0
71
3
72
11
73
7
74
0
42
0.000000001
43
0.0000000001
44
0.0000000001
40
1
40
1
40
1
40
1
40
2
40
2
40
2
40
3
40
3
40
3
40
3
10
26745.490717054941
20
24890.629465891056
30
0
10
26690.239791504508
20
24943.96402262686
30
0
10
26621.810617530398
20
24973.287423551934
30
0
10
26548.848525263838
20
24988.329273266809
30
0
10
26480.891875878191
20
25002.339201921965
30
0
10
26427.233485146677
20
24973.024574377399
30
0
10
26390.428703254809
20
24908.349314519441
30
0
0
SPLINE
5
126
100
AcDbEntity
8
0
100
AcDbSpline
70
0
71
3
72
8
73
4
74
0
42
0.000000001
43
0.0000000001
44
0.0000000001
40
3
40
3
40
3
40
3
40
4
40
4
40
4
40
4
10
26390.428703254809
20
24908.349314519441
30
0
10
26343.875816981748
20
24926.882963603348
30
0
10
26288.117359964446
20
24903.764030232396
30
0
10
26245.178447757276
20
24941.636378313211
30
0
0
SPLINE
5
127
100
AcDbEntity
8
0
100
AcDbSpline
70
0
71
3
72
8
73
4
74
0
42
0.000000001
43
0.0000000001
44
0.0000000001
40
4
40
4
40
4
40
4
40
5
40
5
40
5
40
5
10
26245.178447757276
20
24941.636378313211
30
0
10
26252.36264317649
20
24959.242469888664
30
0
10
26264.797164115218
20
24953.615871040241
30
0
10
26273.801472381194
20
24956.643558756499
30
0
0
SPLINE
5
128
100
AcDbEntity
8
0
100
AcDbSpline
70
0
71
3
72
8
73
4
74
0
42
0.000000001
43
0.0000000001
44
0.0000000001
40
5
40
5
40
5
40
5
40
6
40
6
40
6
40
6
10
26273.801472381194
20
24956.643558756499
30
0
10
26309.21491801037
20
24968.579298770877
30
0
10
26344.129582715184
20
24981.486349006365
30
0
10
26368.666103976415
20
25011.964488647187
30
0
0
SPLINE
5
129
100
AcDbEntity
8
0
100
AcDbSpline
70
0
71
3
72
8
73
4
74
0
42
0.000000001
43
0.0000000001
44
0.0000000001
40
6
40
6
40
6
40
6
40
7
40
7
40
7
40
7
10
26368.666103976415
20
25011.964488647187
30
0
10
26382.736976368724
20
25029.439322084658
30
0
10
26400.124304380864
20
25035.5296996873
30
0
10
26422.971970933322
20
25036.457257195747
30
0
0
SPLINE
5
130
100
AcDbEntity
8
0
100
AcDbSpline
70
0
71
3
72
8
73
4
74
0
42
0.000000001
43
0.0000000001
44
0.0000000001
40
7
40
7
40
7
40
7
40
8
40
8
40
8
40
8
10
26422.971970933322
20
25036.457257195747
30
0
10
26485.71336089159
20
25038.986163987654
30
0
10
26547.850963415127
20
25033.263309171372
30
0
10
26609.612292609745
20
25024.880289425204
30
0
0
SPLINE
5
131
100
AcDbEntity
8
0
100
AcDbSpline
70
0
71
3
72
8
73
4
74
0
42
0.000000001
43
0.0000000001
44
0.0000000001
40
8
40
8
40
8
40
8
40
9
40
9
40
9
40
9
10
26609.612292609745
20
25024.880289425204
30
0
10
26633.203755277471
20
25021.668840315764
30
0
10
26658.895348152986
20
25016.689781614754
30
0
10
26673.4737520122
20
24990.586913240204
30
0
0
SPLINE
5
132
100
AcDbEntity
8
0
100
AcDbSpline
70
0
71
3
72
8
73
4
74
0
42
0.000000001
43
0.0000000001
44
0.0000000001
40
9
40
9
40
9
40
9
40
10
40
10
40
10
40
10
10
26673.4737520122
20
24990.586913240204
30
0
10
26698.272789549377
20
24946.151658259994
30
0
10
26732.504911936667
20
24912.680833073046
30
0
10
26785.795715959794
20
24909.513136676273
30
0
0
SPLINE
5
133
100
AcDbEntity
8
0
100
AcDbSpline
70
0
71
3
72
8
73
4
74
0
42
0.000000001
43
0.0000000001
44
0.0000000001
40
10
40
10
40
10
40
10
40
11
40
11
40
11
40
11
10
26785.795715959794
20
24909.513136676273
30
0
10
26797.39893535796
20
24892.257066802114
30
0
10
26790.53851001244
20
24876.611096753943
30
0
10
26792.166110923499
20
24860.440094153815
30
0
0
SPLINE
5
134
100
AcDbEntity
8
0
100
AcDbSpline
70
0
71
3
72
8
73
4
74
0
42
0.000000001
43
0.0000000001
44
0.0000000001
40
0
40
0
40
0
40
0
40
1
40
1
40
1
40
1
10
24140.16106194456
20
25386.85523182603
30
0
10
24119.636664434503
20
25387.774038791944
30
0
10
24108.300336583601
20
25398.405947968982
30
0
10
24094.806999998436
20
25402.361193193683
30
0
0
SPLINE
5
135
100
AcDbEntity
8
0
100
AcDbSpline
70
0
71
3
72
8
73
4
74
0
42
0.000000001
43
0.0000000001
44
0.0000000001
40
1
40
1
40
1
40
1
40
2
40
2
40
2
40
2
10
24094.806999998436
20
25402.361193193683
30
0
10
24030.188618666936
20
25421.306117776629
30
0
10
24030.179868124404
20
25421.27986614902
30
0
10
24034.073859551383
20
25493.848115371336
30
0
0
SPLINE
5
136
100
AcDbEntity
8
0
100
AcDbSpline
70
0
71
3
72
8
73
4
74
0
42
0.000000001
43
0.0000000001
44
0.0000000001
40
2
40
2
40
2
40
2
40
3
40
3
40
3
40
3
10
24034.073859551383
20
25493.848115371336
30
0
10
24072.790634986581
20
25459.5459886438
30
0
10
24105.517664058258
20
25426.197671052305
30
0
10
24140.16106194456
20
25386.85523182603
30
0
0
LINE
5
137
100
AcDbEntity
8
0
100
AcDbLine
10
23938.338548974185
20
27185.20547931482
30
0
11
26884.309323791087
21
27185.20547931482
31
0
0
SPLINE
5
138
100
AcDbEntity
8
0
100
AcDbSpline
70
0
71
3
72
8
73
4
74
0
42
0.000000001
43
0.0000000001
44
0.0000000001
40
1
40
1
40
1
40
1
40
2
40
2
40
2
40
2
10
26884.309323791087
20
27185.20547931482
30
0
10
26895.580022572984
20
27166.654329145844
30
0
10
26890.452204648915
20
27146.85185139472
30
0
10
26890.452204648915
20
27128.169443087754
30
0
0
SPLINE
5
139
100
AcDbEntity
8
0
100
AcDbSpline
70
0
71
3
72
8
73
4
74
0
42
0.000000001
43
0.0000000001
44
0.0000000001
40
2
40
2
40
2
40
2
40
3
40
3
40
3
40
3
10
26890.452204648915
20
27128.169443087754
30
0
10
26890.557211159292
20
26451.682500982562
30
0
10
26890.294694883341
20
25775.186808334838
30
0
10
26890.137185117739
20
25098.699866229668
30
0
0
SPLINE
5
140
100
AcDbEntity
8
0
100
AcDbSpline
70
0
71
3
72
8
73
4
74
0
42
0.000000001
43
0.0000000001
44
0.0000000001
40
3
40
3
40
3
40
3
40
4
40
4
40
4
40
4
10
26890.137185117739
20
25098.699866229668
30
0
10
26890.067180777485
20
24828.404357942203
30
0
10
26890.102182947612
20
24558.100099112213
30
0
10
26890.084681862543
20
24287.804590824748
30
0
0
SPLINE
5
141
100
AcDbEntity
8
0
100
AcDbSpline
70
0
71
3
72
8
73
4
74
0
42
0.000000001
43
0.0000000001
44
0.0000000001
40
4
40
4
40
4
40
4
40
5
40
5
40
5
40
5
10
26890.084681862543
20
24287.804590824748
30
0
10
26890.084681862543
20
24278.844035271435
30
0
10
26889.603402023255
20
24269.857228090517
30
0
10
26890.154686202804
20
24260.931674707339
30
0
0
SPLINE
5
142
100
AcDbEntity
8
0
100
AcDbSpline
70
0
71
3
72
8
73
4
74
0
42
0.000000001
43
0.0000000001
44
0.0000000001
40
5
40
5
40
5
40
5
40
6
40
6
40
6
40
6
10
26890.154686202804
20
24260.931674707339
30
0
10
26891.62477734829
20
24237.34021203962
30
0
10
26879.689037333887
20
24228.642172762284
30
0
10
26857.480160386327
20
24229.919751972033
30
0
0
SPLINE
5
143
100
AcDbEntity
8
0
100
AcDbSpline
70
0
71
3
72
8
73
4
74
0
42
0.000000001
43
0.0000000001
44
0.0000000001
40
6
40
6
40
6
40
6
40
7
40
7
40
7
40
7
10
26857.480160386327
20
24229.919751972033
30
0
10
26847.067014772601
20
24230.514788864242
30
0
10
26836.583864818625
20
24229.884749801909
30
0
10
26826.135717034773
20
24229.884749801909
30
0
0
SPLINE
5
144
100
AcDbEntity
8
0
100
AcDbSpline
70
0
71
3
72
8
73
4
74
0
42
0.000000001
43
0.0000000001
44
0.0000000001
40
7
40
7
40
7
40
7
40
8
40
8
40
8
40
8
10
26826.135717034773
20
24229.884749801909
30
0
10
25877.848173326562
20
24229.867248716837
30
0
10
24929.569380160836
20
24229.858498174308
30
0
10
23981.286211723858
20
24229.849747631775
30
0
0
LINE
5
145
100
AcDbEntity
8
0
100
AcDbLine
10
23981.286211723858
20
24229.849747631775
30
0
11
23941.943772497594
21
24229.849747631775
31
0
0
SPLINE
5
146
100
AcDbEntity
8
0
100
AcDbSpline
70
0
71
3
72
8
73
4
74
0
42
0.000000001
43
0.0000000001
44
0.0000000001
40
9
40
9
40
9
40
9
40
10
40
10
40
10
40
10
10
23941.943772497594
20
24229.849747631775
30
0
10
23931.758140989718
20
24262.191752832026
30
0
10
23928.319177774432
20
27114.982375491229
30
0
10
23938.338548974185
20
27185.20547931482
30
0
0
SPLINE
5
147
100
AcDbEntity
8
0
100
AcDbSpline
70
0
71
3
72
8
73
4
74
0
42
0.000000001
43
0.0000000001
44
0.0000000001
40
0
40
0
40
0
40
0
40
1
40
1
40
1
40
1
10
25095.593423630617
20
26991.407213846775
30
0
10
25103.486412994967
20
27024.493015162279
30
0
10
25103.993944461854
20
27057.377553999555
30
0
10
25122.085691147862
20
27086.551862803019
30
0
0
SPLINE
5
148
100
AcDbEntity
8
0
100
AcDbSpline
70
0
71
3
72
8
73
4
74
0
42
0.000000001
43
0.0000000001
44
0.0000000001
40
1
40
1
40
1
40
1
40
2
40
2
40
2
40
2
10
25122.085691147862
20
27086.551862803019
30
0
10
25143.52889562384
20
27087.899446353033
30
0
10
25164.713959095105
20
27090.332097177081
30
0
10
25190.462430497086
20
27083.410418033822
30
0
0
SPLINE
5
149
100
AcDbEntity
8
0
100
AcDbSpline
70
0
71
3
72
8
73
4
74
0
42
0.000000001
43
0.0000000001
44
0.0000000001
40
2
40
2
40
2
40
2
40
3
40
3
40
3
40
3
10
25190.462430497086
20
27083.410418033822
30
0
10
25163.585139108407
20
27044.120482062746
30
0
10
25129.781793305228
20
27017.825101752493
30
0
10
25095.593423630617
20
26991.407213846775
30
0
0
SPLINE
5
150
100
AcDbEntity
8
0
100
AcDbSpline
70
0
71
3
72
8
73
4
74
0
42
0.000000001
43
0.0000000001
44
0.0000000001
40
0
40
0
40
0
40
0
40
1
40
1
40
1
40
1
10
26047.092416448293
20
26840.41660244788
30
0
10
26025.294814999743
20
26868.67210428543
30
0
10
26019.239439567231
20
26895.860039934036
30
0
10
26021.313318147462
20
26926.539442053087
30
0
0
SPLINE
5
151
100
AcDbEntity
8
0
100
AcDbSpline
70
0
71
3
72
8
73
4
74
0
42
0.000000001
43
0.0000000001
44
0.0000000001
40
1
40
1
40
1
40
1
40
2
40
2
40
2
40
2
10
26021.313318147462
20
26926.539442053087
30
0
10
26023.34344401499
20
26956.597555652334
30
0
10
26006.612406692799
20
26980.460285138564
30
0
10
25986.433655612767
20
27000.656537303665
30
0
0
SPLINE
5
152
100
AcDbEntity
8
0
100
AcDbSpline
70
0
71
3
72
8
73
4
74
0
42
0.000000001
43
0.0000000001
44
0.0000000001
40
2
40
2
40
2
40
2
40
3
40
3
40
3
40
3
10
25986.433655612767
20
27000.656537303665
30
0
10
25951.562743620616
20
27035.544950380878
30
0
10
25910.776464876471
20
27061.954087744052
30
0
10
25864.188576433262
20
27078.781381034132
30
0
0
SPLINE
5
153
100
AcDbEntity
8
0
100
AcDbSpline
70
0
71
3
72
8
73
4
74
0
42
0.000000001
43
0.0000000001
44
0.0000000001
40
3
40
3
40
3
40
3
40
4
40
4
40
4
40
4
10
25864.188576433262
20
27078.781381034132
30
0
10
25857.223144577358
20
27081.301537283493
30
0
10
25849.697677999393
20
27082.001580686097
30
0
10
25846.888753846433
20
27096.037450908279
30
0
0
SPLINE
5
154
100
AcDbEntity
8
0
100
AcDbSpline
70
0
71
3
72
8
73
4
74
0
42
0.000000001
43
0.0000000001
44
0.0000000001
40
4
40
4
40
4
40
4
40
5
40
5
40
5
40
5
10
25846.888753846433
20
27096.037450908279
30
0
10
25870.366459461235
20
27096.037450908279
30
0
10
25893.021614077967
20
27096.081203620954
30
0
10
25915.676768694691
20
27095.976197110544
30
0
0
SPLINE
5
155
100
AcDbEntity
8
0
100
AcDbSpline
70
0
71
3
72
8
73
4
74
0
42
0.000000001
43
0.0000000001
44
0.0000000001
40
5
40
5
40
5
40
5
40
6
40
6
40
6
40
6
10
25915.676768694691
20
27095.976197110544
30
0
10
25918.590699358032
20
27095.958696025482
30
0
10
25923.30724178307
20
27096.116205791081
30
0
10
25924.138543323661
20
27094.558609220272
30
0
0
SPLINE
5
156
100
AcDbEntity
8
0
100
AcDbSpline
70
0
71
3
72
8
73
4
74
0
42
0.000000001
43
0.0000000001
44
0.0000000001
40
6
40
6
40
6
40
6
40
7
40
7
40
7
40
7
10
25924.138543323661
20
27094.558609220272
30
0
10
25945.078591604011
20
27055.461185184933
30
0
10
25997.258076725502
20
27049.047037508572
30
0
10
26013.875356994788
20
27002.371643640039
30
0
0
SPLINE
5
157
100
AcDbEntity
8
0
100
AcDbSpline
70
0
71
3
72
8
73
4
74
0
42
0.000000001
43
0.0000000001
44
0.0000000001
40
7
40
7
40
7
40
7
40
8
40
8
40
8
40
8
10
26013.875356994788
20
27002.371643640039
30
0
10
26032.286498483249
20
26950.655937272753
30
0
10
26053.296551103878
20
26900.874100805155
30
0
10
26047.092416448293
20
26840.41660244788
30
0
0
LINE
5
158
100
AcDbEntity
8
0
100
AcDbLine
10
24369.644039860283
20
27086.298097069579
30
0
11
24494.803049703129
21
27086.298097069579
31
0
0
SPLINE
5
159
100
AcDbEntity
8
0
100
AcDbSpline
70
0
71
3
72
8
73
4
74
0
42
0.000000001
43
0.0000000001
44
0.0000000001
40
1
40
1
40
1
40
1
40
2
40
2
40
2
40
2
10
24494.803049703129
20
27086.298097069579
30
0
10
24503.636722389718
20
27058.366365305723
30
0
10
24489.408340231817
20
27033.068546844155
30
0
10
24486.993190492834
20
27007.7969800102
30
0
0
SPLINE
5
160
100
AcDbEntity
8
0
100
AcDbSpline
70
0
71
3
72
8
73
4
74
0
42
0.000000001
43
0.0000000001
44
0.0000000001
40
2
40
2
40
2
40
2
40
3
40
3
40
3
40
3
10
24486.993190492834
20
27007.7969800102
30
0
10
24481.108450639702
20
26946.306917634087
30
0
10
24508.038245283584
20
26902.667962024334
30
0
10
24550.5790078055
20
26864.375587901974
30
0
0
SPLINE
5
161
100
AcDbEntity
8
0
100
AcDbSpline
70
0
71
3
72
8
73
4
74
0
42
0.000000001
43
0.0000000001
44
0.0000000001
40
3
40
3
40
3
40
3
40
4
40
4
40
4
40
4
10
24550.5790078055
20
26864.375587901974
30
0
10
24551.650949265731
20
26863.413028223385
30
0
10
24553.212921107792
20
26863.001752724347
30
0
10
24554.525502487675
20
26862.284208236677
30
0
0
SPLINE
5
162
100
AcDbEntity
8
0
100
AcDbSpline
70
0
71
3
72
8
73
4
74
0
42
0.000000001
43
0.0000000001
44
0.0000000001
40
4
40
4
40
4
40
4
40
5
40
5
40
5
40
5
10
24554.525502487675
20
26862.284208236677
30
0
10
24619.75204652518
20
26826.546992533807
30
0
10
24617.52065817939
20
26767.060804397639
30
0
10
24612.585352191036
20
26700.696689830907
30
0
0
SPLINE
5
163
100
AcDbEntity
8
0
100
AcDbSpline
70
0
71
3
72
8
73
4
74
0
42
0.000000001
43
0.0000000001
44
0.0000000001
40
5
40
5
40
5
40
5
40
6
40
6
40
6
40
6
10
24612.585352191036
20
26700.696689830907
30
0
10
24592.253466616694
20
26711.976139155347
30
0
10
24586.880633501718
20
26725.801996356746
30
0
10
24587.873820079163
20
26742.629289646822
30
0
0
SPLINE
5
164
100
AcDbEntity
8
0
100
AcDbSpline
70
0
71
3
72
8
73
4
74
0
42
0.000000001
43
0.0000000001
44
0.0000000001
40
6
40
6
40
6
40
6
40
7
40
7
40
7
40
7
10
24587.873820079163
20
26742.629289646822
30
0
10
24591.06776810353
20
26796.71639304042
30
0
10
24543.810463156584
20
26853.113639662588
30
0
10
24483.948001691519
20
26854.898750339227
30
0
0
SPLINE
5
165
100
AcDbEntity
8
0
100
AcDbSpline
70
0
71
3
72
8
73
4
74
0
42
0.000000001
43
0.0000000001
44
0.0000000001
40
7
40
7
40
7
40
7
40
8
40
8
40
8
40
8
10
24483.948001691519
20
26854.898750339227
30
0
10
24433.873022049083
20
26856.395093112296
30
0
10
24406.479448650989
20
26883.084247836519
30
0
10
24386.265695400831
20
26924.684327036197
30
0
0
SPLINE
5
166
100
AcDbEntity
8
0
100
AcDbSpline
70
0
71
3
72
8
73
4
74
0
42
0.000000001
43
0.0000000001
44
0.0000000001
40
8
40
8
40
8
40
8
40
9
40
9
40
9
40
9
10
24386.265695400831
20
26924.684327036197
30
0
10
24367.89393135377
20
26962.495421319261
30
0
10
24351.022885351049
20
26999.895240103324
30
0
10
24354.278087173148
20
27043.551696798131
30
0
0
SPLINE
5
167
100
AcDbEntity
8
0
100
AcDbSpline
70
0
71
3
72
8
73
4
74
0
42
0.000000001
43
0.0000000001
44
0.0000000001
40
9
40
9
40
9
40
9
40
10
40
10
40
10
40
10
10
24354.278087173148
20
27043.551696798131
30
0
10
24355.420032973641
20
27058.926400027813
30
0
10
24358.102074259874
20
27072.699753974011
30
0
10
24369.644039860283
20
27086.298097069579
30
0
0
SPLINE
5
168
100
AcDbEntity
8
0
100
AcDbSpline
70
0
71
3
72
8
73
4
74
0
42
0.000000001
43
0.0000000001
44
0.0000000001
40
0
40
0
40
0
40
0
40
1
40
1
40
1
40
1
10
26583.605680203058
20
26130.835108484644
30
0
10
26535.880221230618
20
26171.918905674902
30
0
10
26500.37051963358
20
26210.753813434294
30
0
10
26462.200653106662
20
26250.437523819339
30
0
0
SPLINE
5
169
100
AcDbEntity
8
0
100
AcDbSpline
70
0
71
3
72
8
73
4
74
0
42
0.000000001
43
0.0000000001
44
0.0000000001
40
1
40
1
40
1
40
1
40
2
40
2
40
2
40
2
10
26462.200653106662
20
26250.437523819339
30
0
10
26522.17687162467
20
26246.94605734885
30
0
10
26570.987397871144
20
26201.521991062469
30
0
10
26583.605680203058
20
26130.835108484644
30
0
0
SPLINE
5
170
100
AcDbEntity
8
0
100
AcDbSpline
70
0
71
3
72
8
73
4
74
0
42
0.000000001
43
0.0000000001
44
0.0000000001
40
0
40
0
40
0
40
0
40
1
40
1
40
1
40
1
10
26396.904104728899
20
26509.217318133979
30
0
10
26416.54032217191
20
26534.84765721178
30
0
10
26436.93783681525
20
26540.815527218965
30
0
10
26462.498171552768
20
26540.62301528324
30
0
0
SPLINE
5
171
100
AcDbEntity
8
0
100
AcDbSpline
70
0
71
3
72
8
73
4
74
0
42
0.000000001
43
0.0000000001
44
0.0000000001
40
1
40
1
40
1
40
1
40
2
40
2
40
2
40
2
10
26462.498171552768
20
26540.62301528324
30
0
10
26507.344702032024
20
26540.290494667002
30
0
10
26535.888971773144
20
26563.82945407954
30
0
10
26551.858711895016
20
26606.785867371749
30
0
0
SPLINE
5
172
100
AcDbEntity
8
0
100
AcDbSpline
70
0
71
3
72
8
73
4
74
0
42
0.000000001
43
0.0000000001
44
0.0000000001
40
2
40
2
40
2
40
2
40
3
40
3
40
3
40
3
10
26551.858711895016
20
26606.785867371749
30
0
10
26559.15666436715
20
26626.42208481476
30
0
10
26567.102156986697
20
26646.959608138612
30
0
10
26566.017089712666
20
26666.91084511279
30
0
0
SPLINE
5
173
100
AcDbEntity
8
0
100
AcDbSpline
70
0
71
3
72
8
73
4
74
0
42
0.000000001
43
0.0000000001
44
0.0000000001
40
3
40
3
40
3
40
3
40
4
40
4
40
4
40
4
10
26566.017089712666
20
26666.91084511279
30
0
10
26564.389488801608
20
26696.767696233794
30
0
10
26580.945515273183
20
26707.2858483579
30
0
10
26602.813121061961
20
26720.359158901501
30
0
0
SPLINE
5
174
100
AcDbEntity
8
0
100
AcDbSpline
70
0
71
3
72
8
73
4
74
0
42
0.000000001
43
0.0000000001
44
0.0000000001
40
4
40
4
40
4
40
4
40
5
40
5
40
5
40
5
10
26602.813121061961
20
26720.359158901501
30
0
10
26683.598129722326
20
26768.644652596031
30
0
10
26698.500303655237
20
26773.641212382114
30
0
10
26789.45344273841
20
26759.465333479413
30
0
0
LINE
5
175
100
AcDbEntity
8
0
100
AcDbLine
10
26789.45344273841
20
26759.465333479413
30
0
11
26789.45344273841
21
26621.320518518292
31
0
0
SPLINE
5
176
100
AcDbEntity
8
0
100
AcDbSpline
70
0
71
3
72
8
73
4
74
0
42
0.000000001
43
0.0000000001
44
0.0000000001
40
6
40
6
40
6
40
6
40
7
40
7
40
7
40
7
10
26789.45344273841
20
26621.320518518292
30
0
10
26767.612088577185
20
26626.142067453708
30
0
10
26749.078439493274
20
26630.246071901463
30
0
10
26730.527289324327
20
26634.323824721632
30
0
0
SPLINE
5
177
100
AcDbEntity
8
0
100
AcDbSpline
70
0
71
3
72
8
73
4
74
0
42
0.000000001
43
0.0000000001
44
0.0000000001
40
7
40
7
40
7
40
7
40
8
40
8
40
8
40
8
10
26730.527289324327
20
26634.323824721632
30
0
10
26677.516502662216
20
26645.988297917505
30
0
10
26630.307325699196
20
26635.618905016458
30
0
10
26591.892443981364
20
26595.847689206061
30
0
0
SPLINE
5
178
100
AcDbEntity
8
0
100
AcDbSpline
70
0
71
3
72
11
73
7
74
0
42
0.000000001
43
0.0000000001
44
0.0000000001
40
8
40
8
40
8
40
8
40
9
40
9
40
9
40
10
40
10
40
10
40
10
10
26591.892443981364
20
26595.847689206061
30
0
10
26573.385046525058
20
26576.692751602346
30
0
10
26551.72732604677
20
26560.338053830037
30
0
10
26538.995414372203
20
26535.783965262759
30
0
10
26522.824249563597
20
26504.597115785968
30
0
10
26488.872306745852
20
26515.202689226229
30
0
10
26463.425729061233
20
26506.837170565123
30
0
0
SPLINE
5
179
100
AcDbEntity
8
0
100
AcDbSpline
70
0
71
3
72
8
73
4
74
0
42
0.000000001
43
0.0000000001
44
0.0000000001
40
10
40
10
40
10
40
10
40
11
40
11
40
11
40
11
10
26463.425729061233
20
26506.837170565123
30
0
10
26444.682066956553
20
26500.67678862223
30
0
10
26422.438187838838
20
26503.739478508629
30
0
10
26396.904104728899
20
26509.217318133979
30
0
0
SPLINE
5
180
100
AcDbEntity
8
0
100
AcDbSpline
70
0
71
3
72
8
73
4
74
0
42
0.000000001
43
0.0000000001
44
0.0000000001
40
0
40
0
40
0
40
0
40
1
40
1
40
1
40
1
10
24034.642644815995
20
26319.418050603301
30
0
10
24030.525514554436
20
26346.159708582742
30
0
10
24030.67864904875
20
26369.033626762779
30
0
10
24033.903223971996
20
26397.227874802622
30
0
0
SPLINE
5
181
100
AcDbEntity
8
0
100
AcDbSpline
70
0
71
3
72
8
73
4
74
0
42
0.000000001
43
0.0000000001
44
0.0000000001
40
1
40
1
40
1
40
1
40
2
40
2
40
2
40
2
10
24033.903223971996
20
26397.227874802622
30
0
10
24066.695882112672
20
26365.76967439814
30
0
10
24100.998008840208
20
26355.006507083112
30
0
10
24139.924797296182
20
26375.045249482642
30
0
0
SPLINE
5
182
100
AcDbEntity
8
0
100
AcDbSpline
70
0
71
3
72
8
73
4
74
0
42
0.000000001
43
0.0000000001
44
0.0000000001
40
2
40
2
40
2
40
2
40
3
40
3
40
3
40
3
10
24139.924797296182
20
26375.045249482642
30
0
10
24153.623771630868
20
26382.098186763862
30
0
10
24161.893034324112
20
26373.54015616703
30
0
10
24178.379056455407
20
26361.219392281218
30
0
0
SPLINE
5
183
100
AcDbEntity
8
0
100
AcDbSpline
70
0
71
3
72
8
73
4
74
0
42
0.000000001
43
0.0000000001
44
0.0000000001
40
3
40
3
40
3
40
3
40
4
40
4
40
4
40
4
10
24178.379056455407
20
26361.219392281218
30
0
10
24126.339580014424
20
26350.963756433099
30
0
10
24088.436605034749
20
26314.333985391895
30
0
10
24034.642644815995
20
26319.418050603301
30
0
0
SPLINE
5
184
100
AcDbEntity
8
0
100
AcDbSpline
70
0
71
3
72
8
73
4
74
0
42
0.000000001
43
0.0000000001
44
0.0000000001
40
0
40
0
40
0
40
0
40
1
40
1
40
1
40
1
10
25966.806188712282
20
26745.455714884811
30
0
10
26011.705222446726
20
26756.411394135568
30
0
10
26032.23399522806
20
26734.710048654855
30
0
10
26026.861162113062
20
26687.395865181457
30
0
0
SPLINE
5
185
100
AcDbEntity
8
0
100
AcDbSpline
70
0
71
3
72
8
73
4
74
0
42
0.000000001
43
0.0000000001
44
0.0000000001
40
1
40
1
40
1
40
1
40
2
40
2
40
2
40
2
10
26026.861162113062
20
26687.395865181457
30
0
10
26004.039747188217
20
26703.00683305951
30
0
10
25988.201265204334
20
26723.701866148935
30
0
10
25966.806188712282
20
26745.455714884811
30
0
0
SPLINE
5
186
100
AcDbEntity
8
0
100
AcDbSpline
70
0
71
3
72
8
73
4
74
0
42
0.000000001
43
0.0000000001
44
0.0000000001
40
1
40
1
40
1
40
1
40
2
40
2
40
2
40
2
10
25909.708898687502
20
24444.430551614598
30
0
10
25914.084169953763
20
24464.539298354357
30
0
10
25921.924656062929
20
24484.849307572367
30
0
10
25921.347120255774
20
24504.879299429336
30
0
0
SPLINE
5
187
100
AcDbEntity
8
0
100
AcDbSpline
70
0
71
3
72
8
73
4
74
0
42
0.000000001
43
0.0000000001
44
0.0000000001
40
2
40
2
40
2
40
2
40
3
40
3
40
3
40
3
10
25921.347120255774
20
24504.879299429336
30
0
10
25920.192048641482
20
24545.00053694101
30
0
10
25936.0130295403
20
24576.222472697096
30
0
10
25961.704622415815
20
24604.687987555426
30
0
0
SPLINE
5
188
100
AcDbEntity
8
0
100
AcDbSpline
70
0
71
3
72
8
73
4
74
0
42
0.000000001
43
0.0000000001
44
0.0000000001
40
3
40
3
40
3
40
3
40
4
40
4
40
4
40
4
10
25961.704622415815
20
24604.687987555426
30
0
10
25971.312718116551
20
24615.328647274986
30
0
10
25979.293212906228
20
24627.448148682546
30
0
10
25989.251330308238
20
24640.503958141089
30
0
0
SPLINE
5
189
100
AcDbEntity
8
0
100
AcDbSpline
70
0
71
3
72
8
73
4
74
0
42
0.000000001
43
0.0000000001
44
0.0000000001
40
4
40
4
40
4
40
4
40
5
40
5
40
5
40
5
10
25989.251330308238
20
24640.503958141089
30
0
10
25998.194384776503
20
24624.787983752656
30
0
10
25994.081629786204
20
24614.138573490563
30
0
10
25986.381152357575
20
24602.351592699237
30
0
0
SPLINE
5
190
100
AcDbEntity
8
0
100
AcDbSpline
70
0
71
3
72
8
73
4
74
0
42
0.000000001
43
0.0000000001
44
0.0000000001
40
5
40
5
40
5
40
5
40
6
40
6
40
6
40
6
10
25986.381152357575
20
24602.351592699237
30
0
10
25947.073715301434
20
24542.174111702996
30
0
10
25948.368795596234
20
24521.68909163434
30
0
10
25995.481716591406
20
24461.992890477391
30
0
0
SPLINE
5
191
100
AcDbEntity
8
0
100
AcDbSpline
70
0
71
3
72
8
73
4
74
0
42
0.000000001
43
0.0000000001
44
0.0000000001
40
6
40
6
40
6
40
6
40
7
40
7
40
7
40
7
10
25995.481716591406
20
24461.992890477391
30
0
10
25979.695737862719
20
24442.242915981456
30
0
10
25963.122210306079
20
24421.941657305979
30
0
10
25947.091216386503
20
24401.229123131467
30
0
0
SPLINE
5
192
100
AcDbEntity
8
0
100
AcDbSpline
70
0
71
3
72
8
73
4
74
0
42
0.000000001
43
0.0000000001
44
0.0000000001
40
7
40
7
40
7
40
7
40
8
40
8
40
8
40
8
10
25947.091216386503
20
24401.229123131467
30
0
10
25940.790825763073
20
24393.082368033669
30
0
10
25931.602756103915
20
24384.401829841401
30
0
10
25930.718951308132
20
24375.283764522504
30
0
0
SPLINE
5
193
100
AcDbEntity
8
0
100
AcDbSpline
70
0
71
3
72
8
73
4
74
0
42
0.000000001
43
0.0000000001
44
0.0000000001
40
0
40
0
40
0
40
0
40
1
40
1
40
1
40
1
10
24587.151900320227
20
24834.15346438608
30
0
10
24581.065897988847
20
24792.807150919853
30
0
10
24571.326544150135
20
24752.878425343901
30
0
10
24567.878830392321
20
24711.987140089368
30
0
0
SPLINE
5
194
100
AcDbEntity
8
0
100
AcDbSpline
70
0
71
3
72
8
73
4
74
0
42
0.000000001
43
0.0000000001
44
0.0000000001
40
1
40
1
40
1
40
1
40
2
40
2
40
2
40
2
10
24567.878830392321
20
24711.987140089368
30
0
10
24566.986275053998
20
24701.372731997399
30
0
10
24557.474435321135
20
24690.942085298615
30
0
10
24550.482751837644
20
24681.482748820948
30
0
0
SPLINE
5
195
100
AcDbEntity
8
0
100
AcDbSpline
70
0
71
3
72
8
73
4
74
0
42
0.000000001
43
0.0000000001
44
0.0000000001
40
2
40
2
40
2
40
2
40
3
40
3
40
3
40
3
10
24550.482751837644
20
24681.482748820948
30
0
10
24512.024117407149
20
24629.487025092632
30
0
10
24498.937681049749
20
24572.520993205831
30
0
10
24519.641464681721
20
24510.575902618017
30
0
0
SPLINE
5
196
100
AcDbEntity
8
0
100
AcDbSpline
70
0
71
3
72
8
73
4
74
0
42
0.000000001
43
0.0000000001
44
0.0000000001
40
6
40
6
40
6
40
6
40
7
40
7
40
7
40
7
10
24476.947567665487
20
24483.842995181127
30
0
10
24478.40015772589
20
24495.586223259786
30
0
10
24480.614044986618
20
24507.696974124814
30
0
10
24479.231459266481
20
24519.247690267759
30
0
0
SPLINE
5
197
100
AcDbEntity
8
0
100
AcDbSpline
70
0
71
3
72
8
73
4
74
0
42
0.000000001
43
0.0000000001
44
0.0000000001
40
7
40
7
40
7
40
7
40
8
40
8
40
8
40
8
10
24479.231459266481
20
24519.247690267759
30
0
10
24464.858693156788
20
24639.357637069326
30
0
10
24503.829234325429
20
24742.019002061028
30
0
10
24580.444609469043
20
24832.595867815289
30
0
0
SPLINE
5
198
100
AcDbEntity
8
0
100
AcDbSpline
70
0
71
3
72
8
73
4
74
0
42
0.000000001
43
0.0000000001
44
0.0000000001
40
8
40
8
40
8
40
8
40
9
40
9
40
9
40
9
10
24580.444609469043
20
24832.595867815289
30
0
10
24581.188405584307
20
24833.479672611073
30
0
10
24583.196655095522
20
24833.287160675358
30
0
10
24587.151900320227
20
24834.15346438608
30
0
0
SPLINE
5
199
100
AcDbEntity
8
0
100
AcDbSpline
70
0
71
3
72
8
73
4
74
0
42
0.000000001
43
0.0000000001
44
0.0000000001
40
0
40
0
40
0
40
0
40
1
40
1
40
1
40
1
10
24740.395776421243
20
26627.157130387488
30
0
10
24738.759424967655
20
26692.103657063948
30
0
10
24737.687483507416
20
26748.273389580288
30
0
10
24743.209075845443
20
26811.924835961952
30
0
0
SPLINE
5
200
100
AcDbEntity
8
0
100
AcDbSpline
70
0
71
3
72
8
73
4
74
0
42
0.000000001
43
0.0000000001
44
0.0000000001
40
1
40
1
40
1
40
1
40
2
40
2
40
2
40
2
10
24743.209075845443
20
26811.924835961952
30
0
10
24715.566111985172
20
26791.422314808224
30
0
10
24697.159345767981
20
26770.421012730145
30
0
10
24667.670017433342
20
26757.828982025836
30
0
0
SPLINE
5
201
100
AcDbEntity
8
0
100
AcDbSpline
70
0
71
3
72
8
73
4
74
0
42
0.000000001
43
0.0000000001
44
0.0000000001
40
2
40
2
40
2
40
2
40
3
40
3
40
3
40
3
10
24667.670017433342
20
26757.828982025836
30
0
10
24678.083163047064
20
26807.470809812898
30
0
10
24685.836143730885
20
26853.393657023633
30
0
10
24721.297717343987
20
26890.635966042097
30
0
0
SPLINE
5
202
100
AcDbEntity
8
0
100
AcDbSpline
70
0
71
3
72
8
73
4
74
0
42
0.000000001
43
0.0000000001
44
0.0000000001
40
3
40
3
40
3
40
3
40
4
40
4
40
4
40
4
10
24721.297717343987
20
26890.635966042097
30
0
10
24745.807986977612
20
26882.664221794963
30
0
10
24743.821613822729
20
26854.63623406324
30
0
10
24758.855045893622
20
26839.44529222677
30
0
0
SPLINE
5
203
100
AcDbEntity
8
0
100
AcDbSpline
70
0
71
3
72
8
73
4
74
0
42
0.000000001
43
0.0000000001
44
0.0000000001
40
4
40
4
40
4
40
4
40
5
40
5
40
5
40
5
10
24758.855045893622
20
26839.44529222677
30
0
10
24802.564005843637
20
26795.298805150145
30
0
10
24798.950031777695
20
26743.040565145835
30
0
10
24786.134862238796
20
26687.334611383718
30
0
0
SPLINE
5
204
100
AcDbEntity
8
0
100
AcDbSpline
70
0
71
3
72
8
73
4
74
0
42
0.000000001
43
0.0000000001
44
0.0000000001
40
5
40
5
40
5
40
5
40
6
40
6
40
6
40
6
10
24786.134862238796
20
26687.334611383718
30
0
10
24779.948228668298
20
26660.444194181247
30
0
10
24760.968301915233
20
26650.092302365258
30
0
10
24740.395776421243
20
26627.157130387488
30
0
0
SPLINE
5
205
100
AcDbEntity
8
0
100
AcDbSpline
70
0
71
3
72
8
73
4
74
0
42
0.000000001
43
0.0000000001
44
0.0000000001
40
0
40
0
40
0
40
0
40
1
40
1
40
1
40
1
10
26061.985839838675
20
26949.203347212355
30
0
10
26052.246485999949
20
27000.324016687428
30
0
10
26015.826727979565
20
27037.636330046138
30
0
10
26022.923417973434
20
27090.848379186496
30
0
0
SPLINE
5
206
100
AcDbEntity
8
0
100
AcDbSpline
70
0
71
3
72
8
73
4
74
0
42
0.000000001
43
0.0000000001
44
0.0000000001
40
1
40
1
40
1
40
1
40
2
40
2
40
2
40
2
10
26022.923417973434
20
27090.848379186496
30
0
10
26048.229986977538
20
27100.395221089497
30
0
10
26072.932768546885
20
27096.089954163472
30
0
10
26096.655489352583
20
27094.506105965087
30
0
0
SPLINE
5
207
100
AcDbEntity
8
0
100
AcDbSpline
70
0
71
3
72
8
73
4
74
0
42
0.000000001
43
0.0000000001
44
0.0000000001
40
2
40
2
40
2
40
2
40
3
40
3
40
3
40
3
10
26096.655489352583
20
27094.506105965087
30
0
10
26101.8270599893
20
27084.337975542279
30
0
10
26096.541732299658
20
27078.912639172118
30
0
10
26091.440166003187
20
27073.382296291551
30
0
0
SPLINE
5
208
100
AcDbEntity
8
0
100
AcDbSpline
70
0
71
3
72
8
73
4
74
0
42
0.000000001
43
0.0000000001
44
0.0000000001
40
3
40
3
40
3
40
3
40
4
40
4
40
4
40
4
10
26091.440166003187
20
27073.382296291551
30
0
10
26069.7388205225
20
27049.843336879039
30
0
10
26058.88814778216
20
27024.554268960022
30
0
10
26072.976521259534
20
26992.081005621763
30
0
0
SPLINE
5
209
100
AcDbEntity
8
0
100
AcDbSpline
70
0
71
3
72
8
73
4
74
0
42
0.000000001
43
0.0000000001
44
0.0000000001
40
4
40
4
40
4
40
4
40
5
40
5
40
5
40
5
10
26072.976521259534
20
26992.081005621763
30
0
10
26077.789319652435
20
26980.967816605465
30
0
10
26079.819445519985
20
26966.494419256636
30
0
10
26061.985839838675
20
26949.203347212355
30
0
0
LINE
5
210
100
AcDbEntity
8
0
100
AcDbLine
10
24033.758840020208
20
24664.75171149875
30
0
11
24033.758840020208
21
24799.825086030949
31
0
0
SPLINE
5
211
100
AcDbEntity
8
0
100
AcDbSpline
70
0
71
3
72
8
73
4
74
0
42
0.000000001
43
0.0000000001
44
0.0000000001
40
1
40
1
40
1
40
1
40
2
40
2
40
2
40
2
10
24033.758840020208
20
24799.825086030949
30
0
10
24069.946708663501
20
24793.559697577653
30
0
10
24102.962505638756
20
24781.886473839255
30
0
10
24138.555337389844
20
24783.79409211134
30
0
0
SPLINE
5
212
100
AcDbEntity
8
0
100
AcDbSpline
70
0
71
3
72
8
73
4
74
0
42
0.000000001
43
0.0000000001
44
0.0000000001
40
2
40
2
40
2
40
2
40
3
40
3
40
3
40
3
10
24138.555337389844
20
24783.79409211134
30
0
10
24173.128730935881
20
24785.649207128245
30
0
10
24202.071150362244
20
24795.12604469098
30
0
10
24225.741367912746
20
24820.528869662925
30
0
0
SPLINE
5
213
100
AcDbEntity
8
0
100
AcDbSpline
70
0
71
3
72
8
73
4
74
0
42
0.000000001
43
0.0000000001
44
0.0000000001
40
3
40
3
40
3
40
3
40
4
40
4
40
4
40
4
10
24225.741367912746
20
24820.528869662925
30
0
10
24241.973624310602
20
24837.942449302667
30
0
10
24259.955989214959
20
24853.842185084286
30
0
10
24275.15130632271
20
24872.087066264616
30
0
0
SPLINE
5
214
100
AcDbEntity
8
0
100
AcDbSpline
70
0
71
3
72
8
73
4
74
0
42
0.000000001
43
0.0000000001
44
0.0000000001
40
4
40
4
40
4
40
4
40
5
40
5
40
5
40
5
10
24275.15130632271
20
24872.087066264616
30
0
10
24312.161725964055
20
24916.522321244829
30
0
10
24369.950308848915
20
24929.079349779018
30
0
10
24425.227486026943
20
24901.681401109654
30
0
0
SPLINE
5
215
100
AcDbEntity
8
0
100
AcDbSpline
70
0
71
3
72
8
73
4
74
0
42
0.000000001
43
0.0000000001
44
0.0000000001
40
5
40
5
40
5
40
5
40
6
40
6
40
6
40
6
10
24425.227486026943
20
24901.681401109654
30
0
10
24409.393379314315
20
24888.371825917671
30
0
10
24392.119808355099
20
24884.399079607902
30
0
10
24372.881740597317
20
24883.489023184506
30
0
0
SPLINE
5
216
100
AcDbEntity
8
0
100
AcDbSpline
70
0
71
3
72
8
73
4
74
0
42
0.000000001
43
0.0000000001
44
0.0000000001
40
6
40
6
40
6
40
6
40
7
40
7
40
7
40
7
10
24372.881740597317
20
24883.489023184506
30
0
10
24312.428617511301
20
24880.618845233839
30
0
10
24267.38082455382
20
24839.613802926389
30
0
10
24265.420703026532
20
24781.203931521712
30
0
0
SPLINE
5
217
100
AcDbEntity
8
0
100
AcDbSpline
70
0
71
3
72
8
73
4
74
0
42
0.000000001
43
0.0000000001
44
0.0000000001
40
7
40
7
40
7
40
7
40
8
40
8
40
8
40
8
10
24265.420703026532
20
24781.203931521712
30
0
10
24263.836854828132
20
24733.942251303495
30
0
10
24244.073754518413
20
24702.921578025656
30
0
10
24200.417297823591
20
24685.928024427481
30
0
0
SPLINE
5
218
100
AcDbEntity
8
0
100
AcDbSpline
70
0
71
3
72
8
73
4
74
0
42
0.000000001
43
0.0000000001
44
0.0000000001
40
8
40
8
40
8
40
8
40
9
40
9
40
9
40
9
10
24200.417297823591
20
24685.928024427481
30
0
10
24179.783518531876
20
24677.903776925141
30
0
10
24159.836656828964
20
24668.12067037377
30
0
10
24139.224753893581
20
24660.035169073712
30
0
0
SPLINE
5
219
100
AcDbEntity
8
0
100
AcDbSpline
70
0
71
3
72
8
73
4
74
0
42
0.000000001
43
0.0000000001
44
0.0000000001
40
9
40
9
40
9
40
9
40
10
40
10
40
10
40
10
10
24139.224753893581
20
24660.035169073712
30
0
10
24104.51572693828
20
24646.428075435619
30
0
10
24070.029838817569
20
24646.611836828801
30
0
10
24033.758840020208
20
24664.75171149875
30
0
0
SPLINE
5
220
100
AcDbEntity
8
0
100
AcDbSpline
70
0
71
3
72
8
73
4
74
0
42
0.000000001
43
0.0000000001
44
0.0000000001
40
0
40
0
40
0
40
0
40
1
40
1
40
1
40
1
10
24217.795875293214
20
24982.501411940142
30
0
10
24157.513387786574
20
24974.205897619293
30
0
10
24099.007260414051
20
24957.124838595788
30
0
10
24036.550263088087
20
24965.472856171833
30
0
0
SPLINE
5
221
100
AcDbEntity
8
0
100
AcDbSpline
70
0
71
3
72
8
73
4
74
0
42
0.000000001
43
0.0000000001
44
0.0000000001
40
1
40
1
40
1
40
1
40
2
40
2
40
2
40
2
10
24036.550263088087
20
24965.472856171833
30
0
10
24028.600395197282
20
24989.965624720389
30
0
10
24032.183742364356
20
25014.204627535513
30
0
10
24033.811343275403
20
25043.798962380541
30
0
0
SPLINE
5
222
100
AcDbEntity
8
0
100
AcDbSpline
70
0
71
3
72
8
73
4
74
0
42
0.000000001
43
0.0000000001
44
0.0000000001
40
2
40
2
40
2
40
2
40
3
40
3
40
3
40
3
10
24033.811343275403
20
25043.798962380541
30
0
10
24089.526047580053
20
24997.972371137657
30
0
10
24154.691337819837
20
24995.522219228555
30
0
10
24217.795875293214
20
24982.501411940142
30
0
0
SPLINE
5
223
100
AcDbEntity
8
0
100
AcDbSpline
70
0
71
3
72
8
73
4
74
0
42
0.000000001
43
0.0000000001
44
0.0000000001
40
0
40
0
40
0
40
0
40
1
40
1
40
1
40
1
10
24349.745306141296
20
25128.504214095479
30
0
10
24331.006019307875
20
25112.236955527496
30
0
10
24321.555433372738
20
25119.797424275606
30
0
10
24312.551125106758
20
25128.014183713662
30
0
0
SPLINE
5
224
100
AcDbEntity
8
0
100
AcDbSpline
70
0
71
3
72
8
73
4
74
0
42
0.000000001
43
0.0000000001
44
0.0000000001
40
1
40
1
40
1
40
1
40
2
40
2
40
2
40
2
10
24312.551125106758
20
25128.014183713662
30
0
10
24300.344118273879
20
25139.162374900112
30
0
10
24286.42200510461
20
25146.775346903414
30
0
10
24270.986048077219
20
25152.891976133655
30
0
0
SPLINE
5
225
100
AcDbEntity
8
0
100
AcDbSpline
70
0
71
3
72
8
73
4
74
0
42
0.000000001
43
0.0000000001
44
0.0000000001
40
2
40
2
40
2
40
2
40
3
40
3
40
3
40
3
10
24270.986048077219
20
25152.891976133655
30
0
10
24237.2264549867
20
25166.271555665902
30
0
10
24207.40460603582
20
25163.042605471397
30
0
10
24181.450496884321
20
25136.274695864373
30
0
0
SPLINE
5
226
100
AcDbEntity
8
0
100
AcDbSpline
70
0
71
3
72
8
73
4
74
0
42
0.000000001
43
0.0000000001
44
0.0000000001
40
3
40
3
40
3
40
3
40
4
40
4
40
4
40
4
10
24181.450496884321
20
25136.274695864373
30
0
10
24176.265800433794
20
25130.936864919524
30
0
10
24170.78358553717
20
25125.756543740263
30
0
10
24155.553266259289
20
25126.50909039806
30
0
0
SPLINE
5
227
100
AcDbEntity
8
0
100
AcDbSpline
70
0
71
3
72
8
73
4
74
0
42
0.000000001
43
0.0000000001
44
0.0000000001
40
4
40
4
40
4
40
4
40
5
40
5
40
5
40
5
10
24155.553266259289
20
25126.50909039806
30
0
10
24122.078065801084
20
25157.214744144723
30
0
10
24086.419604980998
20
25195.65587749015
30
0
10
24033.465696845364
20
25208.11665005648
30
0
0
LINE
5
228
100
AcDbEntity
8
0
100
AcDbLine
10
24033.465696845364
20
25208.11665005648
30
0
11
24033.465696845364
21
25286.784027423964
31
0
0
SPLINE
5
229
100
AcDbEntity
8
0
100
AcDbSpline
70
0
71
3
72
8
73
4
74
0
42
0.000000001
43
0.0000000001
44
0.0000000001
40
6
40
6
40
6
40
6
40
7
40
7
40
7
40
7
10
24033.465696845364
20
25286.784027423964
30
0
10
24047.427187456033
20
25275.784595460569
30
0
10
24069.019151155051
20
25260.453644943569
30
0
10
24088.637867513004
20
25242.91755770837
30
0
0
SPLINE
5
230
100
AcDbEntity
8
0
100
AcDbSpline
70
0
71
3
72
8
73
4
74
0
42
0.000000001
43
0.0000000001
44
0.0000000001
40
7
40
7
40
7
40
7
40
8
40
8
40
8
40
8
10
24088.637867513004
20
25242.91755770837
30
0
10
24117.34839756224
20
25217.252216460442
30
0
10
24151.418634912665
20
25197.239725688538
30
0
10
24188.140286650454
20
25199.296103183682
30
0
0
SPLINE
5
231
100
AcDbEntity
8
0
100
AcDbSpline
70
0
71
3
72
8
73
4
74
0
42
0.000000001
43
0.0000000001
44
0.0000000001
40
8
40
8
40
8
40
8
40
9
40
9
40
9
40
9
10
24188.140286650454
20
25199.296103183682
30
0
10
24254.928802530019
20
25203.032584845074
30
0
10
24296.520131187157
20
25161.064982859043
30
0
10
24349.745306141296
20
25128.504214095479
30
0
0
SPLINE
5
232
100
AcDbEntity
8
0
100
AcDbSpline
70
0
71
3
72
8
73
4
74
0
42
0.000000001
43
0.0000000001
44
0.0000000001
40
0
40
0
40
0
40
0
40
1
40
1
40
1
40
1
10
24219.082205045488
20
25022.745157047269
30
0
10
24256.490774372076
20
25043.737708582812
30
0
10
24290.976662492798
20
25059.182416152744
30
0
10
24320.912268496599
20
25083.500173850654
30
0
0
SPLINE
5
233
100
AcDbEntity
8
0
100
AcDbSpline
70
0
71
3
72
8
73
4
74
0
42
0.000000001
43
0.0000000001
44
0.0000000001
40
1
40
1
40
1
40
1
40
2
40
2
40
2
40
2
10
24320.912268496599
20
25083.500173850654
30
0
10
24340.964136709899
20
25099.784933503695
30
0
10
24370.217200396168
20
25090.728121982524
30
0
10
24394.902480880442
20
25089.065518901349
30
0
0
SPLINE
5
234
100
AcDbEntity
8
0
100
AcDbSpline
70
0
71
3
72
8
73
4
74
0
42
0.000000001
43
0.0000000001
44
0.0000000001
40
2
40
2
40
2
40
2
40
3
40
3
40
3
40
3
10
24394.902480880442
20
25089.065518901349
30
0
10
24430.683449295975
20
25086.667870247431
30
0
10
24465.361849352412
20
25077.996082597689
30
0
10
24486.630042977737
20
25037.664832065238
30
0
0
SPLINE
5
235
100
AcDbEntity
8
0
100
AcDbSpline
70
0
71
3
72
8
73
4
74
0
42
0.000000001
43
0.0000000001
44
0.0000000001
40
3
40
3
40
3
40
3
40
4
40
4
40
4
40
4
10
24486.630042977737
20
25037.664832065238
30
0
10
24430.372805036066
20
25033.718337383067
30
0
10
24376.128191876887
20
25032.860784214878
30
0
10
24318.186474497714
20
25040.508758388311
30
0
0
SPLINE
5
236
100
AcDbEntity
8
0
100
AcDbSpline
70
0
71
3
72
8
73
4
74
0
42
0.000000001
43
0.0000000001
44
0.0000000001
40
4
40
4
40
4
40
4
40
5
40
5
40
5
40
5
10
24318.186474497714
20
25040.508758388311
30
0
10
24329.299663514033
20
25012.585777166991
30
0
10
24349.382158626206
20
24994.472154124647
30
0
10
24367.955185151499
20
24966.391663137743
30
0
0
SPLINE
5
237
100
AcDbEntity
8
0
100
AcDbSpline
70
0
71
3
72
8
73
4
74
0
42
0.000000001
43
0.0000000001
44
0.0000000001
40
5
40
5
40
5
40
5
40
6
40
6
40
6
40
6
10
24367.955185151499
20
24966.391663137743
30
0
10
24310.109723740185
20
24974.048387853712
30
0
10
24263.058056542744
20
24987.191702737578
30
0
10
24219.082205045488
20
25022.745157047269
30
0
0
SPLINE
5
238
100
AcDbEntity
8
0
100
AcDbSpline
70
0
71
3
72
8
73
4
74
0
42
0.000000001
43
0.0000000001
44
0.0000000001
40
0
40
0
40
0
40
0
40
1
40
1
40
1
40
1
10
26506.530901576494
20
26377.040373180043
30
0
10
26496.782797195247
20
26411.753775406614
30
0
10
26466.112145618717
20
26423.610760538195
30
0
10
26462.358162872264
20
26456.469047747851
30
0
0
SPLINE
5
239
100
AcDbEntity
8
0
100
AcDbSpline
70
0
71
3
72
8
73
4
74
0
42
0.000000001
43
0.0000000001
44
0.0000000001
40
1
40
1
40
1
40
1
40
2
40
2
40
2
40
2
10
26462.358162872264
20
26456.469047747851
30
0
10
26509.961114249254
20
26443.623251310106
30
0
10
26557.634069966498
20
26435.476496212308
30
0
10
26600.599233801255
20
26397.884165492545
30
0
0
SPLINE
5
240
100
AcDbEntity
8
0
100
AcDbSpline
70
0
71
3
72
8
73
4
74
0
42
0.000000001
43
0.0000000001
44
0.0000000001
40
2
40
2
40
2
40
2
40
3
40
3
40
3
40
3
10
26600.599233801255
20
26397.884165492545
30
0
10
26561.011779384065
20
26378.965492537212
30
0
10
26531.644958644873
20
26354.358966935706
30
0
10
26499.320454529676
20
26334.565239727122
30
0
0
SPLINE
5
241
100
AcDbEntity
8
0
100
AcDbSpline
70
0
71
3
72
8
73
4
74
0
42
0.000000001
43
0.0000000001
44
0.0000000001
40
3
40
3
40
3
40
3
40
4
40
4
40
4
40
4
10
26499.320454529676
20
26334.565239727122
30
0
10
26454.465173507902
20
26307.106037260037
30
0
10
26368.25482847738
20
26334.88900980082
30
0
10
26330.557491247233
20
26388.337323589549
30
0
0
SPLINE
5
242
100
AcDbEntity
8
0
100
AcDbSpline
70
0
71
3
72
8
73
4
74
0
42
0.000000001
43
0.0000000001
44
0.0000000001
40
4
40
4
40
4
40
4
40
5
40
5
40
5
40
5
10
26330.557491247233
20
26388.337323589549
30
0
10
26389.168625130143
20
26387.234755230453
30
0
10
26445.872140740968
20
26394.138933288617
30
0
10
26506.530901576494
20
26377.040373180043
30
0
0
SPLINE
5
243
100
AcDbEntity
8
0
100
AcDbSpline
70
0
71
3
72
8
73
4
74
0
42
0.000000001
43
0.0000000001
44
0.0000000001
40
0
40
0
40
0
40
0
40
1
40
1
40
1
40
1
10
26390.131184808728
20
25092.618239169555
30
0
10
26406.477198259483
20
25115.78967579571
30
0
10
26426.577194456724
20
25132.336951724727
30
0
10
26447.499741652005
20
25152.226934901177
30
0
0
SPLINE
5
244
100
AcDbEntity
8
0
100
AcDbSpline
70
0
71
3
72
8
73
4
74
0
42
0.000000001
43
0.0000000001
44
0.0000000001
40
1
40
1
40
1
40
1
40
2
40
2
40
2
40
2
10
26447.499741652005
20
25152.226934901177
30
0
10
26449.967394646206
20
25107.704174495644
30
0
10
26434.373927853216
20
25091.926946309482
30
0
10
26390.131184808728
20
25092.618239169555
30
0
0
LINE
5
245
100
AcDbEntity
8
0
100
AcDbLine
10
26297.690453495034
20
27094.147333721263
30
0
11
26394.121432203556
21
27094.147333721263
31
0
0
SPLINE
5
246
100
AcDbEntity
8
0
100
AcDbSpline
70
0
71
3
72
8
73
4
74
0
42
0.000000001
43
0.0000000001
44
0.0000000001
40
1
40
1
40
1
40
1
40
2
40
2
40
2
40
2
10
26394.121432203556
20
27094.147333721263
30
0
10
26397.621649216566
20
27077.346292058799
30
0
10
26386.280946094412
20
27067.694443645418
30
0
10
26381.660659637215
20
27055.679948748235
30
0
0
SPLINE
5
247
100
AcDbEntity
8
0
100
AcDbSpline
70
0
71
3
72
8
73
4
74
0
42
0.000000001
43
0.0000000001
44
0.0000000001
40
2
40
2
40
2
40
2
40
3
40
3
40
3
40
3
10
26381.660659637215
20
27055.679948748235
30
0
10
26357.780429065948
20
26993.5160945971
30
0
10
26332.473860061833
20
26931.5185007541
30
0
10
26351.847561228889
20
26862.625479395461
30
0
0
SPLINE
5
248
100
AcDbEntity
8
0
100
AcDbSpline
70
0
71
3
72
8
73
4
74
0
42
0.000000001
43
0.0000000001
44
0.0000000001
40
3
40
3
40
3
40
3
40
4
40
4
40
4
40
4
10
26351.847561228889
20
26862.625479395461
30
0
10
26352.64386059935
20
26859.807804699994
30
0
10
26353.125140438642
20
26856.59635559054
30
0
10
26352.626359514285
20
26853.761179810004
30
0
0
SPLINE
5
249
100
AcDbEntity
8
0
100
AcDbSpline
70
0
71
3
72
8
73
4
74
0
42
0.000000001
43
0.0000000001
44
0.0000000001
40
4
40
4
40
4
40
4
40
5
40
5
40
5
40
5
10
26352.626359514285
20
26853.761179810004
30
0
10
26335.729061883954
20
26757.671472260234
30
0
10
26319.444302230906
20
26661.292996806907
30
0
10
26239.009315271836
20
26591.262404919016
30
0
0
SPLINE
5
250
100
AcDbEntity
8
0
100
AcDbSpline
70
0
71
3
72
8
73
4
74
0
42
0.000000001
43
0.0000000001
44
0.0000000001
40
5
40
5
40
5
40
5
40
6
40
6
40
6
40
6
10
26239.009315271836
20
26591.262404919016
30
0
10
26258.067996907717
20
26641.569273938581
30
0
10
26240.619415097841
20
26699.007835122135
30
0
10
26279.375567974424
20
26746.65453921177
30
0
0
SPLINE
5
251
100
AcDbEntity
8
0
100
AcDbSpline
70
0
71
3
72
8
73
4
74
0
42
0.000000001
43
0.0000000001
44
0.0000000001
40
6
40
6
40
6
40
6
40
7
40
7
40
7
40
7
10
26279.375567974424
20
26746.65453921177
30
0
10
26314.710258720803
20
26790.092232343271
30
0
10
26319.138033242278
20
26842.998012494976
30
0
10
26305.233421158064
20
26897.925167971691
30
0
0
SPLINE
5
252
100
AcDbEntity
8
0
100
AcDbSpline
70
0
71
3
72
8
73
4
74
0
42
0.000000001
43
0.0000000001
44
0.0000000001
40
7
40
7
40
7
40
7
40
8
40
8
40
8
40
8
10
26305.233421158064
20
26897.925167971691
30
0
10
26295.81783739305
20
26935.088722107372
30
0
10
26288.861156079696
20
26972.978571273248
30
0
10
26290.033728779046
20
27011.988489883297
30
0
0
SPLINE
5
253
100
AcDbEntity
8
0
100
AcDbSpline
70
0
71
3
72
8
73
4
74
0
42
0.000000001
43
0.0000000001
44
0.0000000001
40
8
40
8
40
8
40
8
40
9
40
9
40
9
40
9
10
26290.033728779046
20
27011.988489883297
30
0
10
26290.847529234576
20
27038.896408170836
30
0
10
26304.892149999305
20
27063.319172379131
30
0
10
26297.690453495034
20
27094.147333721263
30
0
0
SPLINE
5
254
100
AcDbEntity
8
0
100
AcDbSpline
70
0
71
3
72
8
73
4
74
0
42
0.000000001
43
0.0000000001
44
0.0000000001
40
0
40
0
40
0
40
0
40
1
40
1
40
1
40
1
10
24758.356264969265
20
24472.939819185591
30
0
10
24777.926853343284
20
24436.598816047968
30
0
10
24784.612267838133
20
24399.339005944439
30
0
10
24801.168294309689
20
24366.008189438013
30
0
0
SPLINE
5
255
100
AcDbEntity
8
0
100
AcDbSpline
70
0
71
3
72
8
73
4
74
0
42
0.000000001
43
0.0000000001
44
0.0000000001
40
4
40
4
40
4
40
4
40
5
40
5
40
5
40
5
10
24757.336826764225
20
24398.533956031442
30
0
10
24757.288698780292
20
24421.652889402394
30
0
10
24738.050631022517
20
24444.763072230824
30
0
10
24758.356264969265
20
24472.939819185591
30
0
0
SPLINE
5
256
100
AcDbEntity
8
0
100
AcDbSpline
70
0
71
3
72
8
73
4
74
0
42
0.000000001
43
0.0000000001
44
0.0000000001
40
0
40
0
40
0
40
0
40
1
40
1
40
1
40
1
10
25822.956020019948
20
24536.416254716591
30
0
10
25866.297457183613
20
24576.283726494821
30
0
10
25898.263189054938
20
24620.193948923079
30
0
10
25946.968708791024
20
24648.449450760636
30
0
0
SPLINE
5
257
100
AcDbEntity
8
0
100
AcDbSpline
70
0
71
3
72
8
73
4
74
0
42
0.000000001
43
0.0000000001
44
0.0000000001
40
1
40
1
40
1
40
1
40
2
40
2
40
2
40
2
10
25946.968708791024
20
24648.449450760636
30
0
10
25946.181159963107
20
24591.474668331299
30
0
10
25896.215562102327
20
24545.00053694101
30
0
10
25822.956020019948
20
24536.416254716591
30
0
0
SPLINE
5
258
100
AcDbEntity
8
0
100
AcDbSpline
70
0
71
3
72
8
73
4
74
0
42
0.000000001
43
0.0000000001
44
0.0000000001
40
0
40
0
40
0
40
0
40
1
40
1
40
1
40
1
10
24690.4126774754
20
26896.568833879155
30
0
10
24665.434253816278
20
26956.597555652334
30
0
10
24672.793460086141
20
27020.46776559731
30
0
10
24660.078921786371
20
27082.657871376028
30
0
0
SPLINE
5
259
100
AcDbEntity
8
0
100
AcDbSpline
70
0
71
3
72
8
73
4
74
0
42
0.000000001
43
0.0000000001
44
0.0000000001
40
1
40
1
40
1
40
1
40
2
40
2
40
2
40
2
10
24660.078921786371
20
27082.657871376028
30
0
10
24686.146787990798
20
27091.907194832922
30
0
10
24710.836443746339
20
27087.435667598802
30
0
10
24738.549411946871
20
27086.420604665022
30
0
0
SPLINE
5
260
100
AcDbEntity
8
0
100
AcDbSpline
70
0
71
3
72
8
73
4
74
0
42
0.000000001
43
0.0000000001
44
0.0000000001
40
2
40
2
40
2
40
2
40
3
40
3
40
3
40
3
10
24738.549411946871
20
27086.420604665022
30
0
10
24708.591929586742
20
27025.193058564892
30
0
10
24690.718946464043
20
26963.405477742657
30
0
10
24690.4126774754
20
26896.568833879155
30
0
0
SPLINE
5
261
100
AcDbEntity
8
0
100
AcDbSpline
70
0
71
3
72
8
73
4
74
0
42
0.000000001
43
0.0000000001
44
0.0000000001
40
0
40
0
40
0
40
0
40
1
40
1
40
1
40
1
10
26243.244577857586
20
26526.560893433474
30
0
10
26276.97791932051
20
26589.022266030697
30
0
10
26328.404857784208
20
26627.17463147255
30
0
10
26374.362707165099
20
26667.75964773845
30
0
0
LINE
5
262
100
AcDbEntity
8
0
100
AcDbLine
10
26374.362707165099
20
26667.75964773845
30
0
11
26462.358162872264
21
26667.75964773845
31
0
0
SPLINE
5
263
100
AcDbEntity
8
0
100
AcDbSpline
70
0
71
3
72
8
73
4
74
0
42
0.000000001
43
0.0000000001
44
0.0000000001
40
2
40
2
40
2
40
2
40
3
40
3
40
3
40
3
10
26462.358162872264
20
26667.75964773845
30
0
10
26432.431307410981
20
26639.547898613546
30
0
10
26425.62338532068
20
26607.967190613643
30
0
10
26416.41781457646
20
26577.174031441642
30
0
0
SPLINE
5
264
100
AcDbEntity
8
0
100
AcDbSpline
70
0
71
3
72
8
73
4
74
0
42
0.000000001
43
0.0000000001
44
0.0000000001
40
3
40
3
40
3
40
3
40
4
40
4
40
4
40
4
10
26416.41781457646
20
26577.174031441642
30
0
10
26407.772278554308
20
26548.262238914162
30
0
10
26384.740850608669
20
26526.735904284109
30
0
10
26358.664233861731
20
26533.54382637444
30
0
0
SPLINE
5
265
100
AcDbEntity
8
0
100
AcDbSpline
70
0
71
3
72
8
73
4
74
0
42
0.000000001
43
0.0000000001
44
0.0000000001
40
4
40
4
40
4
40
4
40
5
40
5
40
5
40
5
10
26358.664233861731
20
26533.54382637444
30
0
10
26320.056840208192
20
26543.606950286834
30
0
10
26284.240869622521
20
26535.442694104004
30
0
10
26243.244577857586
20
26526.560893433474
30
0
0
SPLINE
5
266
100
AcDbEntity
8
0
100
AcDbSpline
70
0
71
3
72
8
73
4
74
0
42
0.000000001
43
0.0000000001
44
0.0000000001
40
1
40
1
40
1
40
1
40
2
40
2
40
2
40
2
10
26176.565443759682
20
24619.161384904241
30
0
10
26201.793257880967
20
24599.507666376165
30
0
10
26184.405929868826
20
24576.213722154564
30
0
10
26180.030658602569
20
24557.610068730392
30
0
0
SPLINE
5
267
100
AcDbEntity
8
0
100
AcDbSpline
70
0
71
3
72
8
73
4
74
0
42
0.000000001
43
0.0000000001
44
0.0000000001
40
2
40
2
40
2
40
2
40
3
40
3
40
3
40
3
10
26180.030658602569
20
24557.610068730392
30
0
10
26163.597139726466
20
24487.719485523034
30
0
10
26184.143413592868
20
24429.467123883955
30
0
10
26227.668612149686
20
24376.246324201074
30
0
0
LINE
5
268
100
AcDbEntity
8
0
100
AcDbLine
10
26790.976037139062
20
26562.429367274337
30
0
11
26790.976037139062
21
26481.600605901298
31
0
0
SPLINE
5
269
100
AcDbEntity
8
0
100
AcDbSpline
70
0
71
3
72
8
73
4
74
0
42
0.000000001
43
0.0000000001
44
0.0000000001
40
1
40
1
40
1
40
1
40
2
40
2
40
2
40
2
10
26790.976037139062
20
26481.600605901298
30
0
10
26693.801262315261
20
26475.790245659704
30
0
10
26598.359094912907
20
26442.468179695821
30
0
10
26494.59516156212
20
26480.751803275638
30
0
0
SPLINE
5
270
100
AcDbEntity
8
0
100
AcDbSpline
70
0
71
3
72
8
73
4
74
0
42
0.000000001
43
0.0000000001
44
0.0000000001
40
2
40
2
40
2
40
2
40
3
40
3
40
3
40
3
10
26494.59516156212
20
26480.751803275638
30
0
10
26515.045179460656
20
26489.957374019883
30
0
10
26529.641084404902
20
26489.047317596487
30
0
10
26543.178173702763
20
26485.634606008789
30
0
0
SPLINE
5
271
100
AcDbEntity
8
0
100
AcDbSpline
70
0
71
3
72
8
73
4
74
0
42
0.000000001
43
0.0000000001
44
0.0000000001
40
3
40
3
40
3
40
3
40
4
40
4
40
4
40
4
10
26543.178173702763
20
26485.634606008789
30
0
10
26631.304887547907
20
26463.373225806041
30
0
10
26706.708312550767
20
26484.558289277305
30
0
10
26769.904730720718
20
26549.84608711255
30
0
0
SPLINE
5
272
100
AcDbEntity
8
0
100
AcDbSpline
70
0
71
3
72
8
73
4
74
0
42
0.000000001
43
0.0000000001
44
0.0000000001
40
4
40
4
40
4
40
4
40
5
40
5
40
5
40
5
10
26769.904730720718
20
26549.84608711255
30
0
10
26774.831286166551
20
26554.93890286647
30
0
10
26778.917789529241
20
26561.816829297055
30
0
10
26790.976037139062
20
26562.429367274337
30
0
0
SPLINE
5
273
100
AcDbEntity
8
0
100
AcDbSpline
70
0
71
3
72
8
73
4
74
0
42
0.000000001
43
0.0000000001
44
0.0000000001
40
0
40
0
40
0
40
0
40
1
40
1
40
1
40
1
10
26789.173425377368
20
25022.438888058627
30
0
10
26750.181007852392
20
25070.54062035997
30
0
10
26699.305353568227
20
25047.894216285771
30
0
10
26651.317378319804
20
25049.749331302668
30
0
0
SPLINE
5
274
100
AcDbEntity
8
0
100
AcDbSpline
70
0
71
3
72
8
73
4
74
0
42
0.000000001
43
0.0000000001
44
0.0000000001
40
1
40
1
40
1
40
1
40
2
40
2
40
2
40
2
10
26651.317378319804
20
25049.749331302668
30
0
10
26697.353982583467
20
25065.290294840452
30
0
10
26732.662421702262
20
25106.846621327455
30
0
10
26787.685833146839
20
25096.590985479328
30
0
0
SPLINE
5
275
100
AcDbEntity
8
0
100
AcDbSpline
70
0
71
3
72
8
73
4
74
0
42
0.000000001
43
0.0000000001
44
0.0000000001
40
2
40
2
40
2
40
2
40
3
40
3
40
3
40
3
10
26787.685833146839
20
25096.590985479328
30
0
10
26796.261364828712
20
25072.973271184012
30
0
10
26791.028540394254
20
25049.548068824424
30
0
10
26789.173425377368
20
25022.438888058627
30
0
0
LINE
5
276
100
AcDbEntity
8
0
100
AcDbLine
10
24033.588204440821
20
26601.736804330474
30
0
11
24033.588204440821
21
26692.987461859731
31
0
0
SPLINE
5
277
100
AcDbEntity
8
0
100
AcDbSpline
70
0
71
3
72
8
73
4
74
0
42
0.000000001
43
0.0000000001
44
0.0000000001
40
1
40
1
40
1
40
1
40
2
40
2
40
2
40
2
10
24033.588204440821
20
26692.987461859731
30
0
10
24071.145532990457
20
26681.638008195034
30
0
10
24100.910503414882
20
26657.766528166281
30
0
10
24138.270944757533
20
26653.032484656182
30
0
0
SPLINE
5
278
100
AcDbEntity
8
0
100
AcDbSpline
70
0
71
3
72
8
73
4
74
0
42
0.000000001
43
0.0000000001
44
0.0000000001
40
2
40
2
40
2
40
2
40
3
40
3
40
3
40
3
10
24138.270944757533
20
26653.032484656182
30
0
10
24177.490876388347
20
26648.062176497704
30
0
10
24215.385100825497
20
26643.188124307097
30
0
10
24256.105750500647
20
26644.75447142042
30
0
0
SPLINE
5
279
100
AcDbEntity
8
0
100
AcDbSpline
70
0
71
3
72
8
73
4
74
0
42
0.000000001
43
0.0000000001
44
0.0000000001
40
3
40
3
40
3
40
3
40
4
40
4
40
4
40
4
10
24256.105750500647
20
26644.75447142042
30
0
10
24317.044528697221
20
26647.099616819123
30
0
10
24379.313389358726
20
26632.792479778436
30
0
10
24436.533186978973
20
26606.357090787646
30
0
0
SPLINE
5
280
100
AcDbEntity
8
0
100
AcDbSpline
70
0
71
3
72
8
73
4
74
0
42
0.000000001
43
0.0000000001
44
0.0000000001
40
4
40
4
40
4
40
4
40
5
40
5
40
5
40
5
10
24436.533186978973
20
26606.357090787646
30
0
10
24472.340407022111
20
26589.818565401165
30
0
10
24505.959991432101
20
26569.972334937367
30
0
10
24538.62576670606
20
26533.290060640971
30
0
0
SPLINE
5
281
100
AcDbEntity
8
0
100
AcDbSpline
70
0
71
3
72
8
73
4
74
0
42
0.000000001
43
0.0000000001
44
0.0000000001
40
5
40
5
40
5
40
5
40
6
40
6
40
6
40
6
10
24538.62576670606
20
26533.290060640971
30
0
10
24493.09231863801
20
26542.040603173511
30
0
10
24456.278786203638
20
26551.456186938518
30
0
10
24418.012663708869
20
26551.701202129439
30
0
0
SPLINE
5
282
100
AcDbEntity
8
0
100
AcDbSpline
70
0
71
3
72
8
73
4
74
0
42
0.000000001
43
0.0000000001
44
0.0000000001
40
6
40
6
40
6
40
6
40
7
40
7
40
7
40
7
10
24418.012663708869
20
26551.701202129439
30
0
10
24403.67052449804
20
26551.788707554755
30
0
10
24391.699782313539
20
26563.925710047377
30
0
10
24379.755291756625
20
26573.122530249075
30
0
0
SPLINE
5
283
100
AcDbEntity
8
0
100
AcDbSpline
70
0
71
3
72
8
73
4
74
0
42
0.000000001
43
0.0000000001
44
0.0000000001
40
7
40
7
40
7
40
7
40
8
40
8
40
8
40
8
10
24379.755291756625
20
26573.122530249075
30
0
10
24336.65449451263
20
26606.330839160037
30
0
10
24290.911033423803
20
26621.714292932233
30
0
10
24234.741300907459
20
26605.193268630814
30
0
0
SPLINE
5
284
100
AcDbEntity
8
0
100
AcDbSpline
70
0
71
3
72
8
73
4
74
0
42
0.000000001
43
0.0000000001
44
0.0000000001
40
8
40
8
40
8
40
8
40
9
40
9
40
9
40
9
10
24234.741300907459
20
26605.193268630814
30
0
10
24170.599824143988
20
26586.318348388151
30
0
10
24104.397594614089
20
26577.71656507867
30
0
10
24033.588204440821
20
26601.736804330474
30
0
0
SPLINE
5
285
100
AcDbEntity
8
0
100
AcDbSpline
70
0
71
3
72
8
73
4
74
0
42
0.000000001
43
0.0000000001
44
0.0000000001
40
0
40
0
40
0
40
0
40
1
40
1
40
1
40
1
10
24268.636527407234
20
26910.657207356529
30
0
10
24209.33847593551
20
26954.821195518241
30
0
10
24168.749084398354
20
27008.698285891049
30
0
10
24154.393819373727
20
27085.300535220867
30
0
0
LINE
5
286
100
AcDbEntity
8
0
100
AcDbLine
10
24154.393819373727
20
27085.300535220867
30
0
11
24337.516422952081
21
27085.300535220867
31
0
0
SPLINE
5
287
100
AcDbEntity
8
0
100
AcDbSpline
70
0
71
3
72
8
73
4
74
0
42
0.000000001
43
0.0000000001
44
0.0000000001
40
2
40
2
40
2
40
2
40
3
40
3
40
3
40
3
10
24337.516422952081
20
27085.300535220867
30
0
10
24305.528814724403
20
27029.927102074987
30
0
10
24268.61027577964
20
26978.876436940176
30
0
10
24268.636527407234
20
26910.657207356529
30
0
0
SPLINE
5
288
100
AcDbEntity
8
0
100
AcDbSpline
70
0
71
3
72
8
73
4
74
0
42
0.000000001
43
0.0000000001
44
0.0000000001
40
1
40
1
40
1
40
1
40
2
40
2
40
2
40
2
10
24862.212079016652
20
24359.8740591227
30
0
10
24789.236929566581
20
24417.006351317621
30
0
10
24784.450382801282
20
24493.704856615292
30
0
10
24772.208373798272
20
24580.81650752667
30
0
0
SPLINE
5
289
100
AcDbEntity
8
0
100
AcDbSpline
70
0
71
3
72
8
73
4
74
0
42
0.000000001
43
0.0000000001
44
0.0000000001
40
2
40
2
40
2
40
2
40
3
40
3
40
3
40
3
10
24772.208373798272
20
24580.81650752667
30
0
10
24793.769710598433
20
24558.633882206697
30
0
10
24805.359804182775
20
24542.926658360797
30
0
10
24802.896526459866
20
24519.78147336224
30
0
0
SPLINE
5
290
100
AcDbEntity
8
0
100
AcDbSpline
70
0
71
3
72
8
73
4
74
0
42
0.000000001
43
0.0000000001
44
0.0000000001
40
3
40
3
40
3
40
3
40
4
40
4
40
4
40
4
10
24802.896526459866
20
24519.78147336224
30
0
10
24795.686079413059
20
24452.008521447759
30
0
10
24837.86369441987
20
24413.33987399649
30
0
10
24887.719910498996
20
24380.367829733899
30
0
0
SPLINE
5
291
100
AcDbEntity
8
0
100
AcDbSpline
70
0
71
3
72
8
73
4
74
0
42
0.000000001
43
0.0000000001
44
0.0000000001
40
0
40
0
40
0
40
0
40
1
40
1
40
1
40
1
10
25732.47541023355
20
24430.499687902797
30
0
10
25728.537666093911
20
24416.918845892305
30
0
10
25724.626173581863
20
24403.329253339274
30
0
10
25720.670928357162
20
24389.757161871312
30
0
0
SPLINE
5
292
100
AcDbEntity
8
0
100
AcDbSpline
70
0
71
3
72
8
73
4
74
0
42
0.000000001
43
0.0000000001
44
0.0000000001
40
3
40
3
40
3
40
3
40
4
40
4
40
4
40
4
10
25724.774932804921
20
24435.461245518742
30
0
10
25727.347592309474
20
24433.807392980088
30
0
10
25729.911501271512
20
24432.153540441435
30
0
10
25732.47541023355
20
24430.499687902797
30
0
0
SPLINE
5
293
100
AcDbEntity
8
0
100
AcDbSpline
70
0
71
3
72
8
73
4
74
0
42
0.000000001
43
0.0000000001
44
0.0000000001
40
0
40
0
40
0
40
0
40
1
40
1
40
1
40
1
10
26078.926890181654
20
24617.078755781498
30
0
10
26111.811429018922
20
24618.898868628261
30
0
10
26123.484652757317
20
24649.840787023306
30
0
10
26149.176245632858
20
24658.941351257145
30
0
0
SPLINE
5
294
100
AcDbEntity
8
0
100
AcDbSpline
70
0
71
3
72
8
73
4
74
0
42
0.000000001
43
0.0000000001
44
0.0000000001
40
1
40
1
40
1
40
1
40
2
40
2
40
2
40
2
10
26149.176245632858
20
24658.941351257145
30
0
10
26149.955043918231
20
24607.199393262264
30
0
10
26129.723789583033
20
24555.56244177778
30
0
10
26093.426539158067
20
24521.872853027522
30
0
0
SPLINE
5
295
100
AcDbEntity
8
0
100
AcDbSpline
70
0
71
3
72
8
73
4
74
0
42
0.000000001
43
0.0000000001
44
0.0000000001
40
2
40
2
40
2
40
2
40
3
40
3
40
3
40
3
10
26093.426539158067
20
24521.872853027522
30
0
10
26079.854447690115
20
24560.71651132944
30
0
10
26050.557631291176
20
24589.322034868303
30
0
10
26035.6904595284
20
24624.761732125058
30
0
0
SPLINE
5
296
100
AcDbEntity
8
0
100
AcDbSpline
70
0
71
3
72
8
73
4
74
0
42
0.000000001
43
0.0000000001
44
0.0000000001
40
3
40
3
40
3
40
3
40
4
40
4
40
4
40
4
10
26035.6904595284
20
24624.761732125058
30
0
10
26019.948233512383
20
24662.292809047103
30
0
10
26030.851409507919
20
24703.359105152285
30
0
10
26038.884407552789
20
24742.83280251655
30
0
0
SPLINE
5
297
100
AcDbEntity
8
0
100
AcDbSpline
70
0
71
3
72
8
73
4
74
0
42
0.000000001
43
0.0000000001
44
0.0000000001
40
4
40
4
40
4
40
4
40
5
40
5
40
5
40
5
10
26038.884407552789
20
24742.83280251655
30
0
10
26043.635952147954
20
24766.161748908289
30
0
10
26064.821015619214
20
24768.751909497911
30
0
10
26083.678434776819
20
24787.679332995787
30
0
0
SPLINE
5
298
100
AcDbEntity
8
0
100
AcDbSpline
70
0
71
3
72
8
73
4
74
0
42
0.000000001
43
0.0000000001
44
0.0000000001
40
5
40
5
40
5
40
5
40
6
40
6
40
6
40
6
10
26083.678434776819
20
24787.679332995787
30
0
10
26084.465983604769
20
24726.679301001492
30
0
10
26087.983701702819
20
24673.300991553027
30
0
10
26078.926890181654
20
24617.078755781498
30
0
0
SPLINE
5
299
100
AcDbEntity
8
0
100
AcDbSpline
70
0
71
3
72
8
73
4
74
0
42
0.000000001
43
0.0000000001
44
0.0000000001
40
0
40
0
40
0
40
0
40
1
40
1
40
1
40
1
10
24785.097922948691
20
24666.650579228313
30
0
10
24804.839146902093
20
24655.082362000299
30
0
10
24816.009214444864
20
24642.341572072928
30
0
10
24823.539056294121
20
24625.654287463385
30
0
0
SPLINE
5
300
100
AcDbEntity
8
0
100
AcDbSpline
70
0
71
3
72
8
73
4
74
0
42
0.000000001
43
0.0000000001
44
0.0000000001
40
1
40
1
40
1
40
1
40
2
40
2
40
2
40
2
10
24823.539056294121
20
24625.654287463385
30
0
10
24843.367785672846
20
24581.709062864993
30
0
10
24884.224068757245
20
24567.331921484034
30
0
10
24925.622885478664
20
24553.418558857302
30
0
0
SPLINE
5
301
100
AcDbEntity
8
0
100
AcDbSpline
70
0
71
3
72
8
73
4
74
0
42
0.000000001
43
0.0000000001
44
0.0000000001
40
2
40
2
40
2
40
2
40
3
40
3
40
3
40
3
10
24925.622885478664
20
24553.418558857302
30
0
10
24941.461367462558
20
24548.098228997518
30
0
10
24949.293103029173
20
24562.002841081725
30
0
10
24951.143842774803
20
24562.667882314196
30
0
0
SPLINE
5
302
100
AcDbEntity
8
0
100
AcDbSpline
70
0
71
3
72
8
73
4
74
0
42
0.000000001
43
0.0000000001
44
0.0000000001
40
6
40
6
40
6
40
6
40
7
40
7
40
7
40
7
10
25067.16728621368
20
24355.166267240202
30
0
10
25049.403684872628
20
24394.674966774597
30
0
10
25027.199183196331
20
24431.234733475525
30
0
10
24999.394334299195
20
24464.644304864738
30
0
0
SPLINE
5
303
100
AcDbEntity
8
0
100
AcDbSpline
70
0
71
3
72
8
73
4
74
0
42
0.000000001
43
0.0000000001
44
0.0000000001
40
7
40
7
40
7
40
7
40
8
40
8
40
8
40
8
10
24999.394334299195
20
24464.644304864738
30
0
10
24960.108773599382
20
24511.835980742704
30
0
10
24915.034729014304
20
24548.448250698824
30
0
10
24850.530104735717
20
24552.079725849831
30
0
0
SPLINE
5
304
100
AcDbEntity
8
0
100
AcDbSpline
70
0
71
3
72
8
73
4
74
0
42
0.000000001
43
0.0000000001
44
0.0000000001
40
8
40
8
40
8
40
8
40
9
40
9
40
9
40
9
10
24850.530104735717
20
24552.079725849831
30
0
10
24839.38628882054
20
24552.709764912175
30
0
10
24828.229347091554
20
24554.564879929065
30
0
10
24824.14284372886
20
24565.240541818763
30
0
0
SPLINE
5
305
100
AcDbEntity
8
0
100
AcDbSpline
70
0
71
3
72
8
73
4
74
0
42
0.000000001
43
0.0000000001
44
0.0000000001
40
9
40
9
40
9
40
9
40
10
40
10
40
10
40
10
10
24824.14284372886
20
24565.240541818763
30
0
10
24811.712698061398
20
24597.687553529398
30
0
10
24790.952035902956
20
24627.168131321505
30
0
10
24785.097922948691
20
24666.650579228313
30
0
0
LINE
5
306
100
AcDbEntity
8
0
100
AcDbLine
10
24904.065923949765
20
27086.096834591332
30
0
11
25002.855173870819
21
27086.096834591332
31
0
0
SPLINE
5
307
100
AcDbEntity
8
0
100
AcDbSpline
70
0
71
3
72
8
73
4
74
0
42
0.000000001
43
0.0000000001
44
0.0000000001
40
1
40
1
40
1
40
1
40
2
40
2
40
2
40
2
10
25002.855173870819
20
27086.096834591332
30
0
10
24984.304023701839
20
27067.991962091524
30
0
10
24971.860752220578
20
27053.352304434575
30
0
10
24957.002331000331
20
27041.836590461753
30
0
0
SPLINE
5
308
100
AcDbEntity
8
0
100
AcDbSpline
70
0
71
3
72
8
73
4
74
0
42
0.000000001
43
0.0000000001
44
0.0000000001
40
2
40
2
40
2
40
2
40
3
40
3
40
3
40
3
10
24957.002331000331
20
27041.836590461753
30
0
10
24919.711893997937
20
27012.933548476794
30
0
10
24903.501513956417
20
26971.01844974597
30
0
10
24903.785906588724
20
26928.709576601144
30
0
0
SPLINE
5
309
100
AcDbEntity
8
0
100
AcDbSpline
70
0
71
3
72
8
73
4
74
0
42
0.000000001
43
0.0000000001
44
0.0000000001
40
3
40
3
40
3
40
3
40
4
40
4
40
4
40
4
10
24903.785906588724
20
26928.709576601144
30
0
10
24904.162179917621
20
26872.513592457221
30
0
10
24876.912990471312
20
26833.171153230956
30
0
10
24845.135395264413
20
26793.679954781612
30
0
0
SPLINE
5
310
100
AcDbEntity
8
0
100
AcDbSpline
70
0
71
3
72
8
73
4
74
0
42
0.000000001
43
0.0000000001
44
0.0000000001
40
4
40
4
40
4
40
4
40
5
40
5
40
5
40
5
10
24845.135395264413
20
26793.679954781612
30
0
10
24840.130084935805
20
26787.467069583527
30
0
10
24839.220028512413
20
26775.601333909402
30
0
10
24825.315416428217
20
26777.150179937671
30
0
0
SPLINE
5
311
100
AcDbEntity
8
0
100
AcDbSpline
70
0
71
3
72
8
73
4
74
0
42
0.000000001
43
0.0000000001
44
0.0000000001
40
5
40
5
40
5
40
5
40
6
40
6
40
6
40
6
10
24825.315416428217
20
26777.150179937671
30
0
10
24813.92658532213
20
26800.059100287832
30
0
10
24835.785440568401
20
26811.93358650447
30
0
10
24844.430976590542
20
26826.608246331547
30
0
0
SPLINE
5
312
100
AcDbEntity
8
0
100
AcDbSpline
70
0
71
3
72
8
73
4
74
0
42
0.000000001
43
0.0000000001
44
0.0000000001
40
6
40
6
40
6
40
6
40
7
40
7
40
7
40
7
10
24844.430976590542
20
26826.608246331547
30
0
10
24872.297079285396
20
26873.92242980497
30
0
10
24871.413274489612
20
26899.526517255166
30
0
10
24835.676058786743
20
26943.156722322368
30
0
0
SPLINE
5
313
100
AcDbEntity
8
0
100
AcDbSpline
70
0
71
3
72
8
73
4
74
0
42
0.000000001
43
0.0000000001
44
0.0000000001
40
7
40
7
40
7
40
7
40
8
40
8
40
8
40
8
10
24835.676058786743
20
26943.156722322368
30
0
10
24833.803442684773
20
26945.440613923362
30
0
10
24832.394605337046
20
26948.109529395784
30
0
10
24828.609995691717
20
26953.919889637396
30
0
0
SPLINE
5
314
100
AcDbEntity
8
0
100
AcDbSpline
70
0
71
3
72
8
73
4
74
0
42
0.000000001
43
0.0000000001
44
0.0000000001
40
8
40
8
40
8
40
8
40
9
40
9
40
9
40
9
10
24828.609995691717
20
26953.919889637396
30
0
10
24846.342970133905
20
26999.641474369888
30
0
10
24904.310939140672
20
27024.598021672668
30
0
10
24904.065923949765
20
27086.096834591332
30
0
0
SPLINE
5
315
100
AcDbEntity
8
0
100
AcDbSpline
70
0
71
3
72
8
73
4
74
0
42
0.000000001
43
0.0000000001
44
0.0000000001
40
0
40
0
40
0
40
0
40
1
40
1
40
1
40
1
10
26789.068418866977
20
24720.877691302416
30
0
10
26719.037826979093
20
24761.340199972859
30
0
10
26650.984857703566
20
24779.803844716509
30
0
10
26575.878951146842
20
24776.128616852846
30
0
0
SPLINE
5
316
100
AcDbEntity
8
0
100
AcDbSpline
70
0
71
3
72
8
73
4
74
0
42
0.000000001
43
0.0000000001
44
0.0000000001
40
1
40
1
40
1
40
1
40
2
40
2
40
2
40
2
10
26575.878951146842
20
24776.128616852846
30
0
10
26493.055066076377
20
24772.068365117753
30
0
10
26415.717771173859
20
24794.627263766619
30
0
10
26342.808250792783
20
24834.433481747128
30
0
0
SPLINE
5
317
100
AcDbEntity
8
0
100
AcDbSpline
70
0
71
3
72
8
73
4
74
0
42
0.000000001
43
0.0000000001
44
0.0000000001
40
2
40
2
40
2
40
2
40
3
40
3
40
3
40
3
10
26342.808250792783
20
24834.433481747128
30
0
10
26321.34316996047
20
24846.150458198186
30
0
10
26308.541126235374
20
24866.836740745101
30
0
10
26284.704648376748
20
24878.369955802977
30
0
0
SPLINE
5
318
100
AcDbEntity
8
0
100
AcDbSpline
70
0
71
3
72
8
73
4
74
0
42
0.000000001
43
0.0000000001
44
0.0000000001
40
3
40
3
40
3
40
3
40
4
40
4
40
4
40
4
10
26284.704648376748
20
24878.369955802977
30
0
10
26351.523791155163
20
24884.224068757245
30
0
10
26403.677024649074
20
24872.6208493591
30
0
10
26450.719941303996
20
24838.852505726056
30
0
0
SPLINE
5
319
100
AcDbEntity
8
0
100
AcDbSpline
70
0
71
3
72
8
73
4
74
0
42
0.000000001
43
0.0000000001
44
0.0000000001
40
4
40
4
40
4
40
4
40
5
40
5
40
5
40
5
10
26450.719941303996
20
24838.852505726056
30
0
10
26495.627725580958
20
24806.60675649366
30
0
10
26544.919531666717
20
24804.305363807609
30
0
10
26595.086392005745
20
24816.984899937252
30
0
0
SPLINE
5
320
100
AcDbEntity
8
0
100
AcDbSpline
70
0
71
3
72
8
73
4
74
0
42
0.000000001
43
0.0000000001
44
0.0000000001
40
5
40
5
40
5
40
5
40
6
40
6
40
6
40
6
10
26595.086392005745
20
24816.984899937252
30
0
10
26659.682896980914
20
24833.313412302956
30
0
10
26723.325592820023
20
24835.71106095687
30
0
10
26789.908470950089
20
24817.474930319069
30
0
0
SPLINE
5
321
100
AcDbEntity
8
0
100
AcDbSpline
70
0
71
3
72
8
73
4
74
0
42
0.000000001
43
0.0000000001
44
0.0000000001
40
6
40
6
40
6
40
6
40
7
40
7
40
7
40
7
10
26789.908470950089
20
24817.474930319069
30
0
10
26793.574948271227
20
24786.673020604543
30
0
10
26793.916219429979
20
24756.317388559186
30
0
10
26789.068418866977
20
24720.877691302416
30
0
0
SPLINE
5
322
100
AcDbEntity
8
0
100
AcDbSpline
70
0
71
3
72
8
73
4
74
0
42
0.000000001
43
0.0000000001
44
0.0000000001
40
0
40
0
40
0
40
0
40
1
40
1
40
1
40
1
10
26633.448770468367
20
24490.659667813969
30
0
10
26675.258862688828
20
24444.13303316848
30
0
10
26705.386980628336
20
24377.506402325762
30
0
10
26786.145737661096
20
24401.622897545429
30
0
0
SPLINE
5
323
100
AcDbEntity
8
0
100
AcDbSpline
70
0
71
3
72
8
73
4
74
0
42
0.000000001
43
0.0000000001
44
0.0000000001
40
1
40
1
40
1
40
1
40
2
40
2
40
2
40
2
10
26786.145737661096
20
24401.622897545429
30
0
10
26795.788835531963
20
24376.386332881601
30
0
10
26792.271117433884
20
24354.956254219425
30
0
10
26790.521008927371
20
24333.954952141343
30
0
0
SPLINE
5
324
100
AcDbEntity
8
0
100
AcDbSpline
70
0
71
3
72
8
73
4
74
0
42
0.000000001
43
0.0000000001
44
0.0000000001
40
3
40
3
40
3
40
3
40
4
40
4
40
4
40
4
10
26676.70270220668
20
24392.093556727501
30
0
10
26670.638576231657
20
24409.052108155549
30
0
10
26662.684333069563
20
24424.864338511841
30
0
10
26654.528827429254
20
24440.527809645078
30
0
0
SPLINE
5
325
100
AcDbEntity
8
0
100
AcDbSpline
70
0
71
3
72
8
73
4
74
0
42
0.000000001
43
0.0000000001
44
0.0000000001
40
4
40
4
40
4
40
4
40
5
40
5
40
5
40
5
10
26654.528827429254
20
24440.527809645078
30
0
10
26646.644588607433
20
24455.683749311429
30
0
10
26635.601403931392
20
24469.203337524192
30
0
10
26625.940804975464
20
24483.440470224632
30
0
0
LINE
5
326
100
AcDbEntity
8
0
100
AcDbLine
10
26625.940804975464
20
24483.440470224632
30
0
11
26633.448770468367
21
24490.659667813969
31
0
0
SPLINE
5
327
100
AcDbEntity
8
0
100
AcDbSpline
70
0
71
3
72
11
73
7
74
0
42
0.000000001
43
0.0000000001
44
0.0000000001
40
0
40
0
40
0
40
0
40
1
40
1
40
1
40
2
40
2
40
2
40
2
10
24591.566549027888
20
24901.64639893952
30
0
10
24565.721821658048
20
24860.553851206736
30
0
10
24542.012266752303
20
24829.121849241819
30
0
10
24510.129624948862
20
24805.092912635537
30
0
10
24498.193899941303
20
24796.097335000381
30
0
10
24486.035006085527
20
24787.241805869162
30
0
10
24476.956318208016
20
24775.866100576863
30
0
0
SPLINE
5
328
100
AcDbEntity
8
0
100
AcDbSpline
70
0
71
3
72
8
73
4
74
0
42
0.000000001
43
0.0000000001
44
0.0000000001
40
2
40
2
40
2
40
2
40
3
40
3
40
3
40
3
10
24476.956318208016
20
24775.866100576863
30
0
10
24445.961896557783
20
24737.022442274945
30
0
10
24407.997667780382
20
24747.881865557822
30
0
10
24366.931371675197
20
24755.37232996567
30
0
0
SPLINE
5
329
100
AcDbEntity
8
0
100
AcDbSpline
70
0
71
3
72
8
73
4
74
0
42
0.000000001
43
0.0000000001
44
0.0000000001
40
3
40
3
40
3
40
3
40
4
40
4
40
4
40
4
10
24366.931371675197
20
24755.37232996567
30
0
10
24388.291445997114
20
24786.524261381495
30
0
10
24406.225682917542
20
24814.210977954433
30
0
10
24408.947101645164
20
24849.326905137495
30
0
0
SPLINE
5
330
100
AcDbEntity
8
0
100
AcDbSpline
70
0
71
3
72
8
73
4
74
0
42
0.000000001
43
0.0000000001
44
0.0000000001
40
4
40
4
40
4
40
4
40
5
40
5
40
5
40
5
10
24408.947101645164
20
24849.326905137495
30
0
10
24410.215930312374
20
24865.681669130805
30
0
10
24447.786384675815
20
24895.731032187527
30
0
10
24465.274343927085
20
24890.148186051771
30
0
0
SPLINE
5
331
100
AcDbEntity
8
0
100
AcDbSpline
70
0
71
3
72
8
73
4
74
0
42
0.000000001
43
0.0000000001
44
0.0000000001
40
5
40
5
40
5
40
5
40
6
40
6
40
6
40
6
10
24465.274343927085
20
24890.148186051771
30
0
10
24506.721288632438
20
24876.917365742578
30
0
10
24545.197424147987
20
24887.698034142661
30
0
10
24591.566549027888
20
24901.64639893952
30
0
0
LINE
5
332
100
AcDbEntity
8
0
100
AcDbLine
10
24034.283872572159
20
24451.343480215291
30
0
11
24034.283872572159
21
24636.732474309567
31
0
0
SPLINE
5
333
100
AcDbEntity
8
0
100
AcDbSpline
70
0
71
3
72
8
73
4
74
0
42
0.000000001
43
0.0000000001
44
0.0000000001
40
1
40
1
40
1
40
1
40
2
40
2
40
2
40
2
10
24034.283872572159
20
24636.732474309567
30
0
10
24093.546921873749
20
24602.351592699237
30
0
10
24149.020986258751
20
24569.747071223021
30
0
10
24219.550359070985
20
24568.136971397031
30
0
0
SPLINE
5
334
100
AcDbEntity
8
0
100
AcDbSpline
70
0
71
3
72
8
73
4
74
0
42
0.000000001
43
0.0000000001
44
0.0000000001
40
2
40
2
40
2
40
2
40
3
40
3
40
3
40
3
10
24219.550359070985
20
24568.136971397031
30
0
10
24169.580385938942
20
24507.679473039749
30
0
10
24111.761176155225
20
24470.585923244333
30
0
10
24034.283872572159
20
24451.343480215291
30
0
0
SPLINE
5
335
100
AcDbEntity
8
0
100
AcDbSpline
70
0
71
3
72
11
73
7
74
0
42
0.000000001
43
0.0000000001
44
0.0000000001
40
0
40
0
40
0
40
0
40
1
40
1
40
1
40
2
40
2
40
2
40
2
10
24423.000472952408
20
26649.436011675331
30
0
10
24369.434026839499
20
26654.152554100343
30
0
10
24317.858242550996
20
26661.599130859431
30
0
10
24272.591772631935
20
26690.651067003546
30
0
10
24249.481545590083
20
26705.483167706261
30
0
10
24243.194324993889
20
26734.421280751289
30
0
10
24228.165268194261
20
26756.175129487165
30
0
0
SPLINE
5
336
100
AcDbEntity
8
0
100
AcDbSpline
70
0
71
3
72
8
73
4
74
0
42
0.000000001
43
0.0000000001
44
0.0000000001
40
2
40
2
40
2
40
2
40
3
40
3
40
3
40
3
10
24228.165268194261
20
26756.175129487165
30
0
10
24182.990592370046
20
26821.550432747732
30
0
10
24121.181135191495
20
26851.074763252513
30
0
10
24044.473879351299
20
26855.74755296488
30
0
0
SPLINE
5
337
100
AcDbEntity
8
0
100
AcDbSpline
70
0
71
3
72
8
73
4
74
0
42
0.000000001
43
0.0000000001
44
0.0000000001
40
3
40
3
40
3
40
3
40
4
40
4
40
4
40
4
10
24044.473879351299
20
26855.74755296488
30
0
10
24041.826840235208
20
26855.913813273004
30
0
10
24039.297933443304
20
26858.013943480815
30
0
10
24034.581391018262
20
26860.201579113931
30
0
0
SPLINE
5
338
100
AcDbEntity
8
0
100
AcDbSpline
70
0
71
3
72
8
73
4
74
0
42
0.000000001
43
0.0000000001
44
0.0000000001
40
4
40
4
40
4
40
4
40
5
40
5
40
5
40
5
10
24034.581391018262
20
26860.201579113931
30
0
10
24029.04229759517
20
26874.543718324778
30
0
10
24033.036920261275
20
26890.889731775533
30
0
10
24031.70683779633
20
26905.363129124366
30
0
0
SPLINE
5
339
100
AcDbEntity
8
0
100
AcDbSpline
70
0
71
3
72
8
73
4
74
0
42
0.000000001
43
0.0000000001
44
0.0000000001
40
5
40
5
40
5
40
5
40
6
40
6
40
6
40
6
10
24031.70683779633
20
26905.363129124366
30
0
10
24034.598892103335
20
26908.487072808472
30
0
10
24037.315935559676
20
26912.372313692907
30
0
10
24038.020354233555
20
26912.031042534152
30
0
0
SPLINE
5
340
100
AcDbEntity
8
0
100
AcDbSpline
70
0
71
3
72
8
73
4
74
0
42
0.000000001
43
0.0000000001
44
0.0000000001
40
6
40
6
40
6
40
6
40
7
40
7
40
7
40
7
10
24038.020354233555
20
26912.031042534152
30
0
10
24073.971958228471
20
26894.836226457719
30
0
10
24110.247332297095
20
26902.00292079186
30
0
10
24145.700155367653
20
26912.249806097465
30
0
0
SPLINE
5
341
100
AcDbEntity
8
0
100
AcDbSpline
70
0
71
3
72
8
73
4
74
0
42
0.000000001
43
0.0000000001
44
0.0000000001
40
7
40
7
40
7
40
7
40
8
40
8
40
8
40
8
10
24145.700155367653
20
26912.249806097465
30
0
10
24160.22605597166
20
26916.45006651308
30
0
10
24170.836088792355
20
26916.108795354296
30
0
10
24182.553065243428
20
26906.596955621448
30
0
0
SPLINE
5
342
100
AcDbEntity
8
0
100
AcDbSpline
70
0
71
3
72
8
73
4
74
0
42
0.000000001
43
0.0000000001
44
0.0000000001
40
8
40
8
40
8
40
8
40
9
40
9
40
9
40
9
10
24182.553065243428
20
26906.596955621448
30
0
10
24190.489807320431
20
26900.147805774974
30
0
10
24200.023523409633
20
26894.923731883035
30
0
10
24209.670996551751
20
26891.467267582688
30
0
0
SPLINE
5
343
100
AcDbEntity
8
0
100
AcDbSpline
70
0
71
3
72
8
73
4
74
0
42
0.000000001
43
0.0000000001
44
0.0000000001
40
9
40
9
40
9
40
9
40
10
40
10
40
10
40
10
10
24209.670996551751
20
26891.467267582688
30
0
10
24248.392147258219
20
26877.588907126079
30
0
10
24267.205813703164
20
26850.330967137241
30
0
10
24275.422573141219
20
26810.087222030128
30
0
0
SPLINE
5
344
100
AcDbEntity
8
0
100
AcDbSpline
70
0
71
3
72
8
73
4
74
0
42
0.000000001
43
0.0000000001
44
0.0000000001
40
10
40
10
40
10
40
10
40
11
40
11
40
11
40
11
10
24275.422573141219
20
26810.087222030128
30
0
10
24283.263059250366
20
26771.698591939898
30
0
10
24293.636827422688
20
26732.671172244787
30
0
10
24327.672062602978
20
26705.912013180299
30
0
0
SPLINE
5
345
100
AcDbEntity
8
0
100
AcDbSpline
70
0
71
3
72
8
73
4
74
0
42
0.000000001
43
0.0000000001
44
0.0000000001
40
11
40
11
40
11
40
11
40
12
40
12
40
12
40
12
10
24327.672062602978
20
26705.912013180299
30
0
10
24350.248462336927
20
26688.157162381765
30
0
10
24376.311953270073
20
26678.006533044056
30
0
10
24402.196058081314
20
26667.29586898422
30
0
0
SPLINE
5
346
100
AcDbEntity
8
0
100
AcDbSpline
70
0
71
3
72
8
73
4
74
0
42
0.000000001
43
0.0000000001
44
0.0000000001
40
12
40
12
40
12
40
12
40
13
40
13
40
13
40
13
10
24402.196058081314
20
26667.29586898422
30
0
10
24410.268433567577
20
26663.944411194261
30
0
10
24420.095292831611
20
26664.434441576068
30
0
10
24423.000472952408
20
26649.436011675331
30
0
0
SPLINE
5
347
100
AcDbEntity
8
0
100
AcDbSpline
70
0
71
3
72
8
73
4
74
0
42
0.000000001
43
0.0000000001
44
0.0000000001
40
0
40
0
40
0
40
0
40
1
40
1
40
1
40
1
10
26367.266017171209
20
24665.460505443876
30
0
10
26331.450046585542
20
24688.876957260938
30
0
10
26302.503251887909
20
24710.665808166952
30
0
10
26262.968300725937
20
24703.367855694818
30
0
0
SPLINE
5
348
100
AcDbEntity
8
0
100
AcDbSpline
70
0
71
3
72
8
73
4
74
0
42
0.000000001
43
0.0000000001
44
0.0000000001
40
1
40
1
40
1
40
1
40
2
40
2
40
2
40
2
10
26262.968300725937
20
24703.367855694818
30
0
10
26243.892118004995
20
24729.409470271643
30
0
10
26229.821245612689
20
24753.56096766144
30
0
10
26235.34283795071
20
24788.353124770787
30
0
0
SPLINE
5
349
100
AcDbEntity
8
0
100
AcDbSpline
70
0
71
3
72
8
73
4
74
0
42
0.000000001
43
0.0000000001
44
0.0000000001
40
2
40
2
40
2
40
2
40
3
40
3
40
3
40
3
10
26235.34283795071
20
24788.353124770787
30
0
10
26239.928122237758
20
24817.291168925884
30
0
10
26243.5420963037
20
24848.871876925801
30
0
10
26223.19708491557
20
24877.687413485437
30
0
0
SPLINE
5
350
100
AcDbEntity
8
0
100
AcDbSpline
70
0
71
3
72
8
73
4
74
0
42
0.000000001
43
0.0000000001
44
0.0000000001
40
3
40
3
40
3
40
3
40
4
40
4
40
4
40
4
10
26223.19708491557
20
24877.687413485437
30
0
10
26274.781533144836
20
24854.174705700527
30
0
10
26308.112349651274
20
24814.184726326836
30
0
10
26344.61086255448
20
24776.907415138245
30
0
0
SPLINE
5
351
100
AcDbEntity
8
0
100
AcDbSpline
70
0
71
3
72
8
73
4
74
0
42
0.000000001
43
0.0000000001
44
0.0000000001
40
4
40
4
40
4
40
4
40
5
40
5
40
5
40
5
10
26344.61086255448
20
24776.907415138245
30
0
10
26376.270325437181
20
24744.574160480523
30
0
10
26373.347644231322
20
24709.589491435454
30
0
10
26367.266017171209
20
24665.460505443876
30
0
0
SPLINE
5
352
100
AcDbEntity
8
0
100
AcDbSpline
70
0
71
3
72
8
73
4
74
0
42
0.000000001
43
0.0000000001
44
0.0000000001
40
0
40
0
40
0
40
0
40
1
40
1
40
1
40
1
10
24036.76465138013
20
26565.29079468246
30
0
10
24075.25391270949
20
26530.656147338683
30
0
10
24110.142325786699
20
26494.971434891031
30
0
10
24157.045233761088
20
26472.561295465195
30
0
0
SPLINE
5
353
100
AcDbEntity
8
0
100
AcDbSpline
70
0
71
3
72
8
73
4
74
0
42
0.000000001
43
0.0000000001
44
0.0000000001
40
1
40
1
40
1
40
1
40
2
40
2
40
2
40
2
10
24157.045233761088
20
26472.561295465195
30
0
10
24213.284970617682
20
26445.68837934779
30
0
10
24269.721594681272
20
26427.277237859322
30
0
10
24332.244221076224
20
26433.542626312625
30
0
0
SPLINE
5
354
100
AcDbEntity
8
0
100
AcDbSpline
70
0
71
3
72
8
73
4
74
0
42
0.000000001
43
0.0000000001
44
0.0000000001
40
2
40
2
40
2
40
2
40
3
40
3
40
3
40
3
10
24332.244221076224
20
26433.542626312625
30
0
10
24366.528846718698
20
26436.981589527895
30
0
10
24395.694404979637
20
26453.415108404002
30
0
10
24413.755524766788
20
26482.221894421124
30
0
0
SPLINE
5
355
100
AcDbEntity
8
0
100
AcDbSpline
70
0
71
3
72
8
73
4
74
0
42
0.000000001
43
0.0000000001
44
0.0000000001
40
3
40
3
40
3
40
3
40
4
40
4
40
4
40
4
10
24413.755524766788
20
26482.221894421124
30
0
10
24426.325679114776
20
26502.269387363143
30
0
10
24441.22785304768
20
26506.005869024528
30
0
10
24462.027892647515
20
26505.37582996221
30
0
0
SPLINE
5
356
100
AcDbEntity
8
0
100
AcDbSpline
70
0
71
3
72
8
73
4
74
0
42
0.000000001
43
0.0000000001
44
0.0000000001
40
4
40
4
40
4
40
4
40
5
40
5
40
5
40
5
10
24462.027892647515
20
26505.37582996221
30
0
10
24503.439835182729
20
26504.124502380058
30
0
10
24544.58051089945
20
26503.354454637174
30
0
10
24577.793195081678
20
26475.125204427233
30
0
0
SPLINE
5
357
100
AcDbEntity
8
0
100
AcDbSpline
70
0
71
3
72
8
73
4
74
0
42
0.000000001
43
0.0000000001
44
0.0000000001
40
5
40
5
40
5
40
5
40
6
40
6
40
6
40
6
10
24577.793195081678
20
26475.125204427233
30
0
10
24574.424236206658
20
26459.697997942363
30
0
10
24564.312984310309
20
26461.938136830708
30
0
10
24555.76370425602
20
26460.958076067054
30
0
0
SPLINE
5
358
100
AcDbEntity
8
0
100
AcDbSpline
70
0
71
3
72
11
73
7
74
0
42
0.000000001
43
0.0000000001
44
0.0000000001
40
6
40
6
40
6
40
6
40
7
40
7
40
7
40
8
40
8
40
8
40
8
10
24555.76370425602
20
26460.958076067054
30
0
10
24523.557332465032
20
26457.291598745927
30
0
10
24492.873682651501
20
26445.075738888536
30
0
10
24473.416723753602
20
26420.854339640457
30
0
10
24433.855780360078
20
26371.606077895467
30
0
10
24381.151003290572
20
26375.202759248212
30
0
10
24330.152841410956
20
26382.325700869689
30
0
0
SPLINE
5
359
100
AcDbEntity
8
0
100
AcDbSpline
70
0
71
3
72
8
73
4
74
0
42
0.000000001
43
0.0000000001
44
0.0000000001
40
8
40
8
40
8
40
8
40
9
40
9
40
9
40
9
10
24330.152841410956
20
26382.325700869689
30
0
10
24287.65145633043
20
26388.267319249295
30
0
10
24244.616288155426
20
26387.899796462931
30
0
10
24202.263662297959
20
26396.729093878243
30
0
0
SPLINE
5
360
100
AcDbEntity
8
0
100
AcDbSpline
70
0
71
3
72
8
73
4
74
0
42
0.000000001
43
0.0000000001
44
0.0000000001
40
9
40
9
40
9
40
9
40
10
40
10
40
10
40
10
10
24202.263662297959
20
26396.729093878243
30
0
10
24178.702826529108
20
26401.638148238999
30
0
10
24160.939225188067
20
26408.481072499453
30
0
10
24147.909667357126
20
26429.298613184357
30
0
0
SPLINE
5
361
100
AcDbEntity
8
0
100
AcDbSpline
70
0
71
3
72
8
73
4
74
0
42
0.000000001
43
0.0000000001
44
0.0000000001
40
10
40
10
40
10
40
10
40
11
40
11
40
11
40
11
10
24147.909667357126
20
26429.298613184357
30
0
10
24124.716354374643
20
26466.357160809635
30
0
10
24097.37528423173
20
26498.069126947521
30
0
10
24050.36736974696
20
26506.942177075536
30
0
0
SPLINE
5
362
100
AcDbEntity
8
0
100
AcDbSpline
70
0
71
3
72
8
73
4
74
0
42
0.000000001
43
0.0000000001
44
0.0000000001
40
11
40
11
40
11
40
11
40
12
40
12
40
12
40
12
10
24050.36736974696
20
26506.942177075536
30
0
10
24030.245497193395
20
26510.739912534656
30
0
10
24029.541078519524
20
26519.39419909933
30
0
10
24036.76465138013
20
26565.29079468246
30
0
0
SPLINE
5
363
100
AcDbEntity
8
0
100
AcDbSpline
70
0
71
3
72
8
73
4
74
0
42
0.000000001
43
0.0000000001
44
0.0000000001
40
0
40
0
40
0
40
0
40
1
40
1
40
1
40
1
10
26265.908483016861
20
27090.034578730963
30
0
10
26228.246147956845
20
27038.196364768228
30
0
10
26188.361175093545
20
26994.43490156304
30
0
10
26162.372063771905
20
26940.067780808393
30
0
0
SPLINE
5
364
100
AcDbEntity
8
0
100
AcDbSpline
70
0
71
3
72
8
73
4
74
0
42
0.000000001
43
0.0000000001
44
0.0000000001
40
1
40
1
40
1
40
1
40
2
40
2
40
2
40
2
10
26162.372063771905
20
26940.067780808393
30
0
10
26138.133060956785
20
26889.393389002489
30
0
10
26132.567715906083
20
26837.178901710846
30
0
10
26138.90310869964
20
26783.765590092265
30
0
0
SPLINE
5
365
100
AcDbEntity
8
0
100
AcDbSpline
70
0
71
3
72
8
73
4
74
0
42
0.000000001
43
0.0000000001
44
0.0000000001
40
2
40
2
40
2
40
2
40
3
40
3
40
3
40
3
10
26138.90310869964
20
26783.765590092265
30
0
10
26142.560835478253
20
26752.963680377743
30
0
10
26159.930662405332
20
26725.600733878498
30
0
10
26185.762263961384
20
26705.973266978035
30
0
0
SPLINE
5
366
100
AcDbEntity
8
0
100
AcDbSpline
70
0
71
3
72
8
73
4
74
0
42
0.000000001
43
0.0000000001
44
0.0000000001
40
3
40
3
40
3
40
3
40
4
40
4
40
4
40
4
10
26185.762263961384
20
26705.973266978035
30
0
10
26193.891517974087
20
26699.795383950062
30
0
10
26206.877323092369
20
26697.388984753594
30
0
10
26207.857383856022
20
26685.65450721747
30
0
0
SPLINE
5
367
100
AcDbEntity
8
0
100
AcDbSpline
70
0
71
3
72
8
73
4
74
0
42
0.000000001
43
0.0000000001
44
0.0000000001
40
4
40
4
40
4
40
4
40
5
40
5
40
5
40
5
10
26207.857383856022
20
26685.65450721747
30
0
10
26212.057644271634
20
26635.067620836882
30
0
10
26211.068832965466
20
26585.268283284244
30
0
10
26176.224172600902
20
26543.248178043013
30
0
0
SPLINE
5
368
100
AcDbEntity
8
0
100
AcDbSpline
70
0
71
3
72
8
73
4
74
0
42
0.000000001
43
0.0000000001
44
0.0000000001
40
5
40
5
40
5
40
5
40
6
40
6
40
6
40
6
10
26176.224172600902
20
26543.248178043013
30
0
10
26175.751643304153
20
26542.679392778402
30
0
10
26173.415248447967
20
26543.659453542026
30
0
10
26167.797400142081
20
26544.657015390738
30
0
0
SPLINE
5
369
100
AcDbEntity
8
0
100
AcDbSpline
70
0
71
3
72
8
73
4
74
0
42
0.000000001
43
0.0000000001
44
0.0000000001
40
6
40
6
40
6
40
6
40
7
40
7
40
7
40
7
10
26167.797400142081
20
26544.657015390738
30
0
10
26166.458567134618
20
26596.328969045353
30
0
10
26140.915733482128
20
26637.815291192099
30
0
10
26103.48091252795
20
26673.701266118027
30
0
0
SPLINE
5
370
100
AcDbEntity
8
0
100
AcDbSpline
70
0
71
3
72
8
73
4
74
0
42
0.000000001
43
0.0000000001
44
0.0000000001
40
7
40
7
40
7
40
7
40
8
40
8
40
8
40
8
10
26103.48091252795
20
26673.701266118027
30
0
10
26087.896196277503
20
26688.647192763605
30
0
10
26084.842256933654
20
26708.878447098832
30
0
10
26083.63468206417
20
26730.84230885547
30
0
0
SPLINE
5
371
100
AcDbEntity
8
0
100
AcDbSpline
70
0
71
3
72
8
73
4
74
0
42
0.000000001
43
0.0000000001
44
0.0000000001
40
8
40
8
40
8
40
8
40
9
40
9
40
9
40
9
10
26083.63468206417
20
26730.84230885547
30
0
10
26079.731940094644
20
26801.310427869979
30
0
10
26093.575298381118
20
26869.835926442254
30
0
10
26102.649610987348
20
26938.912709194083
30
0
0
SPLINE
5
372
100
AcDbEntity
8
0
100
AcDbSpline
70
0
71
3
72
8
73
4
74
0
42
0.000000001
43
0.0000000001
44
0.0000000001
40
9
40
9
40
9
40
9
40
10
40
10
40
10
40
10
10
26102.649610987348
20
26938.912709194083
30
0
10
26105.511038395496
20
26960.692809557568
30
0
10
26122.172071377456
20
26971.814749116405
30
0
10
26140.110683569146
20
26979.628983597973
30
0
0
SPLINE
5
373
100
AcDbEntity
8
0
100
AcDbSpline
70
0
71
3
72
8
73
4
74
0
42
0.000000001
43
0.0000000001
44
0.0000000001
40
10
40
10
40
10
40
10
40
11
40
11
40
11
40
11
10
26140.110683569146
20
26979.628983597973
30
0
10
26177.370493672664
20
26995.843738910768
30
0
10
26196.770446467293
20
27026.531891572358
30
0
10
26208.714937024219
20
27062.715384944389
30
0
0
SPLINE
5
374
100
AcDbEntity
8
0
100
AcDbSpline
70
0
71
3
72
8
73
4
74
0
42
0.000000001
43
0.0000000001
44
0.0000000001
40
11
40
11
40
11
40
11
40
12
40
12
40
12
40
12
10
26208.714937024219
20
27062.715384944389
30
0
10
26220.300655337291
20
27097.831312127459
30
0
10
26219.338095658706
20
27098.155082201156
30
0
10
26265.908483016861
20
27090.034578730963
30
0
0
LINE
5
375
100
AcDbEntity
8
0
100
AcDbLine
10
24564.811765234663
20
27085.869320485475
30
0
11
24638.911359400168
21
27085.869320485475
31
0
0
SPLINE
5
376
100
AcDbEntity
8
0
100
AcDbSpline
70
0
71
3
72
8
73
4
74
0
42
0.000000001
43
0.0000000001
44
0.0000000001
40
1
40
1
40
1
40
1
40
2
40
2
40
2
40
2
10
24638.911359400168
20
27085.869320485475
30
0
10
24648.821348818259
20
26989.280832011355
30
0
10
24675.357369048175
20
26895.413762264867
30
0
10
24648.344444250248
20
26799.551568820963
30
0
0
SPLINE
5
377
100
AcDbEntity
8
0
100
AcDbSpline
70
0
71
3
72
8
73
4
74
0
42
0.000000001
43
0.0000000001
44
0.0000000001
40
2
40
2
40
2
40
2
40
3
40
3
40
3
40
3
10
24648.344444250248
20
26799.551568820963
30
0
10
24632.575966606615
20
26820.701630122072
30
0
10
24631.048996934693
20
26821.226662674035
30
0
10
24635.310511148033
20
26833.538676017313
30
0
0
SPLINE
5
378
100
AcDbEntity
8
0
100
AcDbSpline
70
0
71
3
72
8
73
4
74
0
42
0.000000001
43
0.0000000001
44
0.0000000001
40
3
40
3
40
3
40
3
40
4
40
4
40
4
40
4
10
24635.310511148033
20
26833.538676017313
30
0
10
24664.996726689656
20
26919.250240123492
30
0
10
24639.970175046605
20
26992.002250738966
30
0
10
24584.041082449909
20
27058.086347944671
30
0
0
SPLINE
5
379
100
AcDbEntity
8
0
100
AcDbSpline
70
0
71
3
72
8
73
4
74
0
42
0.000000001
43
0.0000000001
44
0.0000000001
40
4
40
4
40
4
40
4
40
5
40
5
40
5
40
5
10
24584.041082449909
20
27058.086347944671
30
0
10
24577.543804619509
20
27065.760573745727
30
0
10
24567.633815201407
20
27071.107155233109
30
0
10
24564.811765234663
20
27085.869320485475
30
0
0
SPLINE
5
380
100
AcDbEntity
8
0
100
AcDbSpline
70
0
71
3
72
8
73
4
74
0
42
0.000000001
43
0.0000000001
44
0.0000000001
40
0
40
0
40
0
40
0
40
1
40
1
40
1
40
1
10
24274.757531908741
20
26343.473292025235
30
0
10
24252.544279689901
20
26323.285790402679
30
0
10
24227.600858200909
20
26315.244041815291
30
0
10
24197.94089428689
20
26317.055404119536
30
0
0
SPLINE
5
381
100
AcDbEntity
8
0
100
AcDbSpline
70
0
71
3
72
8
73
4
74
0
42
0.000000001
43
0.0000000001
44
0.0000000001
40
1
40
1
40
1
40
1
40
2
40
2
40
2
40
2
10
24197.94089428689
20
26317.055404119536
30
0
10
24156.927101436893
20
26319.549308741294
30
0
10
24127.888426042682
20
26294.023976173899
30
0
10
24105.10638855923
20
26264.350886446053
30
0
0
SPLINE
5
382
100
AcDbEntity
8
0
100
AcDbSpline
70
0
71
3
72
8
73
4
74
0
42
0.000000001
43
0.0000000001
44
0.0000000001
40
2
40
2
40
2
40
2
40
3
40
3
40
3
40
3
10
24105.10638855923
20
26264.350886446053
30
0
10
24082.810006186333
20
26235.31658632313
30
0
10
24059.546688863589
20
26206.063522636865
30
0
10
24047.934718922916
20
26170.0375390304
30
0
0
SPLINE
5
383
100
AcDbEntity
8
0
100
AcDbSpline
70
0
71
3
72
8
73
4
74
0
42
0.000000001
43
0.0000000001
44
0.0000000001
40
3
40
3
40
3
40
3
40
4
40
4
40
4
40
4
10
24047.934718922916
20
26170.0375390304
30
0
10
24045.873966156505
20
26163.649642981658
30
0
10
24044.027601682137
20
26155.406631915997
30
0
10
24033.356315063713
20
26152.212683891637
30
0
0
SPLINE
5
384
100
AcDbEntity
8
0
100
AcDbSpline
70
0
71
3
72
8
73
4
74
0
42
0.000000001
43
0.0000000001
44
0.0000000001
40
4
40
4
40
4
40
4
40
5
40
5
40
5
40
5
10
24033.356315063713
20
26152.212683891637
30
0
10
24029.667961386243
20
26191.196350874088
30
0
10
24035.360189303661
20
26221.193210675599
30
0
10
24061.349300625294
20
26256.51915087946
30
0
0
SPLINE
5
385
100
AcDbEntity
8
0
100
AcDbSpline
70
0
71
3
72
8
73
4
74
0
42
0.000000001
43
0.0000000001
44
0.0000000001
40
5
40
5
40
5
40
5
40
6
40
6
40
6
40
6
10
24061.349300625294
20
26256.51915087946
30
0
10
24117.47965570023
20
26332.832632305686
30
0
10
24195.333232612193
20
26336.236593350834
30
0
10
24274.757531908741
20
26343.473292025235
30
0
0
SPLINE
5
386
100
AcDbEntity
8
0
100
AcDbSpline
70
0
71
3
72
8
73
4
74
0
42
0.000000001
43
0.0000000001
44
0.0000000001
40
0
40
0
40
0
40
0
40
1
40
1
40
1
40
1
10
26537.15780044036
20
25074.417110701885
30
0
10
26565.675818553886
20
25092.346972351046
30
0
10
26586.747124972251
20
25100.45872527871
30
0
10
26611.091134297752
20
25098.586109176744
30
0
0
SPLINE
5
387
100
AcDbEntity
8
0
100
AcDbSpline
70
0
71
3
72
8
73
4
74
0
42
0.000000001
43
0.0000000001
44
0.0000000001
40
1
40
1
40
1
40
1
40
2
40
2
40
2
40
2
10
26611.091134297752
20
25098.586109176744
30
0
10
26646.390822874004
20
25095.864690449129
30
0
10
26674.226298669993
20
25111.536912124899
30
0
10
26698.561557452973
20
25134.813355261438
30
0
0
SPLINE
5
388
100
AcDbEntity
8
0
100
AcDbSpline
70
0
71
3
72
8
73
4
74
0
42
0.000000001
43
0.0000000001
44
0.0000000001
40
2
40
2
40
2
40
2
40
3
40
3
40
3
40
3
10
26698.561557452973
20
25134.813355261438
30
0
10
26725.521978995697
20
25160.609954647352
30
0
10
26746.95205765788
20
25190.606814448875
30
0
10
26764.899420392117
20
25223.342594063088
30
0
0
SPLINE
5
389
100
AcDbEntity
8
0
100
AcDbSpline
70
0
71
3
72
8
73
4
74
0
42
0.000000001
43
0.0000000001
44
0.0000000001
40
3
40
3
40
3
40
3
40
4
40
4
40
4
40
4
10
26764.899420392117
20
25223.342594063088
30
0
10
26772.442388055151
20
25237.080945839167
30
0
10
26775.767594217523
20
25253.680725023387
30
0
10
26789.995976375409
20
25265.231441166325
30
0
0
SPLINE
5
390
100
AcDbEntity
8
0
100
AcDbSpline
70
0
71
3
72
8
73
4
74
0
42
0.000000001
43
0.0000000001
44
0.0000000001
40
4
40
4
40
4
40
4
40
5
40
5
40
5
40
5
10
26789.995976375409
20
25265.231441166325
30
0
10
26795.727581734227
20
25224.53266784751
30
0
10
26791.151047989719
20
25192.99571256026
30
0
10
26761.854231590791
20
25159.017355906428
30
0
0
SPLINE
5
391
100
AcDbEntity
8
0
100
AcDbSpline
70
0
71
3
72
8
73
4
74
0
42
0.000000001
43
0.0000000001
44
0.0000000001
40
5
40
5
40
5
40
5
40
6
40
6
40
6
40
6
10
26761.854231590791
20
25159.017355906428
30
0
10
26737.61522877567
20
25130.901862749397
30
0
10
26711.713622879368
20
25112.726985909321
30
0
10
26680.281674102498
20
25099.13739335629
30
0
0
SPLINE
5
392
100
AcDbEntity
8
0
100
AcDbSpline
70
0
71
3
72
8
73
4
74
0
42
0.000000001
43
0.0000000001
44
0.0000000001
40
6
40
6
40
6
40
6
40
7
40
7
40
7
40
7
10
26680.281674102498
20
25099.13739335629
30
0
10
26610.802366394182
20
25069.088030299568
30
0
10
26610.286084384767
20
25069.604312308988
30
0
10
26537.15780044036
20
25074.417110701885
30
0
0
SPLINE
5
393
100
AcDbEntity
8
0
100
AcDbSpline
70
0
71
3
72
8
73
4
74
0
42
0.000000001
43
0.0000000001
44
0.0000000001
40
0
40
0
40
0
40
0
40
1
40
1
40
1
40
1
10
26612.928748229573
20
26851.984819675887
30
0
10
26659.08786008869
20
26910.105923176983
30
0
10
26711.976139155347
20
26952.318540353939
30
0
10
26789.32218460042
20
26967.17696157418
30
0
0
LINE
5
394
100
AcDbEntity
8
0
100
AcDbLine
10
26789.32218460042
20
26967.17696157418
30
0
11
26789.32218460042
21
26783.695585751986
31
0
0
SPLINE
5
395
100
AcDbEntity
8
0
100
AcDbSpline
70
0
71
3
72
8
73
4
74
0
42
0.000000001
43
0.0000000001
44
0.0000000001
40
2
40
2
40
2
40
2
40
3
40
3
40
3
40
3
10
26789.32218460042
20
26783.695585751986
30
0
10
26735.182577951622
20
26818.864016190244
30
0
10
26680.42168278301
20
26849.762181872633
30
0
10
26612.928748229573
20
26851.984819675887
30
0
0
SPLINE
5
396
100
AcDbEntity
8
0
100
AcDbSpline
70
0
71
3
72
8
73
4
74
0
42
0.000000001
43
0.0000000001
44
0.0000000001
40
0
40
0
40
0
40
0
40
1
40
1
40
1
40
1
10
26206.964828517717
20
24720.62392556898
30
0
10
26233.671484327002
20
24710.578302741629
30
0
10
26236.077883523438
20
24694.284792546052
30
0
10
26236.716673128336
20
24675.191108740055
30
0
0
SPLINE
5
397
100
AcDbEntity
8
0
100
AcDbSpline
70
0
71
3
72
8
73
4
74
0
42
0.000000001
43
0.0000000001
44
0.0000000001
40
1
40
1
40
1
40
1
40
2
40
2
40
2
40
2
10
26236.716673128336
20
24675.191108740055
30
0
10
26239.044317441971
20
24605.764304286928
30
0
10
26282.543264371205
20
24560.71651132944
30
0
10
26351.698802005827
20
24561.757825890814
30
0
0
SPLINE
5
398
100
AcDbEntity
8
0
100
AcDbSpline
70
0
71
3
72
8
73
4
74
0
42
0.000000001
43
0.0000000001
44
0.0000000001
40
2
40
2
40
2
40
2
40
3
40
3
40
3
40
3
10
26351.698802005827
20
24561.757825890814
30
0
10
26386.805978646353
20
24562.282858442763
30
0
10
26403.248248065
20
24549.174545729031
30
0
10
26420.775584757652
20
24519.711469021986
30
0
0
SPLINE
5
399
100
AcDbEntity
8
0
100
AcDbSpline
70
0
71
3
72
8
73
4
74
0
42
0.000000001
43
0.0000000001
44
0.0000000001
40
3
40
3
40
3
40
3
40
4
40
4
40
4
40
4
10
26420.775584757652
20
24519.711469021986
30
0
10
26450.081151699102
20
24470.41966293622
30
0
10
26475.326466905477
20
24422.414186602735
30
0
10
26469.586111004144
20
24362.805490871106
30
0
0
SPLINE
5
400
100
AcDbEntity
8
0
100
AcDbSpline
70
0
71
3
72
8
73
4
74
0
42
0.000000001
43
0.0000000001
44
0.0000000001
40
7
40
7
40
7
40
7
40
8
40
8
40
8
40
8
10
26336.595365594676
20
24421.416624754023
30
0
10
26339.588051140789
20
24479.870248871353
30
0
10
26316.43411559971
20
24525.285564615206
30
0
10
26270.476266218837
20
24554.599882099203
30
0
0
SPLINE
5
401
100
AcDbEntity
8
0
100
AcDbSpline
70
0
71
3
72
8
73
4
74
0
42
0.000000001
43
0.0000000001
44
0.0000000001
40
8
40
8
40
8
40
8
40
9
40
9
40
9
40
9
10
26270.476266218837
20
24554.599882099203
30
0
10
26230.180017856532
20
24580.308976059787
30
0
10
26214.980325477518
20
24614.26983162855
30
0
10
26204.812195054714
20
24657.602518249667
30
0
0
SPLINE
5
402
100
AcDbEntity
8
0
100
AcDbSpline
70
0
71
3
72
8
73
4
74
0
42
0.000000001
43
0.0000000001
44
0.0000000001
40
9
40
9
40
9
40
9
40
10
40
10
40
10
40
10
10
26204.812195054714
20
24657.602518249667
30
0
10
26199.273101631596
20
24681.237733630041
30
0
10
26217.342971961283
20
24697.146219954189
30
0
10
26206.964828517717
20
24720.62392556898
30
0
0
SPLINE
5
403
100
AcDbEntity
8
0
100
AcDbSpline
70
0
71
3
72
8
73
4
74
0
42
0.000000001
43
0.0000000001
44
0.0000000001
40
0
40
0
40
0
40
0
40
1
40
1
40
1
40
1
10
26696.557683212999
20
26030.020107967324
30
0
10
26724.506916061924
20
26021.103305126671
30
0
10
26756.35889088035
20
26010.935174703864
30
0
10
26789.348436228025
20
26000.408272037217
30
0
0
SPLINE
5
404
100
AcDbEntity
8
0
100
AcDbSpline
70
0
71
3
72
8
73
4
74
0
42
0.000000001
43
0.0000000001
44
0.0000000001
40
1
40
1
40
1
40
1
40
2
40
2
40
2
40
2
10
26789.348436228025
20
26000.408272037217
30
0
10
26795.692579564096
20
25976.571794178592
30
0
10
26790.37224970432
20
25953.024084223562
30
0
10
26792.323620689076
20
25934.350426459114
30
0
0
SPLINE
5
405
100
AcDbEntity
8
0
100
AcDbSpline
70
0
71
3
72
8
73
4
74
0
42
0.000000001
43
0.0000000001
44
0.0000000001
40
2
40
2
40
2
40
2
40
3
40
3
40
3
40
3
10
26792.323620689076
20
25934.350426459114
30
0
10
26761.040431135258
20
25965.589863300283
30
0
10
26728.252148265852
20
25998.35189454208
30
0
10
26696.557683212999
20
26030.020107967324
30
0
0
SPLINE
5
406
100
AcDbEntity
8
0
100
AcDbSpline
70
0
71
3
72
8
73
4
74
0
42
0.000000001
43
0.0000000001
44
0.0000000001
40
3
40
3
40
3
40
3
40
4
40
4
40
4
40
4
10
24616.011189592529
20
24727.580606882337
30
0
10
24611.299022438758
20
24781.562703765554
30
0
10
24619.878929391907
20
24832.473360219828
30
0
10
24641.764036265777
20
24881.49389948709
30
0
0
SPLINE
5
407
100
AcDbEntity
8
0
100
AcDbSpline
70
0
71
3
72
8
73
4
74
0
42
0.000000001
43
0.0000000001
44
0.0000000001
40
4
40
4
40
4
40
4
40
5
40
5
40
5
40
5
10
24641.764036265777
20
24881.49389948709
30
0
10
24656.198056173191
20
24876.829860317252
30
0
10
24658.053171190084
20
24868.726857932121
30
0
10
24659.466383809089
20
24859.363777422313
30
0
0
SPLINE
5
408
100
AcDbEntity
8
0
100
AcDbSpline
70
0
71
3
72
8
73
4
74
0
42
0.000000001
43
0.0000000001
44
0.0000000001
40
5
40
5
40
5
40
5
40
6
40
6
40
6
40
6
10
24659.466383809089
20
24859.363777422313
30
0
10
24666.125546676354
20
24815.331047398606
30
0
10
24684.624193590131
20
24777.117428159017
30
0
10
24718.913194503861
20
24748.056876408467
30
0
0
SPLINE
5
409
100
AcDbEntity
8
0
100
AcDbSpline
70
0
71
3
72
8
73
4
74
0
42
0.000000001
43
0.0000000001
44
0.0000000001
40
6
40
6
40
6
40
6
40
7
40
7
40
7
40
7
10
24718.913194503861
20
24748.056876408467
30
0
10
24735.250457412109
20
24734.213518122
30
0
10
24739.476969455322
20
24717.815001416035
30
0
10
24740.4657807615
20
24697.146219954189
30
0
0
SPLINE
5
410
100
AcDbEntity
8
0
100
AcDbSpline
70
0
71
3
72
8
73
4
74
0
42
0.000000001
43
0.0000000001
44
0.0000000001
40
7
40
7
40
7
40
7
40
8
40
8
40
8
40
8
10
24740.4657807615
20
24697.146219954189
30
0
10
24743.970373045784
20
24623.912929499413
30
0
10
24731.286461644871
20
24552.333491583275
30
0
10
24721.954008033917
20
24480.33402762558
30
0
0
SPLINE
5
411
100
AcDbEntity
8
0
100
AcDbSpline
70
0
71
3
72
8
73
4
74
0
42
0.000000001
43
0.0000000001
44
0.0000000001
40
8
40
8
40
8
40
8
40
9
40
9
40
9
40
9
10
24721.954008033917
20
24480.33402762558
30
0
10
24719.52135720988
20
24461.572864435824
30
0
10
24708.268159513042
20
24451.623497576333
30
0
10
24692.90658209717
20
24444.071779370755
30
0
0
SPLINE
5
412
100
AcDbEntity
8
0
100
AcDbSpline
70
0
71
3
72
8
73
4
74
0
42
0.000000001
43
0.0000000001
44
0.0000000001
40
9
40
9
40
9
40
9
40
10
40
10
40
10
40
10
10
24692.90658209717
20
24444.071779370755
30
0
10
24653.71727736522
20
24424.820585799171
30
0
10
24624.521092205414
20
24396.608836674284
30
0
10
24615.363649445113
20
24352.444848512587
30
0
0
SPLINE
5
413
100
AcDbEntity
8
0
100
AcDbSpline
70
0
71
3
72
8
73
4
74
0
42
0.000000001
43
0.0000000001
44
0.0000000001
40
0
40
0
40
0
40
0
40
1
40
1
40
1
40
1
10
24357.476410468793
20
26334.337725621266
30
0
10
24351.119141318908
20
26314.885269571445
30
0
10
24337.402665899157
20
26306.729763931129
30
0
10
24324.093090707178
20
26297.060414432679
30
0
0
SPLINE
5
414
100
AcDbEntity
8
0
100
AcDbSpline
70
0
71
3
72
8
73
4
74
0
42
0.000000001
43
0.0000000001
44
0.0000000001
40
1
40
1
40
1
40
1
40
2
40
2
40
2
40
2
10
24324.093090707178
20
26297.060414432679
30
0
10
24294.962534616367
20
26275.901602589023
30
0
10
24270.916043736961
20
26250.656287382655
30
0
10
24261.373577105238
20
26213.151462088212
30
0
0
SPLINE
5
415
100
AcDbEntity
8
0
100
AcDbSpline
70
0
71
3
72
8
73
4
74
0
42
0.000000001
43
0.0000000001
44
0.0000000001
40
2
40
2
40
2
40
2
40
3
40
3
40
3
40
3
10
24261.373577105238
20
26213.151462088212
30
0
10
24256.136377399504
20
26192.56143550916
30
0
10
24254.981305785215
20
26175.830398186954
30
0
10
24267.057054480108
20
26165.032228701799
30
0
0
SPLINE
5
416
100
AcDbEntity
8
0
100
AcDbSpline
70
0
71
3
72
8
73
4
74
0
42
0.000000001
43
0.0000000001
44
0.0000000001
40
3
40
3
40
3
40
3
40
4
40
4
40
4
40
4
10
24267.057054480108
20
26165.032228701799
30
0
10
24188.634692303534
20
26086.312348079115
30
0
10
24111.205516704413
20
26008.598779847678
30
0
10
24033.706336765012
20
25930.815207275969
30
0
0
LINE
5
417
100
AcDbEntity
8
0
100
AcDbLine
10
24033.706336765012
20
25930.815207275969
30
0
11
24033.706336765012
21
26033.949101564434
31
0
0
SPLINE
5
418
100
AcDbEntity
8
0
100
AcDbSpline
70
0
71
3
72
8
73
4
74
0
42
0.000000001
43
0.0000000001
44
0.0000000001
40
5
40
5
40
5
40
5
40
6
40
6
40
6
40
6
10
24033.706336765012
20
26033.949101564434
30
0
10
24070.782385475362
20
26057.654321285074
30
0
10
24111.078633837686
20
26082.155840376166
30
0
10
24150.04479973506
20
26108.617480994541
30
0
0
SPLINE
5
419
100
AcDbEntity
8
0
100
AcDbSpline
70
0
71
3
72
11
73
7
74
0
42
0.000000001
43
0.0000000001
44
0.0000000001
40
6
40
6
40
6
40
6
40
7
40
7
40
7
40
8
40
8
40
8
40
8
10
24150.04479973506
20
26108.617480994541
30
0
10
24207.794005178519
20
26147.828662082837
30
0
10
24246.493279528655
20
26200.46317541604
30
0
10
24255.991993447722
20
26271.193810706503
30
0
10
24257.746477225501
20
26284.258370707583
30
0
10
24261.942362369849
20
26294.881529342074
30
0
10
24272.82803728032
20
26300.831898264201
30
0
0
SPLINE
5
420
100
AcDbEntity
8
0
100
AcDbSpline
70
0
71
3
72
8
73
4
74
0
42
0.000000001
43
0.0000000001
44
0.0000000001
40
8
40
8
40
8
40
8
40
9
40
9
40
9
40
9
10
24272.82803728032
20
26300.831898264201
30
0
10
24299.543443632145
20
26315.427803208477
30
0
10
24330.113463969552
20
26320.266853228961
30
0
10
24357.476410468793
20
26334.337725621266
30
0
0
LINE
5
421
100
AcDbEntity
8
0
100
AcDbLine
10
26790.783525203355
20
25497.645850830464
30
0
11
26790.783525203355
21
25382.987492026652
31
0
0
SPLINE
5
422
100
AcDbEntity
8
0
100
AcDbSpline
70
0
71
3
72
8
73
4
74
0
42
0.000000001
43
0.0000000001
44
0.0000000001
40
1
40
1
40
1
40
1
40
2
40
2
40
2
40
2
10
26790.783525203355
20
25382.987492026652
30
0
10
26767.489580981739
20
25369.047877772322
30
0
10
26742.953059720516
20
25352.675612693951
30
0
10
26716.920195686216
20
25339.156024481184
30
0
0
SPLINE
5
423
100
AcDbEntity
8
0
100
AcDbSpline
70
0
71
3
72
8
73
4
74
0
42
0.000000001
43
0.0000000001
44
0.0000000001
40
2
40
2
40
2
40
2
40
3
40
3
40
3
40
3
10
26716.920195686216
20
25339.156024481184
30
0
10
26675.206359433647
20
25317.480930628095
30
0
10
26641.919295639884
20
25286.232743244407
30
0
10
26610.399841437691
20
25252.280638218181
30
0
0
SPLINE
5
424
100
AcDbEntity
8
0
100
AcDbSpline
70
0
71
3
72
8
73
4
74
0
42
0.000000001
43
0.0000000001
44
0.0000000001
40
3
40
3
40
3
40
3
40
4
40
4
40
4
40
4
10
26610.399841437691
20
25252.280638218181
30
0
10
26583.789441596244
20
25223.605110339067
30
0
10
26573.560057375696
20
25187.771638668339
30
0
10
26568.887267663336
20
25151.080613829417
30
0
0
SPLINE
5
425
100
AcDbEntity
8
0
100
AcDbSpline
70
0
71
3
72
8
73
4
74
0
42
0.000000001
43
0.0000000001
44
0.0000000001
40
4
40
4
40
4
40
4
40
5
40
5
40
5
40
5
10
26568.887267663336
20
25151.080613829417
30
0
10
26566.192100563305
20
25129.816795475359
30
0
10
26557.669072136625
20
25117.294769111304
30
0
10
26539.047917627398
20
25112.035693049249
30
0
0
SPLINE
5
426
100
AcDbEntity
8
0
100
AcDbSpline
70
0
71
3
72
8
73
4
74
0
42
0.000000001
43
0.0000000001
44
0.0000000001
40
5
40
5
40
5
40
5
40
6
40
6
40
6
40
6
10
26539.047917627398
20
25112.035693049249
30
0
10
26513.758849708378
20
25104.904000885235
30
0
10
26491.95249771728
20
25087.560425585754
30
0
10
26462.174401479078
20
25086.282846375998
30
0
0
SPLINE
5
427
100
AcDbEntity
8
0
100
AcDbSpline
70
0
71
3
72
8
73
4
74
0
42
0.000000001
43
0.0000000001
44
0.0000000001
40
6
40
6
40
6
40
6
40
7
40
7
40
7
40
7
10
26462.174401479078
20
25086.282846375998
30
0
10
26463.058206274865
20
25100.738742639751
30
0
10
26472.473790039876
20
25109.156764556046
30
0
10
26482.3794041867
20
25112.639480483995
30
0
0
SPLINE
5
428
100
AcDbEntity
8
0
100
AcDbSpline
70
0
71
3
72
8
73
4
74
0
42
0.000000001
43
0.0000000001
44
0.0000000001
40
7
40
7
40
7
40
7
40
8
40
8
40
8
40
8
10
26482.3794041867
20
25112.639480483995
30
0
10
26532.073735228951
20
25130.070561208799
30
0
10
26548.918529604089
20
25172.370683811077
30
0
10
26564.932022438639
20
25216.289656781868
30
0
0
SPLINE
5
429
100
AcDbEntity
8
0
100
AcDbSpline
70
0
71
3
72
8
73
4
74
0
42
0.000000001
43
0.0000000001
44
0.0000000001
40
8
40
8
40
8
40
8
40
9
40
9
40
9
40
9
10
26564.932022438639
20
25216.289656781868
30
0
10
26572.317480336093
20
25236.564663829755
30
0
10
26566.13959730812
20
25249.042937481143
30
0
10
26541.830590152746
20
25257.110937696139
30
0
0
SPLINE
5
430
100
AcDbEntity
8
0
100
AcDbSpline
70
0
71
3
72
8
73
4
74
0
42
0.000000001
43
0.0000000001
44
0.0000000001
40
9
40
9
40
9
40
9
40
10
40
10
40
10
40
10
10
26541.830590152746
20
25257.110937696139
30
0
10
26630.473586007316
20
25331.175529691514
30
0
10
26701.387982690969
20
25418.26967951782
30
0
10
26790.783525203355
20
25497.645850830464
30
0
0
SPLINE
5
431
100
AcDbEntity
8
0
100
AcDbSpline
70
0
71
3
72
8
73
4
74
0
42
0.000000001
43
0.0000000001
44
0.0000000001
40
0
40
0
40
0
40
0
40
1
40
1
40
1
40
1
10
26600.67798868403
20
26435.555251095109
30
0
10
26663.148111823793
20
26447.683503045188
30
0
10
26723.141831426841
20
26463.574488284285
30
0
10
26786.784527265987
20
26459.44423220892
30
0
0
SPLINE
5
432
100
AcDbEntity
8
0
100
AcDbSpline
70
0
71
3
72
8
73
4
74
0
42
0.000000001
43
0.0000000001
44
0.0000000001
40
1
40
1
40
1
40
1
40
2
40
2
40
2
40
2
10
26786.784527265987
20
26459.44423220892
30
0
10
26796.331369168965
20
26434.137663204841
30
0
10
26791.973598987774
20
26409.741150624122
30
0
10
26790.188488311134
20
26375.001496769964
30
0
0
SPLINE
5
433
100
AcDbEntity
8
0
100
AcDbSpline
70
0
71
3
72
8
73
4
74
0
42
0.000000001
43
0.0000000001
44
0.0000000001
40
2
40
2
40
2
40
2
40
3
40
3
40
3
40
3
10
26790.188488311134
20
26375.001496769964
30
0
10
26732.942439063281
20
26427.574756305432
30
0
10
26663.848155226398
20
26420.845589097902
30
0
10
26600.67798868403
20
26435.555251095109
30
0
0
SPLINE
5
434
100
AcDbEntity
8
0
100
AcDbSpline
70
0
71
3
72
8
73
4
74
0
42
0.000000001
43
0.0000000001
44
0.0000000001
40
0
40
0
40
0
40
0
40
1
40
1
40
1
40
1
10
25998.754419498568
20
26860.429093219795
30
0
10
26011.35520074542
20
26828.025834221815
30
0
10
26029.55632921309
20
26797.731455974168
30
0
10
26039.461943359944
20
26757.60146791998
30
0
0
SPLINE
5
435
100
AcDbEntity
8
0
100
AcDbSpline
70
0
71
3
72
8
73
4
74
0
42
0.000000001
43
0.0000000001
44
0.0000000001
40
1
40
1
40
1
40
1
40
2
40
2
40
2
40
2
10
26039.461943359944
20
26757.60146791998
30
0
10
26020.560771489661
20
26766.885793547001
30
0
10
26011.591465393798
20
26778.567767827939
30
0
10
26003.444710296026
20
26791.973598987774
30
0
0
SPLINE
5
436
100
AcDbEntity
8
0
100
AcDbSpline
70
0
71
3
72
8
73
4
74
0
42
0.000000001
43
0.0000000001
44
0.0000000001
40
2
40
2
40
2
40
2
40
3
40
3
40
3
40
3
10
26003.444710296026
20
26791.973598987774
30
0
10
25987.719985365045
20
26817.831452171406
30
0
10
25966.359911043139
20
26838.071457049176
30
0
10
25939.241979734816
20
26851.809808825252
30
0
0
SPLINE
5
437
100
AcDbEntity
8
0
100
AcDbSpline
70
0
71
3
72
8
73
4
74
0
42
0.000000001
43
0.0000000001
44
0.0000000001
40
3
40
3
40
3
40
3
40
4
40
4
40
4
40
4
10
25939.241979734816
20
26851.809808825252
30
0
10
25913.060356477468
20
26865.075631304575
30
0
10
25886.371201753238
20
26871.717293086753
30
0
10
25863.051005904035
20
26856.368841484687
30
0
0
SPLINE
5
438
100
AcDbEntity
8
0
100
AcDbSpline
70
0
71
3
72
8
73
4
74
0
42
0.000000001
43
0.0000000001
44
0.0000000001
40
4
40
4
40
4
40
4
40
5
40
5
40
5
40
5
10
25863.051005904035
20
26856.368841484687
30
0
10
25784.436131791732
20
26935.036218852179
30
0
10
25707.921387887258
20
27011.612216554386
30
0
10
25627.0051210889
20
27092.58098660794
30
0
0
SPLINE
5
439
100
AcDbEntity
8
0
100
AcDbSpline
70
0
71
3
72
8
73
4
74
0
42
0.000000001
43
0.0000000001
44
0.0000000001
40
5
40
5
40
5
40
5
40
6
40
6
40
6
40
6
10
25627.0051210889
20
27092.58098660794
30
0
10
25662.724835706707
20
27098.837624518688
30
0
10
25697.009461349186
20
27098.146331658638
30
0
10
25730.882811492615
20
27092.738496373513
30
0
0
SPLINE
5
440
100
AcDbEntity
8
0
100
AcDbSpline
70
0
71
3
72
8
73
4
74
0
42
0.000000001
43
0.0000000001
44
0.0000000001
40
6
40
6
40
6
40
6
40
7
40
7
40
7
40
7
10
25730.882811492615
20
27092.738496373513
30
0
10
25744.708668694035
20
27090.524609112781
30
0
10
25749.083939960292
20
27074.712378756503
30
0
10
25755.926864220743
20
27063.205415326207
30
0
0
SPLINE
5
441
100
AcDbEntity
8
0
100
AcDbSpline
70
0
71
3
72
8
73
4
74
0
42
0.000000001
43
0.0000000001
44
0.0000000001
40
7
40
7
40
7
40
7
40
8
40
8
40
8
40
8
10
25755.926864220743
20
27063.205415326207
30
0
10
25774.688027410481
20
27031.633457868826
30
0
10
25790.377750171338
20
26998.608910351049
30
0
10
25812.38536464065
20
26968.480792411516
30
0
0
SPLINE
5
442
100
AcDbEntity
8
0
100
AcDbSpline
70
0
71
3
72
8
73
4
74
0
42
0.000000001
43
0.0000000001
44
0.0000000001
40
8
40
8
40
8
40
8
40
9
40
9
40
9
40
9
10
25812.38536464065
20
26968.480792411516
30
0
10
25859.008255253993
20
26904.645584636703
30
0
10
25921.627137616815
20
26871.927306107544
30
0
10
25998.754419498568
20
26860.429093219795
30
0
0
LINE
5
443
100
AcDbEntity
8
0
100
AcDbLine
10
24033.802592732867
20
24859.346276337244
30
0
11
24033.802592732867
21
24931.800768506637
31
0
0
SPLINE
5
444
100
AcDbEntity
8
0
100
AcDbSpline
70
0
71
3
72
8
73
4
74
0
42
0.000000001
43
0.0000000001
44
0.0000000001
40
1
40
1
40
1
40
1
40
2
40
2
40
2
40
2
10
24033.802592732867
20
24931.800768506637
30
0
10
24156.087049353773
20
24959.452482909441
30
0
10
24266.278256194713
20
24963.608990612396
30
0
10
24315.0231533722
20
24942.642690704444
30
0
0
SPLINE
5
445
100
AcDbEntity
8
0
100
AcDbSpline
70
0
71
3
72
8
73
4
74
0
42
0.000000001
43
0.0000000001
44
0.0000000001
40
2
40
2
40
2
40
2
40
3
40
3
40
3
40
3
10
24315.0231533722
20
24942.642690704444
30
0
10
24310.122849553984
20
24927.267987474785
30
0
10
24298.130231013147
20
24926.900464688413
30
0
10
24286.820154789839
20
24931.71326308131
30
0
0
SPLINE
5
446
100
AcDbEntity
8
0
100
AcDbSpline
70
0
71
3
72
8
73
4
74
0
42
0.000000001
43
0.0000000001
44
0.0000000001
40
3
40
3
40
3
40
3
40
4
40
4
40
4
40
4
10
24286.820154789839
20
24931.71326308131
30
0
10
24245.360084270691
20
24949.363107369431
30
0
10
24202.985582056892
20
24947.1754717363
30
0
10
24161.039856427189
20
24936.81482937777
30
0
0
SPLINE
5
447
100
AcDbEntity
8
0
100
AcDbSpline
70
0
71
3
72
8
73
4
74
0
42
0.000000001
43
0.0000000001
44
0.0000000001
40
4
40
4
40
4
40
4
40
5
40
5
40
5
40
5
10
24161.039856427189
20
24936.81482937777
30
0
10
24126.365831642019
20
24928.248048238424
30
0
10
24096.202711532373
20
24909.206867687626
30
0
10
24068.31910775245
20
24886.989240197523
30
0
0
SPLINE
5
448
100
AcDbEntity
8
0
100
AcDbSpline
70
0
71
3
72
8
73
4
74
0
42
0.000000001
43
0.0000000001
44
0.0000000001
40
5
40
5
40
5
40
5
40
6
40
6
40
6
40
6
10
24068.31910775245
20
24886.989240197523
30
0
10
24058.041595547988
20
24878.807482929602
30
0
10
24051.316803611739
20
24866.416714703537
30
0
10
24033.802592732867
20
24859.346276337244
30
0
0
SPLINE
5
449
100
AcDbEntity
8
0
100
AcDbSpline
70
0
71
3
72
8
73
4
74
0
42
0.000000001
43
0.0000000001
44
0.0000000001
40
0
40
0
40
0
40
0
40
1
40
1
40
1
40
1
10
26349.239899554173
20
26691.709882649997
30
0
10
26357.316650311714
20
26747.652101060488
30
0
10
26369.374897921534
20
26798.273989611196
30
0
10
26390.761223871072
20
26845.859439903128
30
0
0
SPLINE
5
450
100
AcDbEntity
8
0
100
AcDbSpline
70
0
71
3
72
8
73
4
74
0
42
0.000000001
43
0.0000000001
44
0.0000000001
40
1
40
1
40
1
40
1
40
2
40
2
40
2
40
2
10
26390.761223871072
20
26845.859439903128
30
0
10
26401.41938467569
20
26869.573410166275
30
0
10
26429.893650076552
20
26876.661349617651
30
0
10
26450.509928283209
20
26888.212065760599
30
0
0
SPLINE
5
451
100
AcDbEntity
8
0
100
AcDbSpline
70
0
71
3
72
8
73
4
74
0
42
0.000000001
43
0.0000000001
44
0.0000000001
40
2
40
2
40
2
40
2
40
3
40
3
40
3
40
3
10
26450.509928283209
20
26888.212065760599
30
0
10
26517.784099273325
20
26925.874400820609
30
0
10
26547.343431948248
20
26985.045569425609
30
0
10
26558.719137240532
20
27056.563753544029
30
0
0
SPLINE
5
452
100
AcDbEntity
8
0
100
AcDbSpline
70
0
71
3
72
8
73
4
74
0
42
0.000000001
43
0.0000000001
44
0.0000000001
40
3
40
3
40
3
40
3
40
4
40
4
40
4
40
4
10
26558.719137240532
20
27056.563753544029
30
0
10
26565.282044139938
20
27097.813811042393
30
0
10
26563.951961674982
20
27098.023824063166
30
0
10
26610.714860968841
20
27090.743372676116
30
0
0
SPLINE
5
453
100
AcDbEntity
8
0
100
AcDbSpline
70
0
71
3
72
8
73
4
74
0
42
0.000000001
43
0.0000000001
44
0.0000000001
40
4
40
4
40
4
40
4
40
5
40
5
40
5
40
5
10
26610.714860968841
20
27090.743372676116
30
0
10
26617.024002134807
20
27048.968282625774
30
0
10
26609.769802375344
20
27006.265635067008
30
0
10
26617.619039027028
20
26963.501733710524
30
0
0
SPLINE
5
454
100
AcDbEntity
8
0
100
AcDbSpline
70
0
71
3
72
8
73
4
74
0
42
0.000000001
43
0.0000000001
44
0.0000000001
40
5
40
5
40
5
40
5
40
6
40
6
40
6
40
6
10
26617.619039027028
20
26963.501733710524
30
0
10
26624.733230105958
20
26924.728079748864
30
0
10
26559.489184983391
20
26852.859873929152
30
0
10
26518.589149186315
20
26846.690741443723
30
0
0
SPLINE
5
455
100
AcDbEntity
8
0
100
AcDbSpline
70
0
71
3
72
8
73
4
74
0
42
0.000000001
43
0.0000000001
44
0.0000000001
40
6
40
6
40
6
40
6
40
7
40
7
40
7
40
7
10
26518.589149186315
20
26846.690741443723
30
0
10
26495.111443571543
20
26843.146771718039
30
0
10
26471.56373361648
20
26839.716559045271
30
0
10
26450.466175570531
20
26829.417170484478
30
0
0
SPLINE
5
456
100
AcDbEntity
8
0
100
AcDbSpline
70
0
71
3
72
8
73
4
74
0
42
0.000000001
43
0.0000000001
44
0.0000000001
40
7
40
7
40
7
40
7
40
8
40
8
40
8
40
8
10
26450.466175570531
20
26829.417170484478
30
0
10
26413.941411039737
20
26811.574814260654
30
0
10
26392.651341058096
20
26780.589143152942
30
0
10
26379.123002302786
20
26742.463029338702
30
0
0
SPLINE
5
457
100
AcDbEntity
8
0
100
AcDbSpline
70
0
71
3
72
8
73
4
74
0
42
0.000000001
43
0.0000000001
44
0.0000000001
40
8
40
8
40
8
40
8
40
9
40
9
40
9
40
9
10
26379.123002302786
20
26742.463029338702
30
0
10
26373.260138805981
20
26725.950755579797
30
0
10
26375.535279864449
20
26703.313102048138
30
0
10
26349.239899554173
20
26691.709882649997
30
0
0
SPLINE
5
458
100
AcDbEntity
8
0
100
AcDbSpline
70
0
71
3
72
8
73
4
74
0
42
0.000000001
43
0.0000000001
44
0.0000000001
40
0
40
0
40
0
40
0
40
1
40
1
40
1
40
1
10
26472.141269423635
20
26294.54900872584
30
0
10
26488.023504120192
20
26302.100726931414
30
0
10
26499.337955614737
20
26299.178045725552
30
0
10
26511.089934235955
20
26290.138735289453
30
0
0
SPLINE
5
459
100
AcDbEntity
8
0
100
AcDbSpline
70
0
71
3
72
8
73
4
74
0
42
0.000000001
43
0.0000000001
44
0.0000000001
40
1
40
1
40
1
40
1
40
2
40
2
40
2
40
2
10
26511.089934235955
20
26290.138735289453
30
0
10
26561.816829297055
20
26251.120066136878
30
0
10
26611.729923902618
20
26251.128816679397
30
0
10
26660.907972935474
20
26297.585446984624
30
0
0
SPLINE
5
460
100
AcDbEntity
8
0
100
AcDbSpline
70
0
71
3
72
8
73
4
74
0
42
0.000000001
43
0.0000000001
44
0.0000000001
40
2
40
2
40
2
40
2
40
3
40
3
40
3
40
3
10
26660.907972935474
20
26297.585446984624
30
0
10
26700.337917587058
20
26264.06211854249
30
0
10
26736.092634374996
20
26225.822247675314
30
0
10
26790.337247534193
20
26213.667744097627
30
0
0
LINE
5
461
100
AcDbEntity
8
0
100
AcDbLine
10
26790.337247534193
20
26213.667744097627
30
0
11
26790.337247534193
21
26115.967936721867
31
0
0
SPLINE
5
462
100
AcDbEntity
8
0
100
AcDbSpline
70
0
71
3
72
8
73
4
74
0
42
0.000000001
43
0.0000000001
44
0.0000000001
40
4
40
4
40
4
40
4
40
5
40
5
40
5
40
5
10
26790.337247534193
20
26115.967936721867
30
0
10
26763.936860713533
20
26137.818041425613
30
0
10
26752.14112937967
20
26169.932532520019
30
0
10
26722.888065693405
20
26187.529873552954
30
0
0
SPLINE
5
463
100
AcDbEntity
8
0
100
AcDbSpline
70
0
71
3
72
8
73
4
74
0
42
0.000000001
43
0.0000000001
44
0.0000000001
40
5
40
5
40
5
40
5
40
6
40
6
40
6
40
6
10
26722.888065693405
20
26187.529873552954
30
0
10
26691.473618001619
20
26206.431045423225
30
0
10
26659.997916512079
20
26221.263215015879
30
0
10
26622.834362376423
20
26218.393037065183
30
0
0
SPLINE
5
464
100
AcDbEntity
8
0
100
AcDbSpline
70
0
71
3
72
8
73
4
74
0
42
0.000000001
43
0.0000000001
44
0.0000000001
40
6
40
6
40
6
40
6
40
7
40
7
40
7
40
7
10
26622.834362376423
20
26218.393037065183
30
0
10
26591.227402748889
20
26215.942885156073
30
0
10
26565.842078862006
20
26225.655987367201
30
0
10
26541.725583642336
20
26246.867302466071
30
0
0
SPLINE
5
465
100
AcDbEntity
8
0
100
AcDbSpline
70
0
71
3
72
8
73
4
74
0
42
0.000000001
43
0.0000000001
44
0.0000000001
40
7
40
7
40
7
40
7
40
8
40
8
40
8
40
8
10
26541.725583642336
20
26246.867302466071
30
0
10
26521.196810861024
20
26264.902170625624
30
0
10
26493.212575841975
20
26273.766470211089
30
0
10
26472.141269423635
20
26294.54900872584
30
0
0
LINE
5
466
100
AcDbEntity
8
0
100
AcDbLine
10
24033.067547160135
20
27017.571336019057
30
0
11
24033.067547160135
21
27080.146465669208
31
0
0
SPLINE
5
467
100
AcDbEntity
8
0
100
AcDbSpline
70
0
71
3
72
8
73
4
74
0
42
0.000000001
43
0.0000000001
44
0.0000000001
40
1
40
1
40
1
40
1
40
2
40
2
40
2
40
2
10
24033.067547160135
20
27080.146465669208
30
0
10
24081.051147137292
20
27094.786123326128
30
0
10
24121.566159062924
20
27079.612682574727
30
0
10
24141.132372165674
20
27039.412690180256
30
0
0
SPLINE
5
468
100
AcDbEntity
8
0
100
AcDbSpline
70
0
71
3
72
8
73
4
74
0
42
0.000000001
43
0.0000000001
44
0.0000000001
40
2
40
2
40
2
40
2
40
3
40
3
40
3
40
3
10
24141.132372165674
20
27039.412690180256
30
0
10
24149.532892996907
20
27022.156620306105
30
0
10
24157.937789099411
20
27004.638034155971
30
0
10
24163.581889032896
20
26986.393152975619
30
0
0
SPLINE
5
469
100
AcDbEntity
8
0
100
AcDbSpline
70
0
71
3
72
8
73
4
74
0
42
0.000000001
43
0.0000000001
44
0.0000000001
40
3
40
3
40
3
40
3
40
4
40
4
40
4
40
4
10
24163.581889032896
20
26986.393152975619
30
0
10
24169.002850131797
20
26968.865816282945
30
0
10
24187.532123944438
20
26960.185278090688
30
0
10
24193.46499178149
20
26935.438743808678
30
0
0
SPLINE
5
470
100
AcDbEntity
8
0
100
AcDbSpline
70
0
71
3
72
8
73
4
74
0
42
0.000000001
43
0.0000000001
44
0.0000000001
40
4
40
4
40
4
40
4
40
5
40
5
40
5
40
5
10
24193.46499178149
20
26935.438743808678
30
0
10
24159.276622106881
20
26949.789633562035
30
0
10
24149.139118582942
20
26981.466597529819
30
0
10
24126.584595205331
20
26999.553968944569
30
0
0
SPLINE
5
471
100
AcDbEntity
8
0
100
AcDbSpline
70
0
71
3
72
8
73
4
74
0
42
0.000000001
43
0.0000000001
44
0.0000000001
40
5
40
5
40
5
40
5
40
6
40
6
40
6
40
6
10
24126.584595205331
20
26999.553968944569
30
0
10
24099.409785370546
20
27021.334069308028
30
0
10
24067.570936365919
20
27014.744910781043
30
0
10
24033.067547160135
20
27017.571336019057
30
0
0
SPLINE
5
472
100
AcDbEntity
8
0
100
AcDbSpline
70
0
71
3
72
8
73
4
74
0
42
0.000000001
43
0.0000000001
44
0.0000000001
40
2
40
2
40
2
40
2
40
3
40
3
40
3
40
3
10
24213.101209224511
20
24360.25908299414
30
0
10
24223.558107550885
20
24387.342012132329
30
0
10
24219.56348488478
20
24413.25236857116
30
0
10
24209.172215627397
20
24438.392677267144
30
0
0
SPLINE
5
473
100
AcDbEntity
8
0
100
AcDbSpline
70
0
71
3
72
8
73
4
74
0
42
0.000000001
43
0.0000000001
44
0.0000000001
40
3
40
3
40
3
40
3
40
4
40
4
40
4
40
4
10
24209.172215627397
20
24438.392677267144
30
0
10
24202.766818493579
20
24453.881137549724
30
0
10
24202.456174233674
20
24466.210651978065
30
0
10
24213.739998829376
20
24479.476474457384
30
0
0
SPLINE
5
474
100
AcDbEntity
8
0
100
AcDbSpline
70
0
71
3
72
8
73
4
74
0
42
0.000000001
43
0.0000000001
44
0.0000000001
40
4
40
4
40
4
40
4
40
5
40
5
40
5
40
5
10
24213.739998829376
20
24479.476474457384
30
0
10
24222.394285394057
20
24489.644604880192
30
0
10
24225.15070629181
20
24503.531715879326
30
0
10
24231.01794505987
20
24515.274943957986
30
0
0
SPLINE
5
475
100
AcDbEntity
8
0
100
AcDbSpline
70
0
71
3
72
8
73
4
74
0
42
0.000000001
43
0.0000000001
44
0.0000000001
40
5
40
5
40
5
40
5
40
6
40
6
40
6
40
6
10
24231.01794505987
20
24515.274943957986
30
0
10
24245.54384566388
20
24544.317994623474
30
0
10
24260.831043468206
20
24567.874455121058
30
0
10
24302.01547189759
20
24572.214724217189
30
0
0
SPLINE
5
476
100
AcDbEntity
8
0
100
AcDbSpline
70
0
71
3
72
8
73
4
74
0
42
0.000000001
43
0.0000000001
44
0.0000000001
40
6
40
6
40
6
40
6
40
7
40
7
40
7
40
7
10
24302.01547189759
20
24572.214724217189
30
0
10
24372.08544122686
20
24579.591431572117
30
0
10
24429.178355980381
20
24612.554725292175
30
0
10
24446.976959491556
20
24689.541998493412
30
0
0
SPLINE
5
477
100
AcDbEntity
8
0
100
AcDbSpline
70
0
71
3
72
8
73
4
74
0
42
0.000000001
43
0.0000000001
44
0.0000000001
40
7
40
7
40
7
40
7
40
8
40
8
40
8
40
8
10
24446.976959491556
20
24689.541998493412
30
0
10
24448.923955205049
20
24697.977521494773
30
0
10
24454.178655995835
20
24705.756753806203
30
0
10
24458.567053075898
20
24713.457231234832
30
0
0
SPLINE
5
478
100
AcDbEntity
8
0
100
AcDbSpline
70
0
71
3
72
8
73
4
74
0
42
0.000000001
43
0.0000000001
44
0.0000000001
40
8
40
8
40
8
40
8
40
9
40
9
40
9
40
9
10
24458.567053075898
20
24713.457231234832
30
0
10
24459.76587740286
20
24715.566111985172
30
0
10
24463.397352553857
20
24716.283656472842
30
0
10
24468.783311482628
20
24719.197587136179
30
0
0
SPLINE
5
479
100
AcDbEntity
8
0
100
AcDbSpline
70
0
71
3
72
8
73
4
74
0
42
0.000000001
43
0.0000000001
44
0.0000000001
40
9
40
9
40
9
40
9
40
10
40
10
40
10
40
10
10
24468.783311482628
20
24719.197587136179
30
0
10
24476.440036198601
20
24686.505560234622
30
0
10
24459.302098648626
20
24659.282622415914
30
0
10
24453.671124528941
20
24630.423333143612
30
0
0
SPLINE
5
480
100
AcDbEntity
8
0
100
AcDbSpline
70
0
71
3
72
8
73
4
74
0
42
0.000000001
43
0.0000000001
44
0.0000000001
40
10
40
10
40
10
40
10
40
11
40
11
40
11
40
11
10
24453.671124528941
20
24630.423333143612
30
0
10
24445.91814384512
20
24590.660867875773
30
0
10
24426.05878756753
20
24563.875457183691
30
0
10
24388.348324523573
20
24542.637890457223
30
0
0
SPLINE
5
481
100
AcDbEntity
8
0
100
AcDbSpline
70
0
71
3
72
8
73
4
74
0
42
0.000000001
43
0.0000000001
44
0.0000000001
40
11
40
11
40
11
40
11
40
12
40
12
40
12
40
12
10
24388.348324523573
20
24542.637890457223
30
0
10
24309.48843522037
20
24498.220136562082
30
0
10
24266.418264875239
20
24427.463249644006
30
0
10
24263.154312510604
20
24332.773628899446
30
0
0
SPLINE
5
482
100
AcDbEntity
8
0
100
AcDbSpline
70
0
71
3
72
8
73
4
74
0
42
0.000000001
43
0.0000000001
44
0.0000000001
40
0
40
0
40
0
40
0
40
1
40
1
40
1
40
1
10
24599.577670716426
20
26543.475692148841
30
0
10
24550.487127108903
20
26556.872772766161
30
0
10
24522.691028754311
20
26594.368847518082
30
0
10
24491.145322924523
20
26627.165880930002
30
0
0
SPLINE
5
483
100
AcDbEntity
8
0
100
AcDbSpline
70
0
71
3
72
8
73
4
74
0
42
0.000000001
43
0.0000000001
44
0.0000000001
40
1
40
1
40
1
40
1
40
2
40
2
40
2
40
2
10
24491.145322924523
20
26627.165880930002
30
0
10
24489.163325040907
20
26629.222258425165
30
0
10
24488.970813105188
20
26633.282510160247
30
0
10
24486.813804370922
20
26634.840106731055
30
0
0
SPLINE
5
484
100
AcDbEntity
8
0
100
AcDbSpline
70
0
71
3
72
8
73
4
74
0
42
0.000000001
43
0.0000000001
44
0.0000000001
40
2
40
2
40
2
40
2
40
3
40
3
40
3
40
3
10
24486.813804370922
20
26634.840106731055
30
0
10
24444.854952927417
20
26665.213239861478
30
0
10
24450.765944408144
20
26707.749627112127
30
0
10
24455.889387060943
20
26753.112439600794
30
0
0
SPLINE
5
485
100
AcDbEntity
8
0
100
AcDbSpline
70
0
71
3
72
8
73
4
74
0
42
0.000000001
43
0.0000000001
44
0.0000000001
40
3
40
3
40
3
40
3
40
4
40
4
40
4
40
4
10
24455.889387060943
20
26753.112439600794
30
0
10
24488.270769702583
20
26734.96381438832
30
0
10
24514.990551325682
20
26712.676182557956
30
0
10
24553.247923277926
20
26709.062208492014
30
0
0
SPLINE
5
486
100
AcDbEntity
8
0
100
AcDbSpline
70
0
71
3
72
8
73
4
74
0
42
0.000000001
43
0.0000000001
44
0.0000000001
40
4
40
4
40
4
40
4
40
5
40
5
40
5
40
5
10
24553.247923277926
20
26709.062208492014
30
0
10
24577.635685316098
20
26706.760815805959
30
0
10
24586.976889469581
20
26678.050285756697
30
0
10
24587.860694265361
20
26652.691213497419
30
0
0
SPLINE
5
487
100
AcDbEntity
8
0
100
AcDbSpline
70
0
71
3
72
8
73
4
74
0
42
0.000000001
43
0.0000000001
44
0.0000000001
40
5
40
5
40
5
40
5
40
6
40
6
40
6
40
6
10
24587.860694265361
20
26652.691213497419
30
0
10
24588.538861311637
20
26633.335013415439
30
0
10
24587.882570621692
20
26613.917559535766
30
0
10
24587.440668223797
20
26594.535107826203
30
0
0
SPLINE
5
488
100
AcDbEntity
8
0
100
AcDbSpline
70
0
71
3
72
8
73
4
74
0
42
0.000000001
43
0.0000000001
44
0.0000000001
40
6
40
6
40
6
40
6
40
7
40
7
40
7
40
7
10
24587.440668223797
20
26594.535107826203
30
0
10
24587.033767996036
20
26576.876512995528
30
0
10
24587.278783186954
20
26559.515436610996
30
0
10
24599.577670716426
20
26543.475692148841
30
0
0
SPLINE
5
489
100
AcDbEntity
8
0
100
AcDbSpline
70
0
71
3
72
8
73
4
74
0
42
0.000000001
43
0.0000000001
44
0.0000000001
40
0
40
0
40
0
40
0
40
1
40
1
40
1
40
1
10
24189.369737876274
20
24490.624665643838
30
0
10
24167.847778517498
20
24454.449922814343
30
0
10
24134.206317751174
20
24448.44705063702
30
0
10
24116.700857414839
20
24421.381622583896
30
0
0
SPLINE
5
490
100
AcDbEntity
8
0
100
AcDbSpline
70
0
71
3
72
8
73
4
74
0
42
0.000000001
43
0.0000000001
44
0.0000000001
40
1
40
1
40
1
40
1
40
2
40
2
40
2
40
2
10
24116.700857414839
20
24421.381622583896
30
0
10
24097.987822209005
20
24392.443578428793
30
0
10
24108.947876731007
20
24363.356775050655
30
0
10
24101.14676806326
20
24333.211156026075
30
0
0
SPLINE
5
491
100
AcDbEntity
8
0
100
AcDbSpline
70
0
71
3
72
8
73
4
74
0
42
0.000000001
43
0.0000000001
44
0.0000000001
40
4
40
4
40
4
40
4
40
5
40
5
40
5
40
5
10
24086.126461806161
20
24440.379050422023
30
0
10
24117.221514695524
20
24455.972517215007
30
0
10
24148.670964557456
20
24470.857190062838
30
0
10
24189.369737876274
20
24490.624665643838
30
0
0
LINE
5
492
100
AcDbEntity
8
0
100
AcDbLine
10
24037.705632866484
20
24332.773629274983
30
0
11
24037.705632943143
21
27080.150380650117
31
0
0
SPLINE
5
493
100
AcDbEntity
8
0
100
AcDbSpline
70
0
71
3
72
8
73
4
74
0
42
0.000000001
43
0.0000000001
44
0.0000000001
40
2
40
2
40
2
40
2
40
2.0138287553342211
40
2.0138287553342211
40
2.0138287553342211
40
2.0138287553342211
10
24101.14676806326
20
24333.211156026075
30
0
10
24100.872742929758
20
24333.071390502027
30
0
10
24100.598357177401
20
24332.93452331614
30
0
10
24100.323617320395
20
24332.800503442246
30
0
0
SPLINE
5
494
100
AcDbEntity
8
0
100
AcDbSpline
70
0
71
3
72
8
73
4
74
0
42
0.000000001
43
0.0000000001
44
0.0000000001
40
3.0238971676496345
40
3.0238971676496345
40
3.0238971676496345
40
3.0238971676496345
40
4
40
4
40
4
40
4
10
24037.705632866484
20
24332.773629274983
30
0
10
24027.462940840451
20
24382.949668490481
30
0
10
24043.953154387531
20
24419.230471349911
30
0
10
24086.126461806161
20
24440.379050422023
30
0
0
SPLINE
5
495
100
AcDbEntity
8
0
100
AcDbSpline
70
0
71
3
72
8
73
4
74
0
42
0.000000001
43
0.0000000001
44
0.0000000001
40
1.1183369544670978
40
1.1183369544670978
40
1.1183369544670978
40
1.1183369544670978
40
2
40
2
40
2
40
2
10
24215.246122089651
20
24332.84981733852
30
0
10
24208.335816889561
20
24342.518651388731
30
0
10
24210.138637712458
20
24352.582628164731
30
0
10
24213.101209224511
20
24360.25908299414
30
0
0
SPLINE
5
496
100
AcDbEntity
8
0
100
AcDbSpline
70
0
71
3
72
8
73
4
74
0
42
0.000000001
43
0.0000000001
44
0.0000000001
40
5.0154467007263435
40
5.0154467007263435
40
5.0154467007263435
40
5.0154467007263435
40
6
40
6
40
6
40
6
10
24426.526760703098
20
24332.940486588774
30
0
10
24452.518801642917
20
24383.124788203888
30
0
10
24470.503266775893
20
24431.694127153474
30
0
10
24476.947567665487
20
24483.842995181127
30
0
0
SPLINE
5
497
100
AcDbEntity
8
0
100
AcDbSpline
70
0
71
3
72
8
73
4
74
0
42
0.000000001
43
0.0000000001
44
0.0000000001
40
3
40
3
40
3
40
3
40
3.9869038247080377
40
3.9869038247080377
40
3.9869038247080377
40
3.9869038247080377
10
24519.641464681721
20
24510.575902618017
30
0
10
24539.365960534771
20
24451.566497992848
30
0
10
24537.757772703182
20
24393.332672359022
30
0
10
24520.851958261788
20
24332.980962812329
30
0
0
SPLINE
5
498
100
AcDbEntity
8
0
100
AcDbSpline
70
0
71
3
72
8
73
4
74
0
42
0.000000001
43
0.0000000001
44
0.0000000001
40
10
40
10
40
10
40
10
40
10.256500932789361
40
10.256500932789361
40
10.256500932789361
40
10.256500932789361
10
24615.363649445113
20
24352.444848512587
30
0
10
24613.368269100847
20
24342.820336795812
30
0
10
24610.057363828317
20
24336.740545859484
30
0
10
24605.862434857583
20
24333.017444425102
30
0
0
SPLINE
5
499
100
AcDbEntity
8
0
100
AcDbSpline
70
0
71
3
72
14
73
10
74
0
42
0.000000001
43
0.0000000001
44
0.0000000001
40
0.013792771332033171
40
0.013792771332033171
40
0.013792771332033171
40
0.013792771332033171
40
1
40
1
40
1
40
2
40
2
40
2
40
3
40
3
40
3
40
3
10
24559.283272886722
20
24332.997454948669
30
0
10
24599.08925093359
20
24377.975505880931
30
0
10
24633.662778644979
20
24424.195956568215
30
0
10
24660.682709221113
20
24476.518791081395
30
0
10
24683.132329489996
20
24519.991432985582
30
0
10
24691.336074908992
20
24567.209411898155
30
0
10
24691.764636296677
20
24613.54353659835
30
0
10
24692.228648048236
20
24663.710394782287
30
0
10
24660.853344800504
20
24701.626497730849
30
0
10
24616.011189592529
20
24727.580606882337
30
0
0
SPLINE
5
500
100
AcDbEntity
8
0
100
AcDbSpline
70
0
71
3
72
8
73
4
74
0
42
0.000000001
43
0.0000000001
44
0.0000000001
40
1
40
1
40
1
40
1
40
1.6683628666215768
40
1.6683628666215768
40
1.6683628666215768
40
1.6683628666215768
10
24801.168294309689
20
24366.008189438013
30
0
10
24808.674892436786
20
24350.901416580768
30
0
10
24804.288524132462
20
24339.418236125144
30
0
10
24792.336951298785
20
24333.097465916166
30
0
0
SPLINE
5
501
100
AcDbEntity
8
0
100
AcDbSpline
70
0
71
3
72
8
73
4
74
0
42
0.000000001
43
0.0000000001
44
0.0000000001
40
3.0740722877846709
40
3.0740722877846709
40
3.0740722877846709
40
3.0740722877846709
40
4
40
4
40
4
40
4
10
24728.137746788165
20
24333.069915931053
30
0
10
24740.884782842702
20
24355.567401224635
30
0
10
24757.389492168106
20
24373.862239905811
30
0
10
24757.336826764225
20
24398.533956031442
30
0
0
SPLINE
5
502
100
AcDbEntity
8
0
100
AcDbSpline
70
0
71
3
72
8
73
4
74
0
42
0.000000001
43
0.0000000001
44
0.0000000001
40
0.52122361247932603
40
0.52122361247932603
40
0.52122361247932603
40
0.52122361247932603
40
1
40
1
40
1
40
1
10
24911.091788517537
20
24333.148427520573
30
0
10
24894.328569978788
20
24338.133326398547
30
0
10
24878.771287812669
20
24346.911581699587
30
0
10
24862.212079016652
20
24359.8740591227
30
0
0
SPLINE
5
503
100
AcDbEntity
8
0
100
AcDbSpline
70
0
71
3
72
8
73
4
74
0
42
0.000000001
43
0.0000000001
44
0.0000000001
40
4
40
4
40
4
40
4
40
4.9410516338248147
40
4.9410516338248147
40
4.9410516338248147
40
4.9410516338248147
10
24887.719910498996
20
24380.367829733899
30
0
10
24911.855852388329
20
24364.408957205229
30
0
10
24937.425412836696
20
24350.612136449385
30
0
10
24967.309122057464
20
24333.172552150332
30
0
0
SPLINE
5
504
100
AcDbEntity
8
0
100
AcDbSpline
70
0
71
3
72
8
73
4
74
0
42
0.000000001
43
0.0000000001
44
0.0000000001
40
5.430964592810545
40
5.430964592810545
40
5.430964592810545
40
5.430964592810545
40
6
40
6
40
6
40
6
10
25082.408216941039
20
24333.221945000296
30
0
10
25075.538477899387
20
24338.36974991954
30
0
10
25071.118415144716
20
24346.382661147763
30
0
10
25067.16728621368
20
24355.166267240202
30
0
0
SPLINE
5
505
100
AcDbEntity
8
0
100
AcDbSpline
70
0
71
3
72
8
73
4
74
0
42
0.000000001
43
0.0000000001
44
0.0000000001
40
3
40
3
40
3
40
3
40
3.975409564715771
40
3.975409564715771
40
3.975409564715771
40
3.975409564715771
10
24951.143842774803
20
24562.667882314196
30
0
10
25030.22824756433
20
24483.58774520611
30
0
10
25105.895045032994
20
24407.921052681599
30
0
10
25180.556097203087
20
24333.2640634659
30
0
0
SPLINE
5
506
100
AcDbEntity
8
0
100
AcDbSpline
70
0
71
3
72
8
73
4
74
0
42
0.000000001
43
0.0000000001
44
0.0000000001
40
1
40
1
40
1
40
1
40
1.5127521031843436
40
1.5127521031843436
40
1.5127521031843436
40
1.5127521031843436
10
25720.670928357162
20
24389.757161871312
30
0
10
25711.05110247343
20
24356.760800141386
30
0
10
25706.361561897415
20
24340.683392285915
30
0
10
25693.920947679551
20
24333.484366900215
30
0
0
SPLINE
5
507
100
AcDbEntity
8
0
100
AcDbSpline
70
0
71
3
72
8
73
4
74
0
42
0.000000001
43
0.0000000001
44
0.0000000001
40
8
40
8
40
8
40
8
40
8.4270668247498364
40
8.4270668247498364
40
8.4270668247498364
40
8.4270668247498364
10
25930.718951308132
20
24375.283764522504
30
0
10
25928.450551994702
20
24352.009314894818
30
0
10
25919.9881656051
20
24339.834885909957
30
0
10
25908.184241548075
20
24333.576312644873
30
0
0
SPLINE
5
508
100
AcDbEntity
8
0
100
AcDbSpline
70
0
71
3
72
8
73
4
74
0
42
0.000000001
43
0.0000000001
44
0.0000000001
40
0.050815521596683337
40
0.050815521596683337
40
0.050815521596683337
40
0.050815521596683337
40
1
40
1
40
1
40
1
10
25822.897418426248
20
24333.539713159607
30
0
10
25859.791012015026
20
24368.568779211084
30
0
10
25899.027538101269
20
24395.36772347855
30
0
10
25909.708898687502
20
24444.430551614598
30
0
0
SPLINE
5
509
100
AcDbEntity
8
0
100
AcDbSpline
70
0
71
3
72
8
73
4
74
0
42
0.000000001
43
0.0000000001
44
0.0000000001
40
2.0300410726575944
40
2.0300410726575944
40
2.0300410726575944
40
2.0300410726575944
40
3
40
3
40
3
40
3
10
25629.692356211872
20
24333.456802545483
30
0
10
25663.14623879642
20
24369.351063414222
30
0
10
25693.964702144782
20
24402.410270810607
30
0
10
25724.774932804921
20
24435.461245518742
30
0
0
SPLINE
5
510
100
AcDbEntity
8
0
100
AcDbSpline
70
0
71
3
72
8
73
4
74
0
42
0.000000001
43
0.0000000001
44
0.0000000001
40
1.0311690510130647
40
1.0311690510130647
40
1.0311690510130647
40
1.0311690510130647
40
2
40
2
40
2
40
2
10
26081.264213047267
20
24333.650586821423
30
0
10
26121.493683361994
20
24393.535112100049
30
0
10
26121.690634349583
20
24457.012073369282
30
0
10
26130.117563996977
20
24520.604024360306
30
0
0
SPLINE
5
511
100
AcDbEntity
8
0
100
AcDbSpline
70
0
71
3
72
8
73
4
74
0
42
0.000000001
43
0.0000000001
44
0.0000000001
40
2
40
2
40
2
40
2
40
2.9848816181021509
40
2.9848816181021509
40
2.9848816181021509
40
2.9848816181021509
10
26130.117563996977
20
24520.604024360306
30
0
10
26153.033486728473
20
24477.090487740781
30
0
10
26161.774525416968
20
24401.025645549445
30
0
10
26152.119066721127
20
24333.680992966692
30
0
0
SPLINE
5
512
100
AcDbEntity
8
0
100
AcDbSpline
70
0
71
3
72
8
73
4
74
0
42
0.000000001
43
0.0000000001
44
0.0000000001
40
3
40
3
40
3
40
3
40
3.9690239994851595
40
3.9690239994851595
40
3.9690239994851595
40
3.9690239994851595
10
26227.668612149686
20
24376.246324201074
30
0
10
26238.378202617259
20
24363.145518759746
30
0
10
26254.691667849693
20
24354.596834461732
30
0
10
26262.022072803778
20
24333.728155937712
30
0
0
SPLINE
5
513
100
AcDbEntity
8
0
100
AcDbSpline
70
0
71
3
72
8
73
4
74
0
42
0.000000001
43
0.0000000001
44
0.0000000001
40
0.019493631631631168
40
0.019493631631631168
40
0.019493631631631168
40
0.019493631631631168
40
1
40
1
40
1
40
1
10
26184.869031839051
20
24333.695047041037
30
0
10
26172.460318098641
20
24432.06429251605
30
0
10
26149.384121989988
20
24524.47291676965
30
0
10
26176.565443759682
20
24619.161384904241
30
0
0
SPLINE
5
514
100
AcDbEntity
8
0
100
AcDbSpline
70
0
71
3
72
8
73
4
74
0
42
0.000000001
43
0.0000000001
44
0.0000000001
40
4
40
4
40
4
40
4
40
4.6143454256930347
40
4.6143454256930347
40
4.6143454256930347
40
4.6143454256930347
10
26469.586111004144
20
24362.805490871106
30
0
10
26468.376543454258
20
24350.199109073583
30
0
10
26466.162975652995
20
24339.878148900942
30
0
10
26459.096475960181
20
24333.812727708282
30
0
0
SPLINE
5
515
100
AcDbEntity
8
0
100
AcDbSpline
70
0
71
3
72
8
73
4
74
0
42
0.000000001
43
0.0000000001
44
0.0000000001
40
6.0574415683771843
40
6.0574415683771843
40
6.0574415683771843
40
6.0574415683771843
40
7
40
7
40
7
40
7
10
26320.813154330615
20
24333.753385111275
30
0
10
26325.292259939852
20
24365.213425266091
30
0
10
26335.110744018508
20
24392.351033451938
30
0
10
26336.595365594676
20
24421.416624754023
30
0
0
SPLINE
5
516
100
AcDbEntity
8
0
100
AcDbSpline
70
0
71
3
72
8
73
4
74
0
42
0.000000001
43
0.0000000001
44
0.0000000001
40
1.015593285260328
40
1.015593285260328
40
1.015593285260328
40
1.015593285260328
40
2
40
2
40
2
40
2
10
26486.903362367026
20
24333.824659856764
30
0
10
26515.638690136238
20
24391.518834535946
30
0
10
26556.367928291616
20
24440.157444203902
30
0
10
26549.356056730714
20
24515.659967829419
30
0
0
SPLINE
5
517
100
AcDbEntity
8
0
100
AcDbSpline
70
0
71
3
72
8
73
4
74
0
42
0.000000001
43
0.0000000001
44
0.0000000001
40
2
40
2
40
2
40
2
40
2.9876821413152728
40
2.9876821413152728
40
2.9876821413152728
40
2.9876821413152728
10
26549.356056730714
20
24515.659967829419
30
0
10
26615.64598440691
20
24464.391147624054
30
0
10
26652.477160258597
20
24409.195632014675
30
0
10
26668.255436338273
20
24333.902483953385
30
0
0
SPLINE
5
518
100
AcDbEntity
8
0
100
AcDbSpline
70
0
71
3
72
8
73
4
74
0
42
0.000000001
43
0.0000000001
44
0.0000000001
40
2.3599417843309887
40
2.3599417843309887
40
2.3599417843309887
40
2.3599417843309887
40
3
40
3
40
3
40
3
10
26736.286014199195
20
24333.931678128843
30
0
10
26708.308931898024
20
24340.978995876558
30
0
10
26687.999630048573
20
24360.504725280665
30
0
10
26676.70270220668
20
24392.093556727501
30
0
0
LINE
5
519
100
AcDbEntity
8
0
100
AcDbLine
10
24559.283272886722
20
24332.997454948669
30
0
11
26790.521008927371
21
24333.954952141343
31
0
0
LINE
5
520
100
AcDbEntity
8
0
100
AcDbLine
10
24426.526760703098
20
24332.940486588774
30
0
11
24520.851958261788
21
24332.980962812329
31
0
0
LINE
5
521
100
AcDbEntity
8
0
100
AcDbLine
10
24037.705632866484
20
24332.773629274983
30
0
11
24100.323617320395
21
24332.800503442246
31
0
0
LINE
5
522
100
AcDbEntity
8
0
100
AcDbLine
10
24215.246122089651
20
24332.84981733852
30
0
11
24263.157661593064
21
24332.870377949581
31
0
0
ENDSEC
0
SECTION
2
OBJECTS
0
DICTIONARY
5
C
100
AcDbDictionary
3
ACAD_GROUP
350
D
3
ACAD_MLINESTYLE
350
17
0
DICTIONARY
5
D
100
AcDbDictionary
0
DICTIONARY
5
1A
330
C
100
AcDbDictionary
0
DICTIONARY
5
17
100
AcDbDictionary
0
ENDSEC
0
EOF
